<svg width="21" height="23" viewBox="0 0 21 23" fill="none" xmlns="http://www.w3.org/2000/svg">
<path d="M19.7564 17.924C19.4086 18.7275 18.9968 19.4672 18.5198 20.1472C17.8696 21.0743 17.3372 21.716 16.9269 22.0724C16.2909 22.6573 15.6094 22.9568 14.8797 22.9739C14.3558 22.9739 13.724 22.8248 12.9886 22.5224C12.2508 22.2214 11.5728 22.0724 10.9528 22.0724C10.3025 22.0724 9.60518 22.2214 8.85926 22.5224C8.11221 22.8248 7.51039 22.9824 7.05027 22.998C6.35049 23.0278 5.65299 22.7197 4.95676 22.0724C4.51239 21.6848 3.95658 21.0204 3.29073 20.0791C2.57634 19.0739 1.989 17.9084 1.52887 16.5795C1.03609 15.1442 0.789062 13.7543 0.789062 12.4087C0.789062 10.8673 1.12213 9.53789 1.78925 8.42385C2.31355 7.529 3.01105 6.82312 3.88403 6.30493C4.75701 5.78674 5.70026 5.52267 6.71607 5.50578C7.27188 5.50578 8.00076 5.6777 8.90654 6.01559C9.80976 6.35462 10.3897 6.52655 10.644 6.52655C10.8341 6.52655 11.4783 6.32552 12.5705 5.92473C13.6034 5.55305 14.4751 5.39916 15.1892 5.45978C17.1242 5.61595 18.578 6.37876 19.5448 7.75303C17.8142 8.80163 16.9581 10.2703 16.9752 12.1544C16.9908 13.622 17.5232 14.8432 18.5695 15.8129C19.0437 16.2629 19.5732 16.6107 20.1624 16.8578C20.0347 17.2283 19.8998 17.5832 19.7564 17.924ZM15.3184 0.460131C15.3184 1.61039 14.8981 2.68439 14.0605 3.67847C13.0497 4.86023 11.827 5.54311 10.5012 5.43536C10.4843 5.29736 10.4745 5.15213 10.4745 4.99951C10.4745 3.89526 10.9552 2.71349 11.8089 1.74724C12.235 1.25801 12.7771 0.851218 13.4344 0.526714C14.0903 0.207053 14.7107 0.0302728 15.2942 0C15.3113 0.153772 15.3184 0.307554 15.3184 0.460116V0.460131Z" fill="black"/>
</svg>
