<svg width="23" height="23" viewBox="0 0 23 23" fill="none" xmlns="http://www.w3.org/2000/svg">
<path fill-rule="evenodd" clip-rule="evenodd" d="M22.54 11.7605C22.54 10.945 22.4668 10.1609 22.3309 9.4082H11.5V13.8566H17.6891C17.4225 15.2941 16.6123 16.5121 15.3943 17.3275V20.213H19.1109C21.2855 18.2109 22.54 15.2627 22.54 11.7605Z" fill="#4285F4"/>
<path fill-rule="evenodd" clip-rule="evenodd" d="M11.5034 23.0005C14.6084 23.0005 17.2116 21.9708 19.1143 20.2144L15.3977 17.329C14.3679 18.019 13.0507 18.4267 11.5034 18.4267C8.50815 18.4267 5.97293 16.4037 5.06861 13.6855H1.22656V16.6651C3.11884 20.4235 7.00793 23.0005 11.5034 23.0005Z" fill="#34A853"/>
<path fill-rule="evenodd" clip-rule="evenodd" d="M5.06523 13.6855C4.83523 12.9955 4.70455 12.2584 4.70455 11.5005C4.70455 10.7425 4.83523 10.0055 5.06523 9.31548V6.33594H1.22318C0.444318 7.88844 0 9.6448 0 11.5005C0 13.3562 0.444318 15.1125 1.22318 16.665L5.06523 13.6855Z" fill="#FBBC05"/>
<path fill-rule="evenodd" clip-rule="evenodd" d="M11.5034 4.57386C13.1918 4.57386 14.7077 5.15409 15.8995 6.29364L19.1979 2.99523C17.2063 1.13955 14.6032 0 11.5034 0C7.00793 0 3.11884 2.57705 1.22656 6.33545L5.06861 9.315C5.97293 6.59682 8.50815 4.57386 11.5034 4.57386Z" fill="#EA4335"/>
</svg>
