<svg width="23" height="23" viewBox="0 0 23 23" fill="none" xmlns="http://www.w3.org/2000/svg">
<path d="M0 1.64748C0 0.738125 0.761304 0 1.69977 0H21.2993C22.2381 0 22.999 0.738125 22.999 1.64748V21.3518C22.999 22.2614 22.2381 22.999 21.2993 22.999H1.69977C0.761393 22.999 0 22.2615 0 21.3521V1.64722V1.64748Z" fill="#0A66C2"/>
<path d="M6.9882 19.2479V8.89367H3.54661V19.2479H6.98856H6.9882ZM5.26812 7.48022C6.46802 7.48022 7.21504 6.68514 7.21504 5.69151C7.19258 4.67524 6.46802 3.90234 5.29094 3.90234C4.11305 3.90234 3.34375 4.67524 3.34375 5.69142C3.34375 6.68505 4.0905 7.48013 5.24557 7.48013H5.26785L5.26812 7.48022ZM8.89316 19.2479H12.3345V13.4663C12.3345 13.1572 12.3569 12.8473 12.4479 12.6266C12.6965 12.0081 13.2628 11.3678 14.2138 11.3678C15.4588 11.3678 15.9571 12.3172 15.9571 13.7093V19.2479H19.3983V13.3111C19.3983 10.1309 17.7007 8.65092 15.4365 8.65092C13.5801 8.65092 12.7648 9.68848 12.3118 10.3952H12.3348V8.89403H8.89334C8.93826 9.86538 8.89307 19.2483 8.89307 19.2483L8.89316 19.2479Z" fill="white"/>
</svg>
