<svg width="24" height="24" viewBox="0 0 24 24" fill="none" xmlns="http://www.w3.org/2000/svg">
<path d="M10.6616 10.6602C10.3048 11.015 10.1034 11.497 10.1016 12.0002C10.1016 12.5041 10.3017 12.9873 10.6581 13.3437C11.0144 13.7 11.4977 13.9002 12.0016 13.9002C12.5048 13.8983 12.9867 13.6969 13.3416 13.3402" stroke="#334155" stroke-width="1.2" stroke-linecap="round" stroke-linejoin="round"/>
<path d="M11.9969 6.2998C10.8695 6.2998 9.76749 6.6341 8.83013 7.26043C7.89277 7.88675 7.16218 8.77697 6.73076 9.81851C6.29934 10.86 6.18647 12.0061 6.4064 13.1118C6.62634 14.2175 7.16921 15.2332 7.96637 16.0303C8.76353 16.8275 9.77917 17.3703 10.8849 17.5903C11.9906 17.8102 13.1366 17.6973 14.1782 17.2659C15.2197 16.8345 16.1099 16.1039 16.7363 15.1666C17.3626 14.2292 17.6969 13.1272 17.6969 11.9998" stroke="#334155" stroke-width="1.2" stroke-linecap="round" stroke-linejoin="round"/>
<path d="M12 2.5C10.1211 2.5 8.28435 3.05717 6.72209 4.10104C5.15982 5.14491 3.94218 6.62861 3.22315 8.36451C2.50412 10.1004 2.31598 12.0105 2.68254 13.8534C3.0491 15.6962 3.95389 17.3889 5.28249 18.7175C6.61109 20.0461 8.30383 20.9509 10.1466 21.3175C11.9895 21.684 13.8996 21.4959 15.6355 20.7769C17.3714 20.0578 18.8551 18.8402 19.899 17.2779C20.9428 15.7157 21.5 13.8789 21.5 12M15.525 8.476L12.95 11.05" stroke="#334155" stroke-width="1.2" stroke-linecap="round" stroke-linejoin="round"/>
<path d="M20.9373 5.84434L17.6973 6.30034L18.1533 3.06034C18.1566 3.02271 18.1487 2.98493 18.1305 2.95184C18.1122 2.91875 18.0845 2.89184 18.0509 2.87456C18.0173 2.85728 17.9794 2.8504 17.9418 2.85482C17.9043 2.85923 17.869 2.87473 17.8403 2.89934L15.6923 5.03634C15.4717 5.25856 15.3094 5.53187 15.2199 5.83194C15.1304 6.13202 15.1164 6.44957 15.1793 6.75634L15.5213 8.47634L17.2413 8.81734C17.5481 8.88019 17.8656 8.86624 18.1657 8.77674C18.4658 8.68724 18.7391 8.52496 18.9613 8.30434L21.0973 6.15734C21.122 6.12861 21.1375 6.09315 21.1419 6.05552C21.1463 6.01789 21.1393 5.97981 21.1219 5.94616C21.1045 5.91251 21.0774 5.88484 21.0442 5.8667C21.0109 5.84855 20.973 5.84077 20.9353 5.84434" stroke="#334155" stroke-width="1.2" stroke-linecap="round" stroke-linejoin="round"/>
</svg>
