<svg width="24" height="24" viewBox="0 0 24 24" fill="none" xmlns="http://www.w3.org/2000/svg">
<path d="M7.81276 13.5411L9.65772 14.6967L12 13.5922L14.3423 14.6967L16.1741 13.5533L14.9577 11.2733C14.8972 11.1593 14.8058 11.0667 14.6834 10.9956C14.5609 10.9244 14.4309 10.8889 14.2934 10.8889H9.65653C9.51898 10.8889 9.39257 10.9244 9.27728 10.9956C9.16279 11.0667 9.07533 11.1593 9.01491 11.2733L7.81276 13.5411ZM3.9201 20.8889H20.0501L16.6965 14.57L14.4281 15.97L12 14.8522L9.57185 15.97L7.26655 14.5422L3.9201 20.8889ZM2 22L7.92248 10.7711C8.09024 10.4719 8.32995 10.2315 8.64162 10.05C8.9525 9.86852 9.2904 9.77778 9.65534 9.77778H11.4037V2H18.192L17.2976 3.66667L18.192 5.33333H12.5963V9.77778H14.2481C14.6138 9.77778 14.9469 9.86741 15.2475 10.0467C15.5488 10.2259 15.7857 10.4652 15.9583 10.7644L22 22H2Z" fill="#334155"/>
</svg>
