<svg width="24" height="24" viewBox="0 0 24 24" fill="none" xmlns="http://www.w3.org/2000/svg">
<path d="M12 3.25C11.5027 3.25 11.0258 3.44754 10.6742 3.79917C10.3225 4.15081 10.125 4.62772 10.125 5.125C10.125 5.62228 10.3225 6.09919 10.6742 6.45083C11.0258 6.80246 11.5027 7 12 7C12.4973 7 12.9742 6.80246 13.3258 6.45083C13.6775 6.09919 13.875 5.62228 13.875 5.125C13.875 4.62772 13.6775 4.15081 13.3258 3.79917C12.9742 3.44754 12.4973 3.25 12 3.25ZM8.875 5.125C8.875 4.2962 9.20424 3.50134 9.79029 2.91529C10.3763 2.32924 11.1712 2 12 2C12.8288 2 13.6237 2.32924 14.2097 2.91529C14.7958 3.50134 15.125 4.2962 15.125 5.125C15.125 5.9538 14.7958 6.74866 14.2097 7.33471C13.6237 7.92076 12.8288 8.25 12 8.25C11.1712 8.25 10.3763 7.92076 9.79029 7.33471C9.20424 6.74866 8.875 5.9538 8.875 5.125ZM18.875 4.5C18.5435 4.5 18.2255 4.6317 17.9911 4.86612C17.7567 5.10054 17.625 5.41848 17.625 5.75C17.625 6.08152 17.7567 6.39946 17.9911 6.63388C18.2255 6.8683 18.5435 7 18.875 7C19.2065 7 19.5245 6.8683 19.7589 6.63388C19.9933 6.39946 20.125 6.08152 20.125 5.75C20.125 5.41848 19.9933 5.10054 19.7589 4.86612C19.5245 4.6317 19.2065 4.5 18.875 4.5ZM16.375 5.75C16.375 5.08696 16.6384 4.45107 17.1072 3.98223C17.5761 3.51339 18.212 3.25 18.875 3.25C19.538 3.25 20.1739 3.51339 20.6428 3.98223C21.1116 4.45107 21.375 5.08696 21.375 5.75C21.375 6.41304 21.1116 7.04893 20.6428 7.51777C20.1739 7.98661 19.538 8.25 18.875 8.25C18.212 8.25 17.5761 7.98661 17.1072 7.51777C16.6384 7.04893 16.375 6.41304 16.375 5.75ZM3.875 5.75C3.875 5.41848 4.0067 5.10054 4.24112 4.86612C4.47554 4.6317 4.79348 4.5 5.125 4.5C5.45652 4.5 5.77446 4.6317 6.00888 4.86612C6.2433 5.10054 6.375 5.41848 6.375 5.75C6.375 6.08152 6.2433 6.39946 6.00888 6.63388C5.77446 6.8683 5.45652 7 5.125 7C4.79348 7 4.47554 6.8683 4.24112 6.63388C4.0067 6.39946 3.875 6.08152 3.875 5.75ZM5.125 3.25C4.46196 3.25 3.82607 3.51339 3.35723 3.98223C2.88839 4.45107 2.625 5.08696 2.625 5.75C2.625 6.41304 2.88839 7.04893 3.35723 7.51777C3.82607 7.98661 4.46196 8.25 5.125 8.25C5.78804 8.25 6.42393 7.98661 6.89277 7.51777C7.36161 7.04893 7.625 6.41304 7.625 5.75C7.625 5.08696 7.36161 4.45107 6.89277 3.98223C6.42393 3.51339 5.78804 3.25 5.125 3.25ZM5.875 18.2475L5.75 18.25C5.08696 18.25 4.45107 17.9866 3.98223 17.5178C3.51339 17.0489 3.25 16.413 3.25 15.75V11.0625C3.25 10.9796 3.28292 10.9001 3.34153 10.8415C3.40013 10.7829 3.47962 10.75 3.5625 10.75H5.7675C5.8175 10.2913 5.98 9.865 6.22375 9.5H3.5625C2.7 9.5 2 10.2 2 11.0625V15.75C1.99994 16.2851 2.11442 16.8141 2.33575 17.3013C2.55708 17.7886 2.88013 18.2228 3.28319 18.5748C3.68626 18.9269 4.16 19.1885 4.67258 19.3423C5.18517 19.4961 5.72473 19.5383 6.255 19.4662C6.08707 19.074 5.95974 18.6657 5.875 18.2475ZM17.745 19.4662C17.91 19.4887 18.0783 19.5 18.25 19.5C19.2446 19.5 20.1984 19.1049 20.9017 18.4017C21.6049 17.6984 22 16.7446 22 15.75V11.0625C22 10.2 21.3 9.5 20.4375 9.5H17.7763C18.0212 9.865 18.1825 10.2913 18.2325 10.75H20.4375C20.5204 10.75 20.5999 10.7829 20.6585 10.8415C20.7171 10.9001 20.75 10.9796 20.75 11.0625V15.75C20.7501 16.0889 20.6813 16.4242 20.5477 16.7357C20.4142 17.0472 20.2187 17.3282 19.9732 17.5618C19.7277 17.7954 19.4373 17.9767 19.1196 18.0945C18.8018 18.2124 18.4635 18.2644 18.125 18.2475C18.0403 18.6657 17.9129 19.074 17.745 19.4662ZM8.5625 9.5C7.7 9.5 7 10.2 7 11.0625V17C7 18.3261 7.52678 19.5979 8.46447 20.5355C9.40215 21.4732 10.6739 22 12 22C13.3261 22 14.5979 21.4732 15.5355 20.5355C16.4732 19.5979 17 18.3261 17 17V11.0625C17 10.2 16.3 9.5 15.4375 9.5H8.5625ZM8.25 11.0625C8.25 10.9796 8.28292 10.9001 8.34153 10.8415C8.40013 10.7829 8.47962 10.75 8.5625 10.75H15.4375C15.5204 10.75 15.5999 10.7829 15.6585 10.8415C15.7171 10.9001 15.75 10.9796 15.75 11.0625V17C15.75 17.9946 15.3549 18.9484 14.6517 19.6517C13.9484 20.3549 12.9946 20.75 12 20.75C11.0054 20.75 10.0516 20.3549 9.34835 19.6517C8.64509 18.9484 8.25 17.9946 8.25 17V11.0625Z" fill="#334155"/>
</svg>
