<svg width="32" height="20" viewBox="0 0 32 20" fill="none" xmlns="http://www.w3.org/2000/svg">
<g clip-path="url(#clip0_393_28942)">
<rect width="31.0448" height="20" transform="translate(0.0859375)" fill="#006FCF"/>
<path fill-rule="evenodd" clip-rule="evenodd" d="M31.1431 3.62203H28.5735L27.2303 7.47645L25.8287 3.62203H23.2008V9.62365L20.5143 3.62203H18.3537L15.6673 9.75393H17.536L18.0615 8.52762H20.8648L21.3904 9.75393H24.8943V5.49074L26.4711 9.75393H27.931L29.5078 5.49074V9.75393H31.1431V10.6883H28.9822L27.2303 12.6155L25.4199 10.6883H18.0032V16.8202H25.3616L27.1718 14.8347L28.9822 16.8202H31.1431V17.5792H28.5735L27.1718 16.061L25.7702 17.5792H17.0689V10.5715H14.2656L17.7696 2.6875H21.1567L22.3831 5.37393V2.6875H26.5879L27.2886 4.73153L27.9895 2.6875H31.1431V3.62203ZM31.1431 12.0314L29.5663 13.725L31.1431 15.4186V16.8202L28.2815 13.725L31.1431 10.6883V12.0314ZM23.2008 16.8202V15.3603H19.6968V14.4259H23.1423V13.0243H19.6968V12.0899H23.2008V10.6883L26.1207 13.725L23.2008 16.8202ZM18.5871 7.18432L19.4048 5.19879L20.2224 7.18432H18.5871Z" fill="white"/>
</g>
<defs>
<clipPath id="clip0_393_28942">
<rect width="31.0448" height="20" fill="white" transform="translate(0.0859375)"/>
</clipPath>
</defs>
</svg>
