<svg width="31" height="20" viewBox="0 0 31 20" fill="none" xmlns="http://www.w3.org/2000/svg">
<rect width="31" height="20" fill="#000008"/>
<path d="M9.33141 6.87594C9.57836 6.56706 9.74593 6.15232 9.70174 5.72852C9.34024 5.74649 8.8991 5.96701 8.6437 6.27613C8.41438 6.54085 8.21142 6.97294 8.26433 7.37899C8.67013 7.41419 9.07555 7.17615 9.33141 6.87594Z" fill="white"/>
<path d="M9.69714 7.45827C9.10782 7.42317 8.60676 7.79274 8.32533 7.79274C8.04374 7.79274 7.61278 7.47596 7.14666 7.4845C6.53997 7.49341 5.97704 7.83644 5.66917 8.38201C5.03594 9.47342 5.50206 11.0924 6.11785 11.9813C6.41688 12.421 6.77728 12.9052 7.25215 12.8878C7.70082 12.8702 7.87668 12.5973 8.42206 12.5973C8.96704 12.5973 9.12546 12.8878 9.60041 12.879C10.0929 12.8702 10.4009 12.439 10.6999 11.9989C11.0429 11.4976 11.1834 11.0135 11.1922 10.9869C11.1834 10.9781 10.2425 10.6172 10.2337 9.53483C10.2249 8.62857 10.9725 8.1975 11.0076 8.17077C10.5855 7.54637 9.92583 7.47596 9.69714 7.45827Z" fill="white"/>
<path d="M14.8285 6.2318C16.1093 6.2318 17.0013 7.11472 17.0013 8.40019C17.0013 9.69024 16.091 10.5777 14.7963 10.5777H13.3782V12.8331H12.3535V6.2318L14.8285 6.2318ZM13.3782 9.71768H14.5539C15.446 9.71768 15.9537 9.2374 15.9537 8.40477C15.9537 7.57224 15.446 7.09645 14.5584 7.09645H13.3782V9.71768Z" fill="white"/>
<path d="M17.269 11.4652C17.269 10.6234 17.914 10.1065 19.0577 10.0425L20.3751 9.96474V9.59422C20.3751 9.05897 20.0137 8.73875 19.41 8.73875C18.838 8.73875 18.4812 9.01317 18.3944 9.44325H17.4611C17.516 8.574 18.2571 7.93356 19.4465 7.93356C20.613 7.93356 21.3587 8.55115 21.3587 9.5164V12.833H20.4117V12.0416H20.3889C20.1099 12.5769 19.5014 12.9154 18.8701 12.9154C17.9277 12.9154 17.269 12.3298 17.269 11.4652ZM20.3751 11.0307V10.651L19.1903 10.7241C18.6001 10.7653 18.2662 11.0261 18.2662 11.4378C18.2662 11.8586 18.6139 12.1331 19.1446 12.1331C19.8353 12.1331 20.3751 11.6573 20.3751 11.0307Z" fill="white"/>
<path d="M22.2527 14.6035V13.8029C22.3258 13.8211 22.4904 13.8211 22.5728 13.8211C23.0303 13.8211 23.2773 13.629 23.4282 13.135C23.4282 13.1258 23.5152 12.8422 23.5152 12.8376L21.7769 8.02048H22.8472L24.0642 11.9364H24.0824L25.2994 8.02048H26.3424L24.5398 13.0846C24.1283 14.2512 23.6525 14.6263 22.6552 14.6263C22.5728 14.6263 22.3258 14.6171 22.2527 14.6035Z" fill="white"/>
</svg>
