<svg width="32" height="20" viewBox="0 0 32 20" fill="none" xmlns="http://www.w3.org/2000/svg">
<rect x="0.132812" width="31.0448" height="20" rx="2" fill="white"/>
<path d="M7.79419 13.0009C7.79419 13.28 7.99364 13.3123 8.17098 13.3123C8.95358 13.3123 9.21022 12.7222 9.21022 12.1823C9.21022 11.5054 8.77581 11.0164 8.07679 11.0164C7.92822 11.0164 7.85978 11.0268 7.79419 11.0307V13.0009ZM7.43947 11.302C7.43947 10.9763 7.26905 10.9978 7.10643 10.9941V10.9005C7.24737 10.9071 7.39227 10.9071 7.53365 10.9071C7.68568 10.9071 7.89227 10.9005 8.16038 10.9005C9.09804 10.9005 9.60885 11.5266 9.60885 12.168C9.60885 12.5266 9.39902 13.4284 8.11686 13.4284C7.93256 13.4284 7.7617 13.4214 7.59172 13.4214C7.42866 13.4214 7.26905 13.4251 7.10643 13.4284V13.3339C7.32317 13.3123 7.42866 13.3051 7.43947 13.0589V11.302Z" fill="#231F20"/>
<path d="M10.1236 11.2155C10.029 11.2155 9.94584 11.1284 9.94584 11.0344C9.94584 10.9437 10.0327 10.8601 10.1236 10.8601C10.2174 10.8601 10.3012 10.9364 10.3012 11.0344C10.3012 11.1321 10.2213 11.2155 10.1236 11.2155ZM9.7358 13.334H9.80468C9.90599 13.334 9.97833 13.334 9.97833 13.214V12.2331C9.97833 12.0737 9.92438 12.0518 9.78991 11.9799V11.9219C9.96039 11.8708 10.1631 11.8026 10.1778 11.7911C10.2031 11.777 10.2245 11.7733 10.243 11.7733C10.2609 11.7733 10.2681 11.7948 10.2681 11.8238V13.214C10.2681 13.334 10.3482 13.334 10.4491 13.334H10.5108V13.4284C10.3876 13.4284 10.2609 13.4213 10.1306 13.4213C10.0002 13.4213 9.86983 13.425 9.7358 13.4284V13.334Z" fill="#231F20"/>
<path d="M10.855 12.2546C10.855 12.121 10.8151 12.0846 10.6451 12.0162V11.9469C10.8006 11.8962 10.9489 11.8488 11.1231 11.7732C11.1339 11.7732 11.1445 11.7804 11.1445 11.8089V12.045C11.3513 11.8962 11.5289 11.7732 11.7716 11.7732C12.0793 11.7732 12.1881 11.9976 12.1881 12.2802V13.2141C12.1881 13.3341 12.268 13.3341 12.3691 13.3341H12.4343V13.4283C12.3072 13.4283 12.1805 13.4214 12.0505 13.4214C11.9199 13.4214 11.7896 13.4251 11.6592 13.4283V13.3341H11.7244C11.826 13.3341 11.8979 13.3341 11.8979 13.2141V12.2767C11.8979 12.0699 11.7716 11.9687 11.5648 11.9687C11.449 11.9687 11.2644 12.0628 11.1445 12.1426V13.2141C11.1445 13.3341 11.2248 13.3341 11.3261 13.3341H11.3913V13.4283C11.2644 13.4283 11.1373 13.4214 11.0068 13.4214C10.8768 13.4214 10.7463 13.4251 10.6159 13.4283V13.3341H10.6815C10.7826 13.3341 10.855 13.3341 10.855 13.2141V12.2546Z" fill="#231F20"/>
<path d="M13.351 12.3127C13.4411 12.3127 13.4517 12.2657 13.4517 12.2224C13.4517 12.0372 13.3395 11.8889 13.1368 11.8889C12.9162 11.8889 12.764 12.0517 12.7204 12.3127H13.351ZM12.7098 12.429C12.7022 12.4614 12.7022 12.5156 12.7098 12.6388C12.731 12.9831 12.9523 13.2655 13.2418 13.2655C13.4411 13.2655 13.5974 13.1566 13.731 13.0228L13.7817 13.0734C13.615 13.2943 13.4089 13.4825 13.1119 13.4825C12.5357 13.4825 12.4201 12.9249 12.4201 12.6932C12.4201 11.9833 12.898 11.7732 13.1511 11.7732C13.4448 11.7732 13.7603 11.9578 13.7635 12.3415C13.7635 12.3638 13.7635 12.3852 13.7603 12.4071L13.7271 12.429H12.7098Z" fill="#231F20"/>
<path d="M13.8468 13.334H13.9449C14.0462 13.334 14.1181 13.334 14.1181 13.214V12.1967C14.1181 12.0848 13.9845 12.0629 13.9302 12.0336V11.9799C14.1943 11.8673 14.3396 11.7734 14.3723 11.7734C14.3938 11.7734 14.4046 11.7837 14.4046 11.8203V12.146H14.4124C14.5024 12.005 14.6547 11.7734 14.8756 11.7734C14.9661 11.7734 15.0817 11.8344 15.0817 11.965C15.0817 12.0629 15.0135 12.1501 14.9118 12.1501C14.7991 12.1501 14.7991 12.0629 14.6727 12.0629C14.6112 12.0629 14.4083 12.146 14.4083 12.3639V13.214C14.4083 13.334 14.4806 13.334 14.582 13.334H14.7848V13.4285C14.5856 13.425 14.4338 13.4213 14.2781 13.4213C14.1293 13.4213 13.9774 13.425 13.8468 13.4285V13.334Z" fill="#231F20"/>
<path d="M15.241 12.925C15.2884 13.1638 15.4333 13.3669 15.6978 13.3669C15.9112 13.3669 15.9905 13.2364 15.9905 13.1096C15.9905 12.6824 15.2016 12.8195 15.2016 12.2368C15.2016 12.0336 15.3647 11.7733 15.7631 11.7733C15.8788 11.7733 16.0345 11.8058 16.1757 11.8781L16.2012 12.2476H16.1181C16.0819 12.0196 15.9547 11.8887 15.7231 11.8887C15.578 11.8887 15.4407 11.9723 15.4407 12.128C15.4407 12.5521 16.2807 12.4214 16.2807 12.9901C16.2807 13.229 16.0888 13.4825 15.6581 13.4825C15.5126 13.4825 15.3426 13.4321 15.2159 13.3598L15.1761 12.9431L15.241 12.925Z" fill="#231F20"/>
<path d="M19.5512 11.5557H19.4606C19.392 11.1321 19.0912 10.9619 18.686 10.9619C18.269 10.9619 17.6639 11.2406 17.6639 12.1094C17.6639 12.8416 18.1865 13.3669 18.7437 13.3669C19.1022 13.3669 19.3994 13.1207 19.4719 12.7402L19.5549 12.7617L19.4719 13.2907C19.3197 13.3851 18.91 13.4825 18.6709 13.4825C17.8235 13.4825 17.288 12.9358 17.288 12.1209C17.288 11.3784 17.9504 10.8458 18.6605 10.8458C18.9539 10.8458 19.2361 10.94 19.515 11.0377L19.5512 11.5557Z" fill="#231F20"/>
<path d="M19.6815 13.334H19.7506C19.8521 13.334 19.9246 13.334 19.9246 13.214V11.1978C19.9246 10.9619 19.8703 10.9546 19.7326 10.915V10.8569C19.8773 10.8097 20.0295 10.745 20.1057 10.701C20.1453 10.6793 20.1746 10.6609 20.1852 10.6609C20.2073 10.6609 20.2142 10.6828 20.2142 10.712V13.214C20.2142 13.334 20.2941 13.334 20.3955 13.334H20.457V13.4285C20.3344 13.4285 20.2073 13.4213 20.0765 13.4213C19.9465 13.4213 19.8162 13.425 19.6815 13.4285V13.334Z" fill="#231F20"/>
<path d="M22.0074 13.2289C22.0074 13.2945 22.0468 13.2978 22.1087 13.2978C22.1518 13.2978 22.2067 13.2945 22.2538 13.2945V13.3707C22.0975 13.3851 21.8008 13.4611 21.7315 13.4827L21.7138 13.4719V13.1789C21.4968 13.3562 21.3296 13.4827 21.0722 13.4827C20.8768 13.4827 20.6744 13.3562 20.6744 13.0522V12.1247C20.6744 12.0303 20.6596 11.9396 20.4573 11.9218V11.8529C20.5879 11.849 20.8768 11.8278 20.9242 11.8278C20.9645 11.8278 20.9645 11.8529 20.9645 11.9326V12.8668C20.9645 12.9753 20.9645 13.2869 21.2793 13.2869C21.4021 13.2869 21.5652 13.1925 21.7173 13.0667V12.0916C21.7173 12.0195 21.5436 11.9798 21.4134 11.9433V11.8781C21.7393 11.8562 21.9425 11.8278 21.9784 11.8278C22.0074 11.8278 22.0074 11.8529 22.0074 11.893V13.2289Z" fill="#231F20"/>
<path d="M22.7278 13.019C22.7278 13.1567 22.8582 13.3885 23.1011 13.3885C23.489 13.3885 23.6519 13.0079 23.6519 12.6855C23.6519 12.2947 23.3548 11.9687 23.0723 11.9687C22.9376 11.9687 22.8257 12.0558 22.7278 12.1394V13.019ZM22.7278 12.0337C22.8727 11.9109 23.0687 11.7734 23.2677 11.7734C23.6878 11.7734 23.9414 12.1394 23.9414 12.5337C23.9414 13.0079 23.5938 13.4826 23.0754 13.4826C22.8073 13.4826 22.6665 13.3958 22.5721 13.3562L22.4636 13.4391L22.3878 13.3995C22.4196 13.186 22.438 12.9755 22.438 12.7548V11.1978C22.438 10.962 22.3839 10.9544 22.2462 10.9148V10.8568C22.3915 10.8097 22.5431 10.745 22.6193 10.7009C22.659 10.6794 22.688 10.661 22.6992 10.661C22.7209 10.661 22.7278 10.6829 22.7278 10.7121V12.0337Z" fill="#231F20"/>
<path d="M7.10231 15.534H7.12986C7.20067 15.534 7.2758 15.5247 7.2758 15.4218V14.3896C7.2758 14.2867 7.20067 14.2774 7.12986 14.2774H7.10231V14.2174C7.17943 14.2174 7.29748 14.2256 7.39425 14.2256C7.49276 14.2256 7.61082 14.2174 7.7033 14.2174V14.2774H7.67575C7.60495 14.2774 7.52981 14.2867 7.52981 14.3896V15.4218C7.52981 15.5247 7.60495 15.534 7.67575 15.534H7.7033V15.5936C7.60885 15.5936 7.4904 15.5858 7.3921 15.5858C7.29529 15.5858 7.17943 15.5936 7.10231 15.5936V15.534Z" fill="#231F20"/>
<path d="M7.69485 15.5851L7.69507 15.543H7.67602C7.60566 15.543 7.52163 15.5307 7.52119 15.4218V14.3894C7.52163 14.2806 7.60566 14.2684 7.67602 14.2684H7.69485V14.2267C7.6039 14.2267 7.4898 14.2342 7.3943 14.2342C7.30078 14.2342 7.18727 14.2268 7.11104 14.2267V14.2684H7.12986C7.20006 14.2684 7.28404 14.2806 7.28404 14.3894V15.4218C7.28404 15.5307 7.20006 15.543 7.12986 15.543H7.11104V15.5851C7.18727 15.584 7.2988 15.577 7.39216 15.577C7.48804 15.577 7.6022 15.5844 7.69485 15.5851ZM7.7033 15.602C7.60824 15.602 7.49002 15.5942 7.39216 15.5942C7.29556 15.5942 7.1797 15.602 7.10237 15.602H7.09375V15.5259H7.12986C7.20138 15.5242 7.26653 15.5184 7.26697 15.4218V14.3894C7.26653 14.2931 7.20138 14.2866 7.12986 14.2853H7.09375V14.2095H7.10237C7.1797 14.2095 7.2977 14.2171 7.3943 14.2171C7.49238 14.2171 7.61022 14.2095 7.7033 14.2095H7.71197V14.2853H7.67602C7.60434 14.2866 7.53876 14.2931 7.53854 14.3894V15.4218C7.53876 15.5184 7.60434 15.5242 7.67602 15.5259H7.71197V15.602H7.7033Z" fill="#231F20"/>
<path d="M9.05742 15.2052L9.06132 15.2013V14.4622C9.06132 14.3007 8.94891 14.2773 8.88958 14.2773H8.8465V14.2175C8.93892 14.2175 9.02992 14.2256 9.1224 14.2256C9.20292 14.2256 9.28415 14.2175 9.3645 14.2175V14.2773H9.33547C9.25232 14.2773 9.1594 14.2927 9.1594 14.5272V15.4241C9.1594 15.493 9.16176 15.5618 9.17153 15.6229H9.09661L8.08162 14.4919V15.3035C8.08162 15.4754 8.11499 15.5339 8.2668 15.5339H8.30012V15.5935C8.21571 15.5935 8.1308 15.5857 8.04589 15.5857C7.95775 15.5857 7.8668 15.5935 7.77822 15.5935V15.5339H7.80572C7.94172 15.5339 7.98332 15.4419 7.98332 15.284V14.4542C7.98332 14.3438 7.89216 14.2773 7.80379 14.2773H7.77822V14.2175C7.85275 14.2175 7.92981 14.2256 8.00451 14.2256C8.06384 14.2256 8.12125 14.2175 8.18014 14.2175L9.05742 15.2052Z" fill="#231F20"/>
<path d="M9.0527 15.2012V15.2005L9.05094 15.1993L9.0527 15.2012ZM9.09644 15.6144H9.16187C9.15298 15.5553 9.15144 15.4894 9.15144 15.4242V14.5271C9.15144 14.2906 9.25045 14.2685 9.3353 14.2685H9.3561V14.2265C9.27833 14.2269 9.20061 14.2343 9.12246 14.2343C9.03217 14.2343 8.94419 14.2269 8.85501 14.2265V14.2685H8.88942C8.95029 14.2685 9.0696 14.2954 9.0696 14.4623L9.06719 15.2073L9.06313 15.211L9.05638 15.2172L8.18025 14.2265C8.12152 14.2265 8.06439 14.2343 8.00462 14.2343C7.9325 14.2343 7.85819 14.2269 7.78678 14.2265L7.78656 14.2685H7.80385C7.89633 14.2685 7.99161 14.3391 7.99161 14.4543V15.2841C7.99161 15.442 7.94765 15.5425 7.80583 15.5431L7.78678 15.5425V15.5851C7.87207 15.5841 7.95978 15.5769 8.04595 15.5769C8.12849 15.5769 8.21033 15.5841 8.2915 15.5851V15.5431H8.26664C8.11159 15.5425 8.07301 15.4753 8.07301 15.3036V14.4697L9.09644 15.6144ZM9.17136 15.6317L9.09019 15.6286L8.08991 14.5141V15.3036C8.09249 15.4753 8.11851 15.5239 8.26664 15.526H8.30907V15.6018H8.30017C8.2151 15.6018 8.1302 15.5942 8.04595 15.5942C7.95802 15.5942 7.86752 15.6018 7.77789 15.6018H7.76922V15.526H7.80583C7.93618 15.525 7.97322 15.4414 7.97493 15.2841V14.4543C7.97449 14.3495 7.88832 14.2856 7.80385 14.2854H7.76922V14.2094H7.77789C7.85341 14.2094 7.9303 14.2172 8.00462 14.2172C8.06307 14.2172 8.12026 14.2094 8.18673 14.2124L9.0527 15.1871V14.4623C9.05166 14.3055 8.94727 14.2867 8.88942 14.2854H8.83744V14.2094H8.84633C8.93925 14.2094 9.0302 14.2172 9.12246 14.2172C9.20237 14.2172 9.28333 14.2094 9.36456 14.2094H9.37339V14.2854H9.3353C9.25369 14.2878 9.17054 14.2951 9.16812 14.5271V15.4242C9.16812 15.4927 9.1701 15.5615 9.17959 15.6217L9.18135 15.6317H9.17136Z" fill="#231F20"/>
<path d="M9.65964 14.3162C9.51172 14.3162 9.50629 14.3517 9.47643 14.4955H9.41754C9.42555 14.4405 9.43505 14.3853 9.44136 14.3279C9.44893 14.2729 9.453 14.2175 9.453 14.1607H9.50047C9.51628 14.2198 9.5654 14.2175 9.61869 14.2175H10.6356C10.6887 14.2175 10.7381 14.2157 10.7422 14.1566L10.7889 14.1649C10.7818 14.2175 10.7737 14.2709 10.7677 14.3242C10.7636 14.3773 10.7636 14.4308 10.7636 14.4838L10.7047 14.5059C10.7008 14.4327 10.6906 14.3162 10.5587 14.3162H10.2357V15.3647C10.2357 15.517 10.3048 15.5341 10.3992 15.5341H10.4364V15.5934C10.3597 15.5934 10.2215 15.5857 10.1152 15.5857C9.99723 15.5857 9.85887 15.5934 9.78198 15.5934V15.5341H9.81946C9.92813 15.5341 9.98291 15.5246 9.98291 15.3691V14.3162H9.65964Z" fill="#231F20"/>
<path d="M10.4368 15.6018C10.3591 15.6018 10.2211 15.5941 10.1153 15.5941C9.99727 15.5941 9.85973 15.6018 9.78201 15.6018H9.77378V15.5258H9.81966C9.92839 15.5233 9.97213 15.5219 9.97427 15.369V14.3246H9.65962V14.3079H9.99162V15.369C9.99162 15.5269 9.92795 15.5432 9.81966 15.5432H9.79063V15.5847C9.86862 15.5841 10.0009 15.577 10.1153 15.577C10.2181 15.577 10.3498 15.5841 10.4277 15.5847V15.5432H10.3991C10.3039 15.5432 10.2268 15.52 10.2268 15.3647V14.3079H10.5587C10.6911 14.3082 10.7084 14.4203 10.7125 14.4936L10.7556 14.4778C10.7556 14.4267 10.7558 14.3751 10.7591 14.3229C10.7647 14.2726 10.7721 14.2222 10.7794 14.1718L10.7495 14.1668C10.7398 14.224 10.6845 14.2272 10.6354 14.2265H9.60852C9.56198 14.2265 9.5117 14.2242 9.49419 14.1694H9.46126C9.46126 14.224 9.45737 14.2765 9.44957 14.3294C9.44392 14.3833 9.4353 14.4355 9.42789 14.487H9.46993C9.49617 14.3502 9.5128 14.3056 9.65962 14.3079V14.3246C9.51412 14.3276 9.51736 14.3519 9.48486 14.4977L9.48382 14.5044H9.40759L9.40885 14.4942C9.41648 14.4392 9.42685 14.384 9.43289 14.3266C9.44068 14.272 9.44458 14.2172 9.44458 14.1607V14.1521H9.5072L9.50846 14.1583C9.52213 14.2082 9.5583 14.2084 9.60852 14.2094H10.6354C10.69 14.2084 10.7303 14.2075 10.7335 14.1559L10.7342 14.1469L10.743 14.1486L10.7985 14.1572L10.7976 14.1657C10.7898 14.2188 10.782 14.272 10.7764 14.3246C10.7723 14.3775 10.7723 14.4308 10.7723 14.4838V14.4898L10.7666 14.4922L10.6967 14.5178L10.6965 14.5059C10.6911 14.432 10.6833 14.3246 10.5587 14.3246H10.2441V15.3647C10.2461 15.5135 10.3052 15.5239 10.3991 15.5258H10.4449V15.6018H10.4368Z" fill="#231F20"/>
<path d="M10.8523 15.534H10.8798C10.9506 15.534 11.0255 15.5247 11.0255 15.4218V14.3896C11.0255 14.2867 10.9506 14.2774 10.8798 14.2774H10.8523V14.2174C10.972 14.2174 11.1777 14.2256 11.3428 14.2256C11.5086 14.2256 11.7133 14.2174 11.8469 14.2174C11.8437 14.3025 11.8456 14.4329 11.8514 14.5195L11.7919 14.5353C11.7826 14.4073 11.7587 14.3049 11.5517 14.3049H11.2784V14.8207H11.5123C11.6308 14.8207 11.6565 14.7542 11.668 14.6477H11.7269C11.7232 14.7245 11.7211 14.8012 11.7211 14.8781C11.7211 14.9532 11.7232 15.0279 11.7269 15.1026L11.668 15.1145C11.6565 14.9963 11.6505 14.9195 11.5143 14.9195H11.2784V15.3785C11.2784 15.5067 11.3923 15.5067 11.5181 15.5067C11.7551 15.5067 11.8592 15.4909 11.9183 15.2663L11.9733 15.2802C11.9478 15.385 11.9242 15.4887 11.9064 15.5936C11.7806 15.5936 11.5537 15.5858 11.3763 15.5858C11.1988 15.5858 10.9644 15.5936 10.8523 15.5936V15.534Z" fill="#231F20"/>
<path d="M11.8993 15.5847C11.9162 15.4853 11.9387 15.3857 11.9632 15.2865L11.9242 15.2768C11.8651 15.4975 11.7509 15.5169 11.5181 15.5152C11.3939 15.5152 11.2698 15.5152 11.2691 15.3786V14.911H11.5143C11.652 14.9093 11.6656 14.9927 11.6754 15.1049L11.7181 15.096C11.7146 15.0234 11.7126 14.9503 11.7126 14.8781C11.7126 14.8043 11.7146 14.7304 11.7181 14.6557H11.6754C11.6646 14.7588 11.6327 14.8307 11.5121 14.8294H11.2691V14.2958H11.5517C11.7568 14.2947 11.791 14.4006 11.7995 14.524L11.8419 14.5125C11.8387 14.4569 11.8367 14.3861 11.8367 14.3203C11.8367 14.2859 11.8373 14.2544 11.8382 14.2265C11.7044 14.2269 11.5047 14.2343 11.3428 14.2343C11.181 14.2343 10.9814 14.2269 10.8607 14.2265V14.2685H10.8798C10.9501 14.2685 11.0339 14.2807 11.0344 14.3893V15.4219C11.0339 15.5306 10.9501 15.5423 10.8798 15.5431H10.8607V15.5847C10.9753 15.5843 11.2033 15.5769 11.3763 15.5769C11.5502 15.5769 11.772 15.5843 11.8993 15.5847ZM11.9064 15.6018C11.78 15.6018 11.5535 15.5938 11.3763 15.5938C11.1988 15.5938 10.9649 15.6018 10.8523 15.6018H10.8436V15.5261H10.8798C10.951 15.5247 11.0162 15.5183 11.0169 15.4219V14.3893C11.0162 14.2934 10.951 14.2869 10.8798 14.2852H10.8436V14.2094H10.8523C10.9722 14.2094 11.1777 14.2172 11.3428 14.2172C11.5082 14.2172 11.7129 14.2094 11.8469 14.2094H11.8558V14.2181C11.854 14.2477 11.8534 14.2826 11.8534 14.3203C11.8534 14.3881 11.8558 14.4625 11.8595 14.5186V14.5258L11.8531 14.5278L11.7839 14.5459L11.7837 14.5355C11.772 14.408 11.7551 14.3149 11.5517 14.3132H11.2862V14.8121H11.5121C11.626 14.8112 11.646 14.7529 11.6593 14.6466L11.6602 14.6391H11.736V14.6477C11.7319 14.7246 11.7295 14.8012 11.7295 14.8781C11.7295 14.9526 11.7319 15.0275 11.736 15.1027V15.1094L11.7289 15.1111L11.6602 15.1246L11.6593 15.1155C11.646 14.9953 11.6453 14.9295 11.5143 14.9279L11.2862 14.9275V15.3786C11.2865 15.4983 11.3895 15.4977 11.5181 15.4983C11.7557 15.497 11.8506 15.4853 11.9099 15.264L11.9119 15.256L11.9203 15.2577L11.9833 15.274L11.9816 15.2822C11.9561 15.3861 11.9326 15.4908 11.9149 15.5947L11.9136 15.6018H11.9064Z" fill="#231F20"/>
<path d="M12.4919 14.8838H12.5881C12.7854 14.8838 12.8917 14.8093 12.8917 14.5765C12.8917 14.4015 12.7793 14.2887 12.6039 14.2887C12.5443 14.2887 12.5192 14.295 12.4919 14.2967V14.8838ZM12.2396 14.4267C12.2396 14.2826 12.1608 14.2772 12.0997 14.2772H12.0638V14.2175C12.1268 14.2175 12.2491 14.2255 12.3696 14.2255C12.4873 14.2255 12.5822 14.2175 12.687 14.2175C12.9348 14.2175 13.1555 14.2846 13.1555 14.5648C13.1555 14.742 13.0376 14.8502 12.882 14.9119L13.2191 15.4158C13.2741 15.4994 13.3131 15.5226 13.4099 15.5341V15.5934C13.3449 15.5934 13.2819 15.5857 13.2169 15.5857C13.1555 15.5857 13.0926 15.5934 13.0316 15.5934C12.88 15.3947 12.7496 15.1815 12.6216 14.9546H12.4919V15.3764C12.4919 15.5287 12.5625 15.5341 12.653 15.5341H12.689V15.5934C12.5761 15.5934 12.462 15.5857 12.3496 15.5857C12.2552 15.5857 12.1625 15.5934 12.0638 15.5934V15.5341H12.0997C12.1721 15.5341 12.2396 15.501 12.2396 15.4278V14.4267Z" fill="#231F20"/>
<path d="M12.5882 14.8754C12.7831 14.8735 12.8816 14.8059 12.8833 14.5768C12.8825 14.4049 12.7753 14.2981 12.6038 14.297C12.5505 14.297 12.5255 14.3018 12.5004 14.3046V14.8754H12.5882ZM12.5882 14.8921H12.4831V14.2886L12.4905 14.2879C12.5175 14.2858 12.5439 14.2806 12.6038 14.2806C12.7831 14.2806 12.9 14.3972 12.9004 14.5768C12.8997 14.8119 12.7867 14.8921 12.5882 14.8921ZM12.4831 14.9462H12.6263L12.6286 14.9505C12.7568 15.1773 12.8866 15.3899 13.0316 15.5851C13.0918 15.5851 13.1553 15.577 13.2164 15.577C13.2794 15.577 13.3403 15.5837 13.4015 15.5846V15.5413C13.3088 15.5302 13.2657 15.5026 13.212 15.4209L12.8688 14.9077L12.8787 14.9035C13.0329 14.843 13.1471 14.7377 13.1473 14.5644C13.1471 14.2914 12.9344 14.2275 12.6871 14.2267C12.5829 14.2267 12.4878 14.2342 12.3696 14.2342C12.2533 14.2342 12.1368 14.2268 12.0723 14.2267V14.2686H12.0996C12.1607 14.2686 12.2475 14.2786 12.2475 14.4267V15.4278C12.2475 15.5071 12.1738 15.543 12.0996 15.543H12.0723V15.5846C12.1674 15.5844 12.2568 15.577 12.3492 15.577C12.4597 15.577 12.5708 15.5844 12.6799 15.5846V15.543H12.6531C12.5632 15.543 12.4831 15.532 12.4831 15.3765V14.9462ZM13.41 15.6017C13.3439 15.6017 13.2813 15.5942 13.2164 15.5942C13.1566 15.5942 13.0934 15.6017 13.0245 15.5989C12.8738 15.4003 12.7443 15.1887 12.6168 14.9633H12.5004V15.3765C12.5024 15.5248 12.5619 15.5235 12.6531 15.5259H12.6973V15.6017H12.6884C12.5755 15.6017 12.461 15.5942 12.3492 15.5942C12.2551 15.5942 12.1628 15.6017 12.0636 15.6017H12.0556V15.5259H12.0996C12.1706 15.5253 12.2299 15.4943 12.2306 15.4278V14.4267C12.2293 14.287 12.1607 14.2872 12.0996 14.2853H12.0556V14.2095H12.0636C12.128 14.2095 12.2494 14.2171 12.3696 14.2171C12.487 14.2171 12.5819 14.2095 12.6871 14.2095C12.935 14.2095 13.164 14.2786 13.1646 14.5644C13.1646 14.7425 13.0468 14.8535 12.895 14.9155L13.2259 15.4112C13.2809 15.493 13.3151 15.5136 13.4111 15.5259L13.4182 15.5266V15.6017H13.41Z" fill="#231F20"/>
<path d="M14.7478 15.2052L14.7515 15.2013V14.4622C14.7515 14.3007 14.6393 14.2773 14.5804 14.2773H14.5369V14.2175C14.6298 14.2175 14.7199 14.2256 14.813 14.2256C14.894 14.2256 14.9746 14.2175 15.0556 14.2175V14.2773H15.0263C14.9434 14.2773 14.8505 14.2927 14.8505 14.5272V15.4241C14.8505 15.493 14.8522 15.5618 14.8619 15.6229H14.7875L13.7725 14.4919V15.3035C13.7725 15.4754 13.8061 15.5339 13.9579 15.5339H13.9916V15.5935C13.9066 15.5935 13.8216 15.5857 13.737 15.5857C13.6482 15.5857 13.5576 15.5935 13.4691 15.5935V15.5339H13.4961C13.6326 15.5339 13.6737 15.4419 13.6737 15.284V14.4542C13.6737 14.3438 13.583 14.2773 13.4946 14.2773H13.4691V14.2175C13.5436 14.2175 13.6211 14.2256 13.6956 14.2256C13.7545 14.2256 13.8117 14.2175 13.8708 14.2175L14.7478 15.2052Z" fill="#231F20"/>
<path d="M14.7431 15.2012V15.2005L14.742 15.1993L14.7431 15.2012ZM14.7875 15.6144H14.8518C14.8436 15.5555 14.8418 15.4894 14.8418 15.4242V14.5271C14.8418 14.2906 14.9417 14.269 15.0261 14.2685H15.0467V14.2265C14.9692 14.2269 14.8912 14.2343 14.813 14.2343C14.7227 14.2343 14.6344 14.2269 14.5456 14.2265V14.2685H14.5805C14.6411 14.269 14.7607 14.2954 14.7607 14.4623L14.7578 15.2073L14.7541 15.211L14.7479 15.2177L13.8708 14.2265C13.8124 14.2265 13.7547 14.2343 13.6956 14.2343C13.6225 14.2343 13.5488 14.2269 13.4774 14.2265V14.2685H13.4945C13.5872 14.269 13.6822 14.3387 13.6822 14.4543V15.2839C13.6822 15.442 13.6374 15.5425 13.496 15.5431H13.4774V15.5847C13.5627 15.5841 13.6504 15.5769 13.737 15.5769C13.8193 15.5769 13.9012 15.5841 13.9828 15.5847V15.5431H13.9579C13.8026 15.5431 13.7639 15.4756 13.7634 15.3036V14.4697L14.7875 15.6144ZM14.862 15.6317L14.781 15.6286L13.781 14.5141V15.3036C13.7833 15.4756 13.8094 15.5239 13.9579 15.526H13.9997V15.6018H13.9912C13.9059 15.6018 13.8213 15.5938 13.737 15.5938C13.6489 15.5938 13.5575 15.6018 13.4691 15.6018H13.4598V15.526H13.496C13.6261 15.5254 13.6638 15.4414 13.6651 15.2839V14.4543C13.6647 14.349 13.5792 14.2856 13.4945 14.2854H13.4598V14.2094H13.4691C13.5441 14.2094 13.6214 14.2172 13.6956 14.2172C13.7537 14.2172 13.8106 14.2094 13.8767 14.2118L14.7431 15.1871V14.4623C14.7429 14.3055 14.6376 14.2863 14.5805 14.2854H14.5283V14.2094H14.537C14.6303 14.2094 14.721 14.2172 14.813 14.2172C14.8932 14.2172 14.9742 14.2094 15.0553 14.2094H15.0638V14.2854H15.0261C14.9449 14.2874 14.8611 14.2951 14.859 14.5271V15.4242C14.859 15.4927 14.8607 15.5609 14.8707 15.6217L14.8715 15.6317H14.862Z" fill="#231F20"/>
<path d="M15.6603 14.4385H15.6564L15.473 14.9963H15.8414L15.6603 14.4385ZM15.373 15.3116C15.3528 15.3785 15.3288 15.4303 15.3288 15.4651C15.3288 15.5245 15.4122 15.534 15.4769 15.534H15.4988V15.5933C15.4195 15.5894 15.339 15.5858 15.2599 15.5858C15.1889 15.5858 15.1183 15.5894 15.0475 15.5933V15.534H15.059C15.1358 15.534 15.2012 15.4887 15.23 15.406L15.5457 14.502C15.5713 14.4287 15.6073 14.3304 15.6187 14.257C15.6818 14.2356 15.7608 14.1964 15.7983 14.1725C15.8043 14.1704 15.8074 14.1689 15.8139 14.1689C15.8195 14.1689 15.8236 14.1689 15.8277 14.1745C15.8336 14.1903 15.8394 14.208 15.8457 14.2239L16.208 15.2546C16.2316 15.3235 16.2554 15.3967 16.2808 15.4559C16.3045 15.5108 16.3461 15.534 16.4111 15.534H16.4226V15.5933C16.3342 15.5894 16.2454 15.5858 16.1511 15.5858C16.0547 15.5858 15.956 15.5894 15.8557 15.5933V15.534H15.8773C15.9224 15.534 15.9993 15.5267 15.9993 15.4773C15.9993 15.4515 15.9817 15.3982 15.9594 15.3352L15.8827 15.1065H15.4354L15.373 15.3116Z" fill="#231F20"/>
<path d="M15.4844 14.988H15.8294L15.6579 14.4595L15.4844 14.988ZM15.4608 15.005L15.6496 14.4301H15.6661L15.8532 15.005H15.4608ZM15.8638 15.5841C15.9611 15.581 16.057 15.577 16.151 15.577C16.2428 15.577 16.3283 15.581 16.4141 15.5841V15.5432H16.4111C16.3439 15.5438 16.2976 15.5167 16.2729 15.4591C16.2473 15.3994 16.2233 15.3262 16.2001 15.2573L15.8374 14.2265C15.8313 14.2107 15.8253 14.193 15.8205 14.1789C15.8186 14.1769 15.8192 14.1769 15.8175 14.1769H15.8138C15.8099 14.1769 15.8075 14.178 15.8025 14.1796C15.7645 14.204 15.6852 14.243 15.6267 14.2584C15.6148 14.3333 15.5793 14.4314 15.5535 14.5044L15.2384 15.4091C15.2083 15.4947 15.1393 15.5432 15.0589 15.5432H15.0558V15.5841C15.1232 15.581 15.1917 15.577 15.2601 15.577C15.3363 15.577 15.414 15.581 15.4894 15.5841V15.5432H15.4769C15.4125 15.5423 15.3229 15.5354 15.3207 15.4654C15.3207 15.4262 15.3445 15.3756 15.3642 15.3093L15.373 15.3116L15.3642 15.3091L15.4292 15.0984H15.8883L15.9673 15.3325C15.9897 15.3959 16.0076 15.4483 16.0076 15.4773C16.0046 15.5377 15.9216 15.5421 15.8772 15.5432H15.8638V15.5841ZM16.4221 15.6018C16.334 15.5982 16.2454 15.5938 16.151 15.5938C16.0546 15.5938 15.9565 15.5982 15.8556 15.6018L15.8467 15.6025V15.5252H15.8772C15.9225 15.5252 15.9901 15.5152 15.9901 15.4773C15.9905 15.4548 15.9734 15.4007 15.9516 15.3381L15.8766 15.1152H15.4418L15.3803 15.3141C15.3601 15.3816 15.337 15.4336 15.337 15.4654C15.3376 15.5135 15.4114 15.5252 15.4769 15.5252H15.5069V15.6025L15.498 15.6018C15.4192 15.5982 15.3384 15.5938 15.2601 15.5938C15.1893 15.5938 15.1182 15.5982 15.0477 15.6018L15.039 15.6025V15.5252H15.0589C15.1324 15.5252 15.1934 15.4832 15.2218 15.4033L15.5375 14.4989C15.5635 14.4258 15.5988 14.3276 15.6159 14.2493C15.6776 14.2279 15.7566 14.1882 15.7949 14.1644C15.8006 14.1624 15.8058 14.1596 15.8138 14.1596C15.8186 14.1594 15.8294 14.1609 15.8353 14.1716C15.8413 14.1876 15.8473 14.2051 15.8532 14.2209L16.2164 15.2519C16.2395 15.3208 16.2631 15.3935 16.2887 15.4516C16.3114 15.5044 16.3478 15.5252 16.4111 15.5252H16.4314V15.6025L16.4221 15.6018Z" fill="#231F20"/>
<path d="M16.5097 14.3162C16.3616 14.3162 16.356 14.3517 16.3263 14.4955H16.267C16.2749 14.4405 16.2849 14.3853 16.2908 14.3279C16.2988 14.2729 16.3027 14.2175 16.3027 14.1607H16.3499C16.3657 14.2198 16.4151 14.2175 16.4681 14.2175H17.485C17.5381 14.2175 17.5871 14.2157 17.5912 14.1566L17.6386 14.1649C17.631 14.2175 17.6235 14.2709 17.6169 14.3242C17.6122 14.3773 17.6122 14.4308 17.6122 14.4838L17.5537 14.5059C17.5505 14.4327 17.54 14.3162 17.4082 14.3162H17.0849V15.3647C17.0849 15.517 17.1539 15.5341 17.2486 15.5341H17.2858V15.5934C17.2092 15.5934 17.0712 15.5857 16.9647 15.5857C16.8466 15.5857 16.7083 15.5934 16.6312 15.5934V15.5341H16.6689C16.7778 15.5341 16.833 15.5246 16.833 15.3691V14.3162H16.5097Z" fill="#231F20"/>
<path d="M17.2856 15.6018C17.2088 15.6018 17.0708 15.5941 16.9648 15.5941C16.8469 15.5941 16.7092 15.6018 16.6313 15.6018H16.623V15.5258H16.6689C16.7777 15.5233 16.821 15.5219 16.8238 15.369V14.3246H16.5095V14.3079H16.8409V15.369C16.8409 15.5269 16.7774 15.5423 16.6689 15.5432H16.6399V15.5849C16.7179 15.5841 16.8502 15.577 16.9648 15.577C17.0676 15.577 17.1994 15.5841 17.2774 15.5849L17.277 15.5432H17.2482C17.1533 15.5423 17.0767 15.52 17.0765 15.3647V14.3079H17.408C17.5408 14.3082 17.5576 14.4203 17.5616 14.4936L17.6044 14.4778C17.6044 14.4267 17.6044 14.3751 17.6085 14.3234C17.6139 14.2726 17.6217 14.2222 17.6286 14.1722L17.5992 14.1668C17.5897 14.224 17.5345 14.2272 17.4848 14.2265H16.458C16.4115 14.2268 16.3615 14.2242 16.3434 14.1687H16.3112C16.3105 14.224 16.3071 14.2765 16.2991 14.3294C16.2936 14.3837 16.2841 14.4355 16.2768 14.487H16.3192C16.3452 14.3502 16.3618 14.3051 16.5095 14.3079V14.3246C16.3632 14.3273 16.3666 14.3519 16.3346 14.4977L16.333 14.5044H16.2568L16.2581 14.4942C16.2661 14.4392 16.2761 14.384 16.2819 14.3273C16.2899 14.272 16.2936 14.2172 16.2936 14.1607V14.1521H16.356L16.3577 14.1583C16.3716 14.2082 16.408 14.2084 16.458 14.2094H17.4848C17.5395 14.2084 17.5795 14.2075 17.5828 14.1559L17.583 14.1469L17.5925 14.1486L17.6486 14.1572L17.6469 14.1657C17.6384 14.2188 17.6313 14.272 17.6255 14.3246C17.6217 14.3775 17.6217 14.4308 17.6217 14.4838V14.4898L17.6157 14.4922L17.5458 14.5178V14.5059C17.5408 14.432 17.5327 14.3246 17.408 14.3246H17.0934V15.3647C17.0953 15.5135 17.1544 15.5239 17.2482 15.5258H17.2943V15.6018H17.2856Z" fill="#231F20"/>
<path d="M17.7112 15.534H17.7387C17.8102 15.534 17.8847 15.5247 17.8847 15.4218V14.3896C17.8847 14.2867 17.8102 14.2774 17.7387 14.2774H17.7112V14.2174C17.7881 14.2174 17.9061 14.2256 18.0027 14.2256C18.1012 14.2256 18.2195 14.2174 18.3125 14.2174V14.2774H18.285C18.2136 14.2774 18.1384 14.2867 18.1384 14.3896V15.4218C18.1384 15.5247 18.2136 15.534 18.285 15.534H18.3125V15.5936C18.2178 15.5936 18.0995 15.5858 18.001 15.5858C17.9041 15.5858 17.7881 15.5936 17.7112 15.5936V15.534Z" fill="#231F20"/>
<path d="M18.3034 15.5847V15.5431H18.285C18.2142 15.5431 18.1304 15.5306 18.1304 15.4219V14.3893C18.1304 14.2807 18.2142 14.2685 18.285 14.2685H18.3034V14.2265C18.2125 14.2269 18.0988 14.2343 18.0027 14.2343C17.9091 14.2343 17.7961 14.2269 17.7199 14.2265V14.2685H17.7387C17.8086 14.2685 17.8931 14.2807 17.8931 14.3893V15.4219C17.8931 15.5306 17.8086 15.5431 17.7387 15.5431H17.7199V15.5847C17.7961 15.5836 17.9072 15.5769 18.001 15.5769C18.0967 15.5769 18.2108 15.5841 18.3034 15.5847ZM18.3125 15.6018C18.2173 15.6018 18.0993 15.5938 18.001 15.5938C17.9046 15.5938 17.7881 15.6018 17.7112 15.6018H17.703V15.5261H17.7387C17.8101 15.5247 17.8754 15.5183 17.8756 15.4219V14.3893C17.8754 14.2934 17.8101 14.2867 17.7387 14.2852H17.703V14.2094H17.7112C17.7881 14.2094 17.9065 14.2172 18.0027 14.2172C18.1012 14.2172 18.2192 14.2094 18.3125 14.2094H18.3206V14.2852H18.285C18.2129 14.2867 18.1479 14.2934 18.1473 14.3893V15.4219C18.1479 15.5183 18.2129 15.5247 18.285 15.5261H18.3206V15.6018H18.3125Z" fill="#231F20"/>
<path d="M19.128 15.5363C19.5108 15.5363 19.5769 15.1992 19.5769 14.912C19.5769 14.6238 19.4218 14.2752 19.0946 14.2752C18.7499 14.2752 18.6475 14.5824 18.6475 14.8462C18.6475 15.1992 18.809 15.5363 19.128 15.5363ZM19.0985 14.1883C19.5184 14.1883 19.8534 14.4486 19.8534 14.8685C19.8534 15.3218 19.5284 15.623 19.1085 15.623C18.6901 15.623 18.3718 15.3395 18.3718 14.9153C18.3718 14.506 18.6888 14.1883 19.0985 14.1883Z" fill="#231F20"/>
<path d="M18.6385 14.8462C18.6392 14.5812 18.7431 14.2663 19.0945 14.2663C19.4296 14.2669 19.5855 14.6223 19.5857 14.912C19.5855 15.1992 19.5177 15.5445 19.1279 15.5445V15.5279C19.5032 15.5276 19.5679 15.1992 19.5688 14.912C19.5688 14.6262 19.4148 14.284 19.0945 14.2836C18.7565 14.284 18.6565 14.584 18.6558 14.8462C18.6562 15.1976 18.8163 15.527 19.1279 15.5279V15.5445C18.8011 15.5441 18.6392 15.2011 18.6385 14.8462ZM18.3626 14.9155C18.3637 14.501 18.6844 14.1803 19.0984 14.1794V14.197C18.6928 14.197 18.3793 14.5101 18.3793 14.9155C18.3799 15.3345 18.6945 15.6141 19.1084 15.6143C19.524 15.6141 19.8443 15.3169 19.8453 14.868C19.8451 14.4535 19.5151 14.1974 19.0984 14.197V14.1794C19.5216 14.1803 19.8609 14.4432 19.8616 14.868C19.8613 15.3261 19.5324 15.6308 19.1084 15.6316C18.687 15.6308 18.3637 15.3436 18.3626 14.9155Z" fill="#231F20"/>
<path d="M21.1818 15.2052L21.1855 15.2013V14.4622C21.1855 14.3007 21.0732 14.2773 21.0134 14.2773H20.971V14.2175C21.0631 14.2175 21.1542 14.2256 21.2465 14.2256C21.3279 14.2256 21.4085 14.2175 21.489 14.2175V14.2773H21.4595C21.3764 14.2773 21.2837 14.2927 21.2837 14.5272V15.4241C21.2837 15.493 21.2861 15.5618 21.2959 15.6229H21.2207L20.2059 14.4919V15.3035C20.2059 15.4754 20.2393 15.5339 20.3913 15.5339H20.4247V15.5935C20.34 15.5935 20.2555 15.5857 20.1705 15.5857C20.0819 15.5857 19.9909 15.5935 19.9021 15.5935V15.5339H19.9301C20.0664 15.5339 20.107 15.4419 20.107 15.284V14.4542C20.107 14.3438 20.0169 14.2773 19.9277 14.2773H19.9021V14.2175C19.9773 14.2175 20.0539 14.2256 20.1291 14.2256C20.188 14.2256 20.2451 14.2175 20.3043 14.2175L21.1818 15.2052Z" fill="#231F20"/>
<path d="M21.1767 15.2012V15.2005L21.1749 15.1993L21.1767 15.2012ZM21.2207 15.6144H21.2858C21.2771 15.5553 21.2754 15.4894 21.2754 15.4242V14.5271C21.2754 14.2904 21.375 14.269 21.4595 14.2685H21.4807V14.2265C21.4025 14.2269 21.3248 14.2343 21.246 14.2343C21.1568 14.2343 21.0686 14.2269 20.9792 14.2265V14.2685H21.0134C21.0749 14.269 21.1938 14.2958 21.1938 14.4623L21.1914 15.2073L21.1879 15.211L21.1816 15.2177L20.3041 14.2265C20.2462 14.2265 20.1886 14.2343 20.129 14.2343C20.0562 14.2343 19.9819 14.2269 19.9107 14.2265V14.2685H19.9276C20.0206 14.269 20.1158 14.3387 20.1158 14.4543V15.2841C20.1158 15.442 20.0718 15.5425 19.93 15.5431H19.9107V15.5847C19.9962 15.5841 20.0837 15.5769 20.1706 15.5769C20.2529 15.5769 20.3347 15.5841 20.4162 15.5847V15.5431H20.3906C20.236 15.5431 20.1975 15.4756 20.1975 15.3036V14.4697L21.2207 15.6144ZM21.2958 15.6317L21.2141 15.6286L20.2141 14.5141V15.3036C20.2165 15.4756 20.2427 15.5236 20.3906 15.5254H20.4335V15.6018H20.4248C20.3395 15.6018 20.2548 15.5942 20.1706 15.5942C20.0823 15.5942 19.9917 15.6018 19.9021 15.6018H19.8941V15.5254H19.93C20.0599 15.525 20.0974 15.4414 20.0984 15.2841V14.4543C20.0984 14.349 20.0127 14.2856 19.9276 14.2854H19.8941V14.2094H19.9021C19.9776 14.2094 20.0545 14.2172 20.129 14.2172C20.1873 14.2172 20.244 14.2094 20.3111 14.2124L21.1767 15.1871V14.4623C21.1762 14.3055 21.0717 14.2867 21.0134 14.2854H20.9621V14.2094H20.9707C21.0634 14.2094 21.1548 14.2172 21.246 14.2172C21.3271 14.2172 21.4071 14.2094 21.4889 14.2094H21.4974V14.2854H21.4595C21.3785 14.2878 21.2944 14.2951 21.2927 14.5271V15.4242C21.2927 15.4927 21.2944 15.5615 21.3035 15.6217L21.3053 15.6317H21.2958Z" fill="#231F20"/>
<path d="M22.0935 14.4385H22.0897L21.9062 14.9963H22.2754L22.0935 14.4385ZM21.8057 15.3116C21.7864 15.3785 21.7627 15.4303 21.7627 15.4651C21.7627 15.5245 21.846 15.534 21.9101 15.534H21.9322V15.5933C21.8532 15.5894 21.7726 15.5858 21.6936 15.5858C21.6219 15.5858 21.5515 15.5894 21.4812 15.5933V15.534H21.492C21.5692 15.534 21.6347 15.4887 21.6639 15.406L21.9796 14.502C22.0052 14.4287 22.0405 14.3304 22.0522 14.257C22.1152 14.2356 22.194 14.1964 22.2315 14.1725C22.2375 14.1704 22.2416 14.1689 22.2475 14.1689C22.2531 14.1689 22.2568 14.1689 22.2612 14.1745C22.2672 14.1903 22.2729 14.208 22.2793 14.2239L22.6416 15.2546C22.6648 15.3235 22.6891 15.3967 22.7146 15.4559C22.738 15.5108 22.7798 15.534 22.8448 15.534H22.8564V15.5933C22.7679 15.5894 22.6789 15.5858 22.5845 15.5858C22.4879 15.5858 22.3891 15.5894 22.2887 15.5933V15.534H22.3105C22.3555 15.534 22.4329 15.5267 22.4329 15.4773C22.4329 15.4515 22.4149 15.3982 22.393 15.3352L22.3166 15.1065H21.8696L21.8057 15.3116Z" fill="#231F20"/>
<path d="M21.9184 14.9875H22.2633L22.0914 14.46L21.9184 14.9875ZM21.8943 15.0044L22.0842 14.4301H22.1L22.2863 15.0044H21.8943ZM22.2973 15.5843C22.3945 15.581 22.4907 15.577 22.5847 15.577C22.6761 15.577 22.7618 15.581 22.8476 15.5841V15.5432H22.8446C22.7779 15.5432 22.731 15.5167 22.7066 15.4591C22.6802 15.3994 22.6568 15.3262 22.6334 15.2573L22.2711 14.2265C22.2652 14.2107 22.2588 14.193 22.254 14.1796C22.2525 14.1769 22.2525 14.1769 22.251 14.1769H22.2475C22.2434 14.1769 22.2412 14.178 22.236 14.1796C22.1979 14.2036 22.1193 14.2432 22.0602 14.2584C22.0485 14.3333 22.0125 14.4314 21.9874 14.5044L21.6717 15.4091C21.6416 15.4947 21.5734 15.5432 21.4922 15.5432H21.4889V15.5841C21.5572 15.581 21.6251 15.577 21.6938 15.577C21.77 15.577 21.8476 15.581 21.924 15.5841V15.5432H21.9101C21.8463 15.5423 21.7563 15.5354 21.754 15.4652C21.7544 15.4262 21.7789 15.3758 21.7982 15.3093L21.8057 15.3116L21.7982 15.3091L21.8627 15.0984H22.3227L22.4012 15.3325C22.4234 15.3959 22.4409 15.4483 22.4409 15.4773C22.4381 15.5377 22.3554 15.5421 22.3101 15.5432H22.2973V15.5843ZM22.856 15.6018C22.7672 15.5984 22.6782 15.5941 22.5847 15.5941C22.4883 15.5941 22.3896 15.5984 22.2891 15.6018L22.2804 15.6025V15.5261H22.3101C22.356 15.5261 22.424 15.5152 22.4244 15.4773C22.4246 15.4548 22.4071 15.4009 22.3846 15.3381L22.3099 15.1152H21.8748L21.8142 15.3141C21.7945 15.3818 21.7706 15.4336 21.7713 15.4652C21.7713 15.5135 21.8452 15.5261 21.9101 15.5261H21.9404V15.6025L21.9315 15.6018C21.8529 15.5984 21.772 15.5941 21.6938 15.5941C21.6228 15.5941 21.5522 15.5984 21.4812 15.6018L21.4725 15.6025V15.5261H21.4922C21.5656 15.5252 21.6273 15.483 21.6559 15.4033L21.9714 14.4989C21.9965 14.4258 22.032 14.3276 22.0491 14.2493C22.1113 14.2279 22.1906 14.1882 22.2285 14.1644C22.2337 14.1624 22.2397 14.1601 22.2475 14.1601C22.2525 14.1594 22.2629 14.1609 22.2691 14.1718C22.2748 14.1874 22.2806 14.2051 22.2869 14.2209L22.6497 15.2519C22.673 15.3208 22.6969 15.3935 22.7226 15.452C22.7458 15.5044 22.7811 15.5252 22.8446 15.5261H22.8647V15.6025L22.856 15.6018Z" fill="#231F20"/>
<path d="M23.3533 15.4003C23.3533 15.4791 23.4081 15.5028 23.4711 15.5108C23.5518 15.5168 23.6405 15.5168 23.7316 15.5069C23.8139 15.4973 23.8854 15.4497 23.9204 15.4003C23.9518 15.3568 23.9692 15.302 23.9817 15.2583H24.0389C24.0168 15.3707 23.9893 15.4813 23.9654 15.5935C23.7922 15.5935 23.6186 15.5857 23.4458 15.5857C23.2721 15.5857 23.0984 15.5935 22.9251 15.5935V15.534H22.9523C23.0239 15.534 23.1006 15.5246 23.1006 15.4021V14.3894C23.1006 14.2866 23.0239 14.2773 22.9523 14.2773H22.9251V14.2175C23.0295 14.2175 23.1322 14.2256 23.2363 14.2256C23.3371 14.2256 23.4356 14.2175 23.5363 14.2175V14.2773H23.4867C23.412 14.2773 23.3533 14.2792 23.3533 14.3838V15.4003Z" fill="#231F20"/>
<path d="M23.9588 15.5847C23.9816 15.478 24.0076 15.3731 24.0281 15.2666H23.9877C23.9757 15.3101 23.9582 15.3628 23.927 15.4054C23.8904 15.4567 23.8172 15.5048 23.7317 15.5152C23.6799 15.5208 23.6289 15.5233 23.5808 15.5233C23.5426 15.5233 23.5052 15.5215 23.4696 15.5191C23.406 15.5119 23.3436 15.4847 23.3443 15.4004V14.3837C23.3443 14.2739 23.4134 14.2685 23.4868 14.2685H23.5275V14.2265C23.4304 14.2269 23.3343 14.2343 23.2364 14.2343C23.134 14.2343 23.0342 14.2269 22.9335 14.2265V14.2685H22.9523C23.0229 14.2685 23.1089 14.2807 23.1089 14.3891V15.402C23.1089 15.5295 23.0231 15.5431 22.9523 15.5431H22.9335V15.5847C23.1034 15.5843 23.2744 15.5769 23.4459 15.5769C23.6169 15.5769 23.7878 15.5843 23.9588 15.5847ZM23.9656 15.6018C23.7919 15.6018 23.6186 15.5941 23.4459 15.5941C23.2722 15.5941 23.0985 15.6018 22.9248 15.6018H22.9168V15.5261H22.9523C23.0238 15.5243 23.0918 15.5191 23.0924 15.402V14.3891C23.0918 14.2934 23.0245 14.2867 22.9523 14.2852H22.9168V14.2094H22.9248C23.0299 14.2094 23.1323 14.2172 23.2364 14.2172C23.3367 14.2172 23.4352 14.2094 23.5364 14.2094H23.5442V14.2852H23.4868C23.4103 14.2874 23.3627 14.2839 23.361 14.3837V15.4004C23.3618 15.4739 23.4097 15.4933 23.4718 15.5025C23.506 15.5048 23.5431 15.5061 23.5808 15.5061C23.6289 15.5061 23.6789 15.5038 23.7304 15.4983C23.8105 15.4888 23.8794 15.4427 23.9136 15.3956C23.944 15.3532 23.9612 15.2993 23.9727 15.2562L23.9749 15.2495H24.0492L24.0472 15.2604C24.0251 15.3727 23.9981 15.483 23.9742 15.5955L23.9721 15.6018H23.9656Z" fill="#231F20"/>
<path d="M23.9817 14.37H24.006C24.0328 14.37 24.0452 14.3498 24.0452 14.3171C24.0452 14.284 24.0255 14.2725 24.0044 14.2725H23.9817V14.37ZM23.9116 14.4795V14.4691C23.9367 14.4657 23.9416 14.4668 23.9416 14.4505V14.2972C23.9416 14.2753 23.9393 14.2679 23.9122 14.2692V14.2584H24.0187C24.0547 14.2584 24.0885 14.2762 24.0885 14.3136C24.0885 14.3448 24.0683 14.3672 24.0395 14.3762L24.0733 14.4241C24.0896 14.4451 24.1075 14.4657 24.1194 14.4728V14.4795H24.079C24.0596 14.4795 24.0428 14.4383 24.0044 14.384H23.9817V14.4527C23.9817 14.4668 23.9864 14.4657 24.0116 14.4691V14.4795H23.9116ZM24.0146 14.5382C24.1075 14.5382 24.1787 14.4594 24.1787 14.37C24.1787 14.2805 24.1088 14.2006 24.0146 14.2006C23.9211 14.2006 23.85 14.2805 23.85 14.37C23.85 14.4594 23.9211 14.5382 24.0146 14.5382ZM24.0146 14.1621C24.1333 14.1621 24.2221 14.2534 24.2221 14.37C24.2221 14.4864 24.1333 14.5767 24.0146 14.5767C23.8962 14.5767 23.807 14.4864 23.807 14.37C23.807 14.2534 23.8962 14.1621 24.0146 14.1621Z" fill="#231F20"/>
<path d="M11.7114 7.20837C11.7114 5.36484 13.2058 3.8705 15.0494 3.8705C16.8929 3.8705 18.3874 5.36484 18.3874 7.20837C18.3874 9.05195 16.8929 10.5463 15.0494 10.5463C13.2058 10.5463 11.7114 9.05195 11.7114 7.20837Z" fill="white"/>
<path d="M17.0682 7.14262C17.0667 6.28773 16.5325 5.55892 15.7795 5.27017V9.01512C16.5325 8.72593 17.0667 7.99778 17.0682 7.14262ZM14.3432 9.01424V5.27039C13.5911 5.56023 13.0575 6.28817 13.0556 7.14262C13.0575 7.9969 13.5911 8.72506 14.3432 9.01424ZM15.0618 3.97736C13.3137 3.97801 11.8973 5.39454 11.8971 7.14262C11.8973 8.89053 13.3137 10.3068 15.0618 10.3071C16.8099 10.3068 18.2266 8.89053 18.2271 7.14262C18.2266 5.39454 16.8099 3.97801 15.0618 3.97736ZM15.054 10.606C13.1411 10.6149 11.5666 9.06534 11.5666 7.17873C11.5666 5.11709 13.1411 3.69102 15.054 3.69141H15.9506C17.8408 3.69102 19.566 5.11622 19.566 7.17873C19.566 9.06446 17.8408 10.606 15.9506 10.606H15.054Z" fill="#006699"/>
</svg>
