<svg width="31" height="20" viewBox="0 0 31 20" fill="none" xmlns="http://www.w3.org/2000/svg">
<rect width="31" height="20" fill="#000008"/>
<path d="M15.2408 12.8571H14.4083V6.37889H16.6154C17.1748 6.37889 17.6517 6.56534 18.042 6.93825C18.4409 7.31116 18.6404 7.76646 18.6404 8.30414C18.6404 8.85483 18.4409 9.31013 18.042 9.6787C17.6561 10.0473 17.1791 10.2294 16.6154 10.2294H15.2408V12.8571ZM15.2408 7.17674V9.43587H16.6327C16.9623 9.43587 17.2398 9.32313 17.4566 9.10199C17.6777 8.88085 17.7905 8.61201 17.7905 8.30847C17.7905 8.00928 17.6777 7.74478 17.4566 7.52363C17.2398 7.29382 16.9666 7.18108 16.6327 7.18108H15.2408V7.17674Z" fill="white"/>
<path d="M20.817 8.27812C21.4328 8.27812 21.9184 8.4429 22.274 8.77244C22.6295 9.10199 22.8073 9.55295 22.8073 10.1253V12.8571H22.0138V12.2414H21.9791C21.6365 12.7487 21.1769 13.0002 20.6045 13.0002C20.1146 13.0002 19.707 12.8571 19.3774 12.5666C19.0479 12.2761 18.8831 11.9162 18.8831 11.4825C18.8831 11.0229 19.0566 10.6587 19.4034 10.3898C19.7503 10.1166 20.2143 9.98223 20.791 9.98223C21.2853 9.98223 21.6929 10.0733 22.0095 10.2554V10.0646C22.0095 9.77409 21.8967 9.53127 21.6669 9.32747C21.4371 9.12367 21.1682 9.02394 20.8604 9.02394C20.3964 9.02394 20.0278 9.21907 19.759 9.61366L19.0262 9.15402C19.4295 8.56864 20.0278 8.27812 20.817 8.27812ZM19.7417 11.4955C19.7417 11.7124 19.8327 11.8945 20.0192 12.0376C20.2013 12.1807 20.4181 12.2544 20.6653 12.2544C21.0165 12.2544 21.3287 12.1243 21.6019 11.8641C21.875 11.6039 22.0138 11.3004 22.0138 10.9492C21.7536 10.7454 21.3937 10.6413 20.9298 10.6413C20.5915 10.6413 20.3097 10.7237 20.0842 10.8841C19.8544 11.0533 19.7417 11.2571 19.7417 11.4955Z" fill="white"/>
<path d="M27.3343 8.42126L24.5591 14.8041H23.7006L24.7326 12.571L22.9027 8.42126H23.809L25.1272 11.604H25.1445L26.428 8.42126H27.3343Z" fill="white"/>
<path d="M11.9293 9.70472C11.9293 9.43328 11.905 9.17354 11.8599 8.92378H8.37019V10.3547L10.38 10.3551C10.2985 10.8313 10.0361 11.2371 9.63417 11.5077V12.4361H10.8305C11.5291 11.7895 11.9293 10.8339 11.9293 9.70472Z" fill="#4285F4"/>
<path d="M9.6346 11.5077C9.30158 11.7323 8.87274 11.8637 8.37105 11.8637C7.40192 11.8637 6.57979 11.2107 6.28537 10.3305H5.05131V11.2879C5.6627 12.5011 6.91931 13.3337 8.37105 13.3337C9.37443 13.3337 10.2174 13.0037 10.8309 12.4357L9.6346 11.5077Z" fill="#34A853"/>
<path d="M6.16912 9.62015C6.16912 9.37299 6.21032 9.13407 6.28533 8.90946V7.95204H5.05127C4.79847 8.45373 4.65625 9.02003 4.65625 9.62015C4.65625 10.2203 4.79891 10.7866 5.05127 11.2883L6.28533 10.3309C6.21032 10.1062 6.16912 9.86732 6.16912 9.62015Z" fill="#FABB05"/>
<path d="M8.37105 7.3762C8.9187 7.3762 9.40912 7.56483 9.79633 7.9334L10.8565 6.87408C10.2126 6.27439 9.37313 5.90625 8.37105 5.90625C6.91975 5.90625 5.66266 6.73878 5.05127 7.95204L6.28533 8.90946C6.57976 8.02922 7.40192 7.3762 8.37105 7.3762Z" fill="#E94235"/>
</svg>
