<svg width="32" height="20" viewBox="0 0 32 20" fill="none" xmlns="http://www.w3.org/2000/svg">
<rect width="31.0448" height="20" transform="translate(0.046875)" fill="white"/>
<path d="M17.8 5.89422H13.2291V14.1082H17.8V5.89422Z" fill="#FF5F00"/>
<path d="M13.5194 10.0012C13.5187 9.21015 13.6979 8.42929 14.0436 7.71774C14.3893 7.00619 14.8923 6.38261 15.5146 5.89421C14.744 5.28848 13.8185 4.91178 12.8439 4.80718C11.8693 4.70257 10.8849 4.87428 10.0033 5.30267C9.12165 5.73107 8.37834 6.39887 7.85831 7.22974C7.33827 8.06061 7.0625 9.02103 7.0625 10.0012C7.0625 10.9814 7.33827 11.9418 7.85831 12.7727C8.37834 13.6036 9.12165 14.2714 10.0033 14.6998C10.8849 15.1282 11.8693 15.2999 12.8439 15.1953C13.8185 15.0907 14.744 14.714 15.5146 14.1082C14.8923 13.6198 14.3893 12.9963 14.0436 12.2847C13.6979 11.5732 13.5187 10.7923 13.5194 10.0012Z" fill="#EB001B"/>
<path d="M23.9664 10.0012C23.9665 10.9814 23.6907 11.9418 23.1707 12.7727C22.6507 13.6036 21.9074 14.2714 21.0258 14.6998C20.1442 15.1282 19.1599 15.2999 18.1853 15.1953C17.2107 15.0907 16.2852 14.714 15.5146 14.1082C16.1363 13.6193 16.639 12.9957 16.9846 12.2842C17.3302 11.5728 17.5098 10.7922 17.5098 10.0012C17.5098 9.21028 17.3302 8.42966 16.9846 7.71822C16.639 7.00678 16.1363 6.38311 15.5146 5.89421C16.2852 5.28848 17.2107 4.91178 18.1853 4.80718C19.1599 4.70257 20.1442 4.87429 21.0258 5.30269C21.9074 5.73109 22.6507 6.39889 23.1707 7.22976C23.6907 8.06063 23.9665 9.02104 23.9664 10.0012Z" fill="#F79E1B"/>
<path d="M23.468 13.2382V13.0701H23.5358V13.0358H23.3631V13.0701H23.431V13.2382H23.468ZM23.8033 13.2382V13.0355H23.7504L23.6895 13.1749L23.6286 13.0355H23.5756V13.2382H23.613V13.0853L23.6701 13.2172H23.7089L23.766 13.085V13.2382H23.8033Z" fill="#F79E1B"/>
</svg>
