<svg width="31" height="20" viewBox="0 0 31 20" fill="none" xmlns="http://www.w3.org/2000/svg">
<rect width="31" height="20" fill="#FFC43A"/>
<path fill-rule="evenodd" clip-rule="evenodd" d="M5.63617 6.53007H3.50212C3.35608 6.53007 3.23188 6.6362 3.20911 6.78029L2.34599 12.252C2.32883 12.36 2.41246 12.4573 2.52199 12.4573H3.54081C3.68684 12.4573 3.81104 12.3512 3.83382 12.2068L4.06661 10.731C4.08907 10.5865 4.21357 10.4805 4.35931 10.4805H5.03487C6.44065 10.4805 7.25191 9.80031 7.4639 8.45245C7.55935 7.86277 7.46794 7.39943 7.1917 7.07484C6.88845 6.71864 6.3504 6.53007 5.63617 6.53007ZM5.88238 8.52854C5.7657 9.29423 5.18061 9.29423 4.61487 9.29423H4.29284L4.51876 7.86421C4.53217 7.77787 4.60706 7.7142 4.69444 7.7142H4.84203C5.22741 7.7142 5.59098 7.71419 5.77885 7.93381C5.89076 8.06491 5.92513 8.25955 5.88238 8.52854ZM12.0154 8.504H10.9934C10.9064 8.504 10.8311 8.56767 10.8177 8.65416L10.7725 8.9399L10.701 8.83638C10.4798 8.51526 9.9865 8.40798 9.49408 8.40798C8.3647 8.40798 7.40022 9.26319 7.21235 10.4629C7.11473 11.0612 7.2535 11.6335 7.593 12.0325C7.90448 12.3994 8.35011 12.5523 8.88022 12.5523C9.79011 12.5523 10.2948 11.9673 10.2948 11.9673L10.2492 12.2513C10.232 12.3599 10.3156 12.4572 10.4245 12.4572H11.3451C11.4915 12.4572 11.615 12.3511 11.6381 12.2067L12.1904 8.70932C12.2079 8.60175 12.1246 8.504 12.0154 8.504ZM10.5908 10.4928C10.4922 11.0765 10.0288 11.4684 9.43791 11.4684C9.14116 11.4684 8.9039 11.3733 8.7517 11.1929C8.60065 11.0139 8.54318 10.7589 8.59127 10.475C8.6834 9.89618 9.15459 9.49161 9.73654 9.49161C10.0266 9.49161 10.2626 9.58791 10.418 9.76984C10.5737 9.95365 10.6355 10.2101 10.5908 10.4928ZM16.4311 8.50385H17.4581C17.602 8.50385 17.6859 8.66513 17.6041 8.7831L14.1885 13.7128C14.1332 13.7926 14.0421 13.8401 13.9448 13.8401H12.9191C12.7747 13.8401 12.6903 13.6776 12.7739 13.5593L13.8375 12.0582L12.7064 8.73906C12.6672 8.62369 12.7524 8.50385 12.8752 8.50385H13.8843C14.0154 8.50385 14.1311 8.58991 14.1689 8.71538L14.7692 10.7201L16.1856 8.63395C16.2411 8.55251 16.3332 8.50385 16.4311 8.50385Z" fill="#253B80"/>
<path fill-rule="evenodd" clip-rule="evenodd" d="M27.566 12.2515L28.4418 6.67975C28.4552 6.59326 28.5302 6.52959 28.6173 6.5293H29.6033C29.7121 6.5293 29.7957 6.6269 29.7786 6.7349L28.9149 12.2063C28.8924 12.3507 28.7682 12.4568 28.6219 12.4568H27.7413C27.6324 12.4568 27.5488 12.3595 27.566 12.2515ZM20.8586 6.52958H18.7241C18.5784 6.52958 18.4542 6.63571 18.4314 6.77981L17.5683 12.2515C17.5511 12.3595 17.6347 12.4568 17.7438 12.4568H18.8389C18.9407 12.4568 19.0278 12.3826 19.0437 12.2816L19.2886 10.7305C19.3111 10.586 19.4356 10.48 19.5813 10.48H20.2565C21.6626 10.48 22.4737 9.79982 22.6859 8.45196C22.7816 7.86228 22.6896 7.39894 22.4135 7.07436C22.1104 6.71815 21.5728 6.52958 20.8586 6.52958ZM21.1048 8.52806C20.9884 9.29374 20.4032 9.29374 19.8372 9.29374H19.5154L19.7417 7.86373C19.7552 7.77738 19.8294 7.71371 19.917 7.71371H20.0646C20.4497 7.71371 20.8136 7.71371 21.0014 7.93332C21.1134 8.06442 21.1475 8.25906 21.1048 8.52806ZM27.2372 8.50351H26.216C26.1282 8.50351 26.0537 8.56718 26.0405 8.65367L25.9953 8.93942L25.9235 8.83589C25.7023 8.51477 25.2093 8.40749 24.7169 8.40749C23.5875 8.40749 22.6233 9.2627 22.4355 10.4624C22.3381 11.0608 22.4763 11.633 22.8158 12.0321C23.1279 12.3989 23.5729 12.5519 24.103 12.5519C25.0129 12.5519 25.5175 11.9668 25.5175 11.9668L25.472 12.2508C25.4548 12.3594 25.5384 12.4567 25.648 12.4567H26.5682C26.7139 12.4567 26.8381 12.3506 26.8609 12.2062L27.4135 8.70883C27.4304 8.60126 27.3468 8.50351 27.2372 8.50351ZM25.8128 10.4923C25.7147 11.0761 25.2508 11.4679 24.6597 11.4679C24.3635 11.4679 24.1259 11.3728 23.9735 11.1924C23.8225 11.0134 23.7657 10.7584 23.8132 10.4745C23.9058 9.8957 24.3764 9.49112 24.9583 9.49112C25.2486 9.49112 25.4844 9.58743 25.6399 9.76936C25.7962 9.95316 25.858 10.2096 25.8128 10.4923Z" fill="#179BD7"/>
</svg>
