<svg width="32" height="20" viewBox="0 0 32 20" fill="none" xmlns="http://www.w3.org/2000/svg">
<rect width="31.0448" height="20" fill="white"/>
<path d="M15.3314 6.74102L13.8834 13.5099H12.1324L13.5807 6.74102H15.3314ZM22.6984 11.1117L23.6203 8.56975L24.1508 11.1117H22.6984ZM24.6521 13.5099H26.2717L24.8584 6.74102H23.3634C23.0275 6.74102 22.7441 6.9364 22.6179 7.23762L19.9909 13.5099H21.8297L22.1948 12.4991H24.4413L24.6521 13.5099ZM20.0822 11.2998C20.0897 9.51326 17.6116 9.41492 17.6287 8.61689C17.6339 8.37373 17.8654 8.11578 18.3713 8.04958C18.6226 8.0168 19.3135 7.99174 20.098 8.35273L20.4052 6.91734C19.9838 6.76437 19.4416 6.61719 18.7672 6.61719C17.0366 6.61719 15.8184 7.53734 15.8081 8.8549C15.7972 9.82926 16.6777 10.373 17.3412 10.6969C18.0233 11.0288 18.2526 11.2413 18.2496 11.538C18.2451 11.9924 17.7054 12.1925 17.202 12.2004C16.3214 12.2144 15.8105 11.9629 15.4032 11.773L15.0859 13.2562C15.4949 13.4441 16.2501 13.6073 17.0336 13.6157C18.8728 13.6157 20.0762 12.7069 20.0822 11.2998ZM12.8294 6.74102L9.99243 13.5099H8.1412L6.74523 8.10786C6.66039 7.77514 6.58669 7.65346 6.32896 7.51313C5.90841 7.28497 5.21321 7.07052 4.60156 6.93769L4.64334 6.74102H7.62274C8.00237 6.74102 8.34408 6.99382 8.4302 7.43108L9.16761 11.3482L10.9897 6.74102H12.8294Z" fill="#1434CB"/>
</svg>
