<svg width="221" height="220" viewBox="0 0 221 220" fill="none" xmlns="http://www.w3.org/2000/svg">
<path d="M23.4186 105.957L24.149 108.439C24.207 108.636 24.314 108.816 24.4602 108.962C24.6063 109.107 24.7869 109.213 24.985 109.27L27.4622 110.001L24.985 110.731C24.7869 110.788 24.6063 110.894 24.4602 111.039C24.314 111.185 24.207 111.365 24.149 111.563L23.4186 114.044L22.6926 111.563C22.6339 111.365 22.5266 111.186 22.3806 111.04C22.2345 110.895 22.0544 110.789 21.8566 110.731L19.375 110.001L21.8566 109.27C22.0544 109.213 22.2345 109.106 22.3806 108.961C22.5266 108.816 22.6339 108.636 22.6926 108.439L23.4186 105.957Z" fill="#E0E0E0"/>
<path d="M113.911 194.941L114.637 197.419C114.695 197.617 114.802 197.797 114.948 197.943C115.094 198.089 115.275 198.196 115.473 198.255L117.954 198.981L115.473 199.711C115.275 199.769 115.094 199.877 114.948 200.023C114.802 200.169 114.695 200.349 114.637 200.547L113.911 203.024L113.18 200.547C113.123 200.349 113.016 200.168 112.87 200.022C112.724 199.876 112.543 199.769 112.344 199.711L109.867 198.981L112.344 198.255C112.543 198.197 112.724 198.09 112.87 197.944C113.016 197.798 113.123 197.617 113.18 197.419L113.911 194.941Z" fill="#E0E0E0"/>
<path d="M29.8895 126.338L30.3735 127.975C30.4118 128.106 30.4821 128.225 30.5782 128.322C30.6742 128.419 30.7929 128.49 30.9235 128.529L32.5648 129.009L30.9235 129.493C30.7936 129.532 30.6754 129.603 30.5795 129.699C30.4835 129.795 30.4128 129.913 30.3735 130.043L29.8895 131.684L29.41 130.043C29.3707 129.912 29.2994 129.793 29.2026 129.697C29.1058 129.601 28.9865 129.531 28.8556 129.493L27.2188 129.009L28.8556 128.529C28.9872 128.491 29.107 128.42 29.2039 128.323C29.3008 128.226 29.3717 128.106 29.41 127.975L29.8895 126.338Z" fill="#E0E0E0"/>
<path d="M181.84 114.004L182.571 116.481C182.629 116.679 182.735 116.859 182.88 117.005C183.025 117.151 183.205 117.258 183.402 117.317L185.884 118.043L183.402 118.774C183.205 118.831 183.025 118.939 182.879 119.085C182.734 119.231 182.628 119.411 182.571 119.61L181.84 122.087L181.11 119.61C181.053 119.411 180.947 119.231 180.802 119.085C180.656 118.939 180.476 118.831 180.278 118.774L177.797 118.043L180.278 117.317C180.476 117.258 180.656 117.151 180.801 117.005C180.946 116.859 181.052 116.679 181.11 116.481L181.84 114.004Z" fill="#E0E0E0"/>
<path d="M164.664 29.041L165.395 31.5226C165.453 31.7207 165.56 31.901 165.706 32.047C165.852 32.193 166.033 32.3002 166.231 32.3586L168.708 33.0846L166.231 33.815C166.032 33.8727 165.851 33.9796 165.705 34.1257C165.559 34.2719 165.452 34.4526 165.395 34.651L164.664 37.1282L163.938 34.651C163.88 34.4529 163.773 34.2726 163.627 34.1266C163.481 33.9806 163.3 33.8735 163.102 33.815L160.625 33.0846L163.102 32.3586C163.3 32.2995 163.48 32.1921 163.626 32.0462C163.772 31.9002 163.879 31.7203 163.938 31.5226L164.664 29.041Z" fill="#E0E0E0"/>
<path d="M156.705 57.3984L157.492 60.078C157.554 60.2937 157.669 60.4901 157.828 60.6486C157.987 60.8072 158.183 60.9228 158.399 60.9844L161.078 61.772L158.399 62.5596C158.186 62.6189 157.992 62.7304 157.833 62.8842C157.675 63.0379 157.558 63.2289 157.492 63.4396L156.705 66.1412L155.917 63.4616C155.852 63.2514 155.735 63.0607 155.578 62.9071C155.42 62.7534 155.227 62.6415 155.015 62.5816L152.305 61.772L154.984 60.9844C155.199 60.9222 155.395 60.8063 155.552 60.6478C155.71 60.4892 155.825 60.2932 155.886 60.078L156.705 57.3984Z" fill="#E0E0E0"/>
<path d="M167.339 121.15L167.819 122.787C167.858 122.918 167.929 123.038 168.026 123.135C168.123 123.231 168.242 123.303 168.373 123.342L170.01 123.821L168.373 124.301C168.242 124.339 168.122 124.41 168.025 124.507C167.928 124.604 167.857 124.724 167.819 124.855L167.339 126.492L166.855 124.855C166.818 124.724 166.748 124.604 166.652 124.507C166.555 124.41 166.436 124.339 166.305 124.301L164.664 123.821L166.305 123.342C166.436 123.302 166.555 123.231 166.651 123.134C166.747 123.037 166.817 122.918 166.855 122.787L167.339 121.15Z" fill="#E0E0E0"/>
<path d="M34.9408 78.0293L35.4204 79.6661C35.4587 79.7977 35.5296 79.9175 35.6265 80.0144C35.7234 80.1114 35.8432 80.1822 35.9748 80.2205L37.6116 80.7001L35.9748 81.1841C35.8435 81.2216 35.7239 81.2917 35.6269 81.3878C35.53 81.484 35.459 81.6031 35.4204 81.7341L34.9408 83.3753L34.4568 81.7341C34.4191 81.6034 34.3488 81.4845 34.2526 81.3883C34.1565 81.2921 34.0375 81.2219 33.9068 81.1841L32.2656 80.7001L33.9068 80.2205C34.0378 80.182 34.1569 80.1109 34.2531 80.014C34.3493 79.9171 34.4193 79.7974 34.4568 79.6661L34.9408 78.0293Z" fill="#E0E0E0"/>
<path d="M87.1127 12.4785L87.5923 14.1197C87.6316 14.2503 87.7028 14.3691 87.7997 14.4651C87.8965 14.5612 88.0158 14.6315 88.1467 14.6697L89.7835 15.1537L88.1467 15.6333C88.0151 15.6716 87.8953 15.7425 87.7984 15.8394C87.7014 15.9363 87.6306 16.0561 87.5923 16.1877L87.1127 17.8245L86.6287 16.1877C86.5912 16.0564 86.5211 15.9367 86.425 15.8398C86.3288 15.7429 86.2097 15.6718 86.0787 15.6333L84.4375 15.1537L86.0787 14.6697C86.209 14.6312 86.3276 14.5607 86.4236 14.4647C86.5197 14.3686 86.5902 14.25 86.6287 14.1197L87.1127 12.4785Z" fill="#E0E0E0"/>
<path d="M56.6004 26.8613L57.4276 29.6729C57.4928 29.8981 57.6136 30.1032 57.7789 30.2693C57.9443 30.4354 58.1488 30.5571 58.3736 30.6233L61.1852 31.4461L58.3736 32.2733C58.1487 32.338 57.9439 32.4587 57.7785 32.6242C57.613 32.7897 57.4923 32.9944 57.4276 33.2193L56.6004 36.0309L55.7732 33.2193C55.7086 32.9944 55.5878 32.7897 55.4224 32.6242C55.2569 32.4587 55.0521 32.338 54.8272 32.2733L52.0156 31.4461L54.8272 30.6233C55.0521 30.5571 55.2566 30.4354 55.4219 30.2693C55.5873 30.1032 55.7081 29.8981 55.7732 29.6729L56.6004 26.8613Z" fill="#E0E0E0"/>
<path d="M60.6942 57.7461L61.1782 59.3873C61.2167 59.5176 61.2872 59.6362 61.3833 59.7322C61.4794 59.8283 61.5979 59.8988 61.7282 59.9373L63.3694 60.4213L61.7282 60.9009C61.5976 60.9402 61.4789 61.0114 61.3828 61.1083C61.2868 61.2051 61.2165 61.3244 61.1782 61.4553L60.6942 63.0921L60.2146 61.4553C60.1764 61.3237 60.1055 61.2039 60.0086 61.1069C59.9117 61.01 59.7918 60.9392 59.6602 60.9009L58.0234 60.4213L59.6602 59.9373C59.7915 59.8998 59.9112 59.8297 60.0081 59.7336C60.1051 59.6374 60.1761 59.5183 60.2146 59.3873L60.6942 57.7461Z" fill="#E0E0E0"/>
<path d="M194.784 154.828C177.497 151.158 163.984 160.046 163.984 160.046C177.444 166.589 194.784 154.828 194.784 154.828Z" fill="#E0E0E0"/>
<path d="M145.633 153.957C145.633 164.803 152.906 172.309 152.906 172.309C155.198 163.567 145.633 153.957 145.633 153.957Z" fill="#E0E0E0"/>
<path d="M157.023 171.159C169.81 173.667 180.343 166.883 180.343 166.883C170.553 162.183 157.023 171.159 157.023 171.159Z" fill="#E0E0E0"/>
<path d="M171.169 148.721C170.971 148.58 165.401 156.201 158.726 165.696C152.051 175.191 146.802 183.041 147.022 183.19C147.242 183.34 152.791 175.71 159.465 166.211C166.14 156.711 171.367 148.87 171.169 148.721Z" fill="#E0E0E0"/>
<path d="M190.19 128.115C190.19 128.115 171.178 134.821 168.758 152.68C168.758 152.68 185.055 147.172 190.19 128.115Z" fill="#E0E0E0"/>
<path d="M161.571 130.188C161.571 130.188 150.302 146.907 158.997 162.677C158.997 162.677 168.809 148.549 161.571 130.188Z" fill="#E0E0E0"/>
<path d="M49.6257 138.16C43.4393 154.973 50.3957 169.805 50.3957 169.805C58.9097 157.243 49.6257 138.16 49.6257 138.16Z" fill="#E0E0E0"/>
<path d="M42.6094 190.037C53.4862 191.616 62.075 185.399 62.075 185.399C53.6358 181.831 42.6094 190.037 42.6094 190.037Z" fill="#E0E0E0"/>
<path d="M61.5145 181.1C65.8837 168.639 60.5993 157.098 60.5993 157.098C54.4701 166.223 61.5145 181.1 61.5145 181.1Z" fill="#E0E0E0"/>
<path d="M41.0655 163.654C40.8983 163.834 47.7139 170.527 56.2939 178.614C64.8739 186.701 71.9623 193.094 72.1339 192.918C72.3055 192.742 65.4855 186.046 56.9055 177.958C48.3255 169.871 41.2327 163.478 41.0655 163.654Z" fill="#E0E0E0"/>
<path d="M23.1406 141.584C23.1406 141.584 27.1006 161.63 44.6654 166.664C44.6654 166.646 41.515 149.495 23.1406 141.584Z" fill="#E0E0E0"/>
<path d="M21.0703 170.592C21.0703 170.592 36.2063 184.32 53.2959 177.887C53.3047 177.887 40.5447 165.994 21.0703 170.592Z" fill="#E0E0E0"/>
<path d="M67.7443 64.4902C60.2643 79.8154 65.4387 94.529 65.4387 94.529C74.7007 83.4718 67.7443 64.4902 67.7443 64.4902Z" fill="#E0E0E0"/>
<path d="M56.1172 112.958C66.2636 115.497 74.9932 110.432 74.9932 110.432C67.3416 106.248 56.1172 112.958 56.1172 112.958Z" fill="#E0E0E0"/>
<path d="M74.8623 106.308C80.1907 94.9297 76.2967 83.4941 76.2967 83.4941C69.6395 91.5505 74.8623 106.308 74.8623 106.308Z" fill="#E0E0E0"/>
<path d="M57.1914 87.8286C57.0154 87.9826 62.8322 94.9742 70.1758 103.444C77.5194 111.914 83.6222 118.655 83.8158 118.501C84.0094 118.347 78.1794 111.36 70.8314 102.89C63.4834 94.4198 57.3674 87.679 57.1914 87.8286Z" fill="#E0E0E0"/>
<path d="M42.3359 65.2129C42.3359 65.2129 44.1707 84.5729 60.3099 91.0101C60.3099 91.0101 58.9723 74.4705 42.3359 65.2129Z" fill="#E0E0E0"/>
<path d="M37.5938 92.4838C37.5938 92.4838 50.6089 106.92 67.3862 102.481C67.3862 102.481 56.4698 89.9978 37.5938 92.4838Z" fill="#E0E0E0"/>
<path d="M196.482 98.1207C180.708 91.6483 166.359 97.7423 166.359 97.7423C177.989 106.261 196.482 98.1207 196.482 98.1207Z" fill="#E0E0E0"/>
<path d="M147.379 89.6016C145.496 99.8932 151.106 108.28 151.106 108.28C154.793 100.377 147.379 89.6016 147.379 89.6016Z" fill="#E0E0E0"/>
<path d="M155.211 107.902C166.906 112.495 178.065 107.875 178.065 107.875C169.603 101.729 155.211 107.902 155.211 107.902Z" fill="#E0E0E0"/>
<path d="M172.516 89.0658C172.353 88.8986 165.749 95.151 157.767 103.023C149.786 110.894 143.45 117.415 143.612 117.582C143.775 117.749 150.38 111.501 158.361 103.625C166.343 95.7494 172.679 89.233 172.516 89.0658Z" fill="#E0E0E0"/>
<path d="M194.134 72.793C194.134 72.793 174.932 75.873 169.547 92.3818C169.547 92.3994 185.963 89.9882 194.134 72.793Z" fill="#E0E0E0"/>
<path d="M166.622 69.8066C166.622 69.8066 153.035 83.7194 158.553 100.193C158.553 100.193 170.309 88.4846 166.622 69.8066Z" fill="#E0E0E0"/>
<path d="M112.255 32.3713C112.189 32.3713 112.141 27.3113 112.141 21.0765C112.141 14.8417 112.189 9.77734 112.255 9.77734C112.321 9.77734 112.369 14.8373 112.369 21.0765C112.369 27.3157 112.33 32.3713 112.255 32.3713Z" fill="#263238"/>
<path d="M90.908 38.435C90.864 38.479 87.7004 35.3858 83.8416 31.5314C79.9828 27.677 76.894 24.4914 76.938 24.465C76.982 24.4386 80.1456 27.5098 84.0044 31.3686C87.8632 35.2274 90.9564 38.391 90.908 38.435Z" fill="#263238"/>
<path d="M144.684 24.6721C144.728 24.7161 141.265 28.3065 136.944 32.6933C132.623 37.0801 129.086 40.6133 129.024 40.5517C128.963 40.4901 132.443 36.9173 136.764 32.5305C141.085 28.1437 144.64 24.6413 144.684 24.6721Z" fill="#263238"/>
<path d="M99.3722 32.1197C98.6054 30.9869 97.9032 29.8117 97.269 28.5997C96.5653 27.4233 95.9277 26.2084 95.3594 24.9609C96.1274 26.0938 96.8311 27.269 97.467 28.4809C98.1704 29.6568 98.8065 30.8717 99.3722 32.1197Z" fill="#263238"/>
<path d="M129.018 23.5762C128.748 24.0313 128.454 24.4719 128.138 24.8962C127.592 25.7058 126.862 26.8498 126.136 28.1478C125.41 29.4458 124.816 30.669 124.407 31.5578C124.209 32.0497 123.988 32.5313 123.742 33.001C123.758 32.858 123.797 32.7184 123.857 32.5874C123.945 32.3278 124.085 31.9538 124.27 31.5006C124.762 30.3165 125.322 29.1618 125.947 28.0422C126.571 26.9243 127.262 25.8444 128.015 24.8082C128.305 24.4078 128.551 24.0954 128.727 23.8842C128.811 23.7696 128.908 23.6661 129.018 23.5762Z" fill="#263238"/>
<path d="M146.607 47.3535C145.481 47.8265 144.327 48.232 143.153 48.5679C142.001 48.9741 140.826 49.3076 139.633 49.5667C140.757 49.0869 141.911 48.6798 143.087 48.3479C144.238 47.9412 145.413 47.6091 146.607 47.3535Z" fill="#263238"/>
<path d="M76.9567 49.937C75.8106 49.8483 74.6716 49.6851 73.5467 49.4486C72.4076 49.286 71.2802 49.0494 70.1719 48.7402C71.3197 48.8233 72.4605 48.985 73.5863 49.2242C74.7249 49.3835 75.8511 49.6216 76.9567 49.937Z" fill="#263238"/>
<path d="M122.826 185.909C122.826 185.909 121.101 183.978 123.046 180.871C123.046 180.871 119.794 173.743 119.776 173.699C119.759 173.655 114.892 179.217 120.577 184.303L122.826 185.909Z" fill="#B0BEC5"/>
<path opacity="0.3" d="M122.826 185.909C122.826 185.909 121.101 183.978 123.046 180.871C123.046 180.871 119.794 173.743 119.776 173.699C119.759 173.655 114.892 179.217 120.577 184.303L122.826 185.909Z" fill="black"/>
<path d="M136.388 208.186C135.306 208.081 103.85 140.932 97.1887 118.426C90.5271 95.9202 95.6223 60.3682 98.8563 54.5602C101.452 49.9182 104.365 50.0898 104.365 50.0898C104.365 50.0898 105.091 43.6086 108.039 41.677C108.755 41.207 109.589 40.9486 110.445 40.9315C111.301 40.9143 112.145 41.1392 112.879 41.5802C117.041 36.7974 122.462 40.1722 122.81 45.0562C122.81 45.0562 127.421 40.027 131.522 48.233C135.623 56.439 139.719 82.9402 139.719 82.9402C139.719 82.9402 139.719 71.5486 147.366 71.9974C147.598 72.0125 147.82 72.1012 147.998 72.2508C148.176 72.4004 148.301 72.603 148.356 72.829L149.813 82.509C149.813 82.509 152.083 90.4818 153.619 93.1306C155.154 95.7794 157.909 121.176 156.888 123.491C155.867 125.805 147.903 144.109 147.151 147.814C146.398 151.519 146.895 154.172 148.431 156.288C149.967 158.405 170.207 186.477 170.207 186.477C170.207 186.477 160.474 210.571 136.388 208.186Z" fill="#AE7461"/>
<path d="M142.765 111.073C142.687 110.976 142.616 110.873 142.554 110.765C142.368 110.459 142.204 110.142 142.061 109.815C141.567 108.593 141.288 107.295 141.238 105.978C141.119 104.315 141.326 102.339 141.476 100.161C141.565 99.0233 141.572 97.8808 141.498 96.7421C141.379 95.5673 141.216 94.3397 141.058 93.0901C140.899 91.8405 140.662 90.6305 140.376 89.4777C140.069 88.3686 139.87 87.2325 139.782 86.0853C139.608 84.1427 139.675 82.1861 139.98 80.2597C140.184 78.9622 140.536 77.6925 141.031 76.4757C141.16 76.1453 141.307 75.8221 141.471 75.5077C141.52 75.3921 141.581 75.2815 141.652 75.1777C141.615 75.2968 141.569 75.4129 141.515 75.5253C141.427 75.7541 141.256 76.0709 141.11 76.5109C140.65 77.7302 140.324 78.9961 140.138 80.2861C139.857 82.1989 139.804 84.1381 139.98 86.0633C140.074 87.2004 140.276 88.326 140.582 89.4249C140.876 90.6238 141.108 91.8369 141.278 93.0593C141.449 94.3133 141.612 95.5321 141.718 96.7245C141.794 97.8736 141.783 99.0267 141.687 100.174C141.524 102.374 141.304 104.319 141.401 105.969C141.436 107.271 141.688 108.559 142.144 109.779C142.32 110.219 142.479 110.527 142.584 110.743C142.655 110.847 142.715 110.957 142.765 111.073Z" fill="#6F4439"/>
<path d="M126.539 122.075C126.539 122.001 126.548 121.927 126.565 121.855C126.601 121.688 126.64 121.485 126.689 121.239C126.737 120.992 126.816 120.64 126.922 120.266C127.027 119.892 127.124 119.461 127.287 118.995C127.45 118.528 127.599 118.018 127.815 117.481C128.031 116.944 128.255 116.377 128.519 115.783C129.107 114.503 129.782 113.265 130.539 112.078C131.31 110.9 132.16 109.776 133.082 108.712C133.522 108.237 133.931 107.77 134.349 107.392C134.767 107.014 135.15 106.618 135.515 106.296C135.88 105.975 136.228 105.694 136.531 105.447C136.786 105.232 137.052 105.031 137.328 104.844L137.843 104.484C137.901 104.439 137.965 104.4 138.032 104.369C138.032 104.369 137.983 104.426 137.869 104.519L137.381 104.915C137.165 105.082 136.901 105.289 136.611 105.544C136.32 105.799 135.977 106.076 135.625 106.424C135.273 106.772 134.877 107.119 134.481 107.537C134.085 107.955 133.676 108.417 133.24 108.857C132.34 109.919 131.507 111.036 130.745 112.201C129.993 113.377 129.318 114.602 128.726 115.866C128.462 116.452 128.202 117.01 128.004 117.547C127.806 118.084 127.613 118.581 127.454 119.043C127.296 119.505 127.173 119.923 127.058 120.297C126.944 120.671 126.856 120.988 126.79 121.252L126.627 121.864C126.609 121.938 126.579 122.009 126.539 122.075Z" fill="#6F4439"/>
<path d="M147.136 149.076C147.027 149.255 146.903 149.424 146.766 149.582C146.515 149.899 146.137 150.343 145.653 150.871C144.378 152.249 142.984 153.511 141.486 154.642C139.988 155.773 138.39 156.766 136.712 157.608C136.07 157.929 135.542 158.171 135.168 158.321C134.979 158.412 134.782 158.482 134.578 158.532C134.752 158.417 134.936 158.318 135.128 158.237C135.489 158.065 136.008 157.797 136.642 157.463C138.285 156.584 139.859 155.581 141.35 154.462C142.834 153.333 144.232 152.096 145.534 150.761C146.031 150.247 146.414 149.824 146.696 149.525C146.827 149.361 146.974 149.21 147.136 149.076Z" fill="#6F4439"/>
<path d="M133.345 182.561C133.3 182.493 133.262 182.421 133.231 182.345C133.151 182.178 133.05 181.971 132.931 181.716L131.853 179.384C130.938 177.422 129.653 174.729 128.069 171.812C126.485 168.895 124.989 166.312 123.872 164.459L122.53 162.259L122.169 161.661C122.124 161.593 122.086 161.521 122.055 161.445C122.113 161.502 122.165 161.565 122.209 161.635L122.605 162.211C122.948 162.713 123.427 163.447 124.008 164.363C125.17 166.193 126.71 168.763 128.272 171.689C129.834 174.615 131.123 177.321 132.003 179.305C132.443 180.295 132.786 181.1 133.015 181.663C133.116 181.927 133.204 182.143 133.27 182.315C133.308 182.392 133.333 182.475 133.345 182.561Z" fill="#6F4439"/>
<path d="M134.444 93.7207C133.613 94.0365 132.756 94.2823 131.884 94.4555C131.027 94.7004 130.151 94.8711 129.266 94.9659C130.099 94.6505 130.957 94.4047 131.831 94.2311C132.686 93.9865 133.56 93.8157 134.444 93.7207Z" fill="#6F4439"/>
<path d="M126.757 84.0925C126.739 84.0626 126.725 84.0299 126.718 83.9957L126.625 83.7097C126.546 83.4545 126.423 83.0805 126.286 82.5921C126.005 81.6197 125.626 80.2073 125.213 78.4429C124.154 73.8474 123.33 69.2008 122.744 64.5213C122.058 59.0345 121.772 54.0273 121.922 50.4017C121.957 48.9702 122.121 47.5448 122.41 46.1425C122.513 45.6257 122.678 45.1233 122.903 44.6465C122.901 44.6816 122.892 44.716 122.876 44.7477C122.853 44.8269 122.822 44.9237 122.784 45.0381C122.728 45.1917 122.682 45.349 122.648 45.5089C122.586 45.7232 122.536 45.9405 122.498 46.1601C122.242 47.5629 122.104 48.9847 122.084 50.4105C122.038 55.1189 122.332 59.8245 122.964 64.4905C123.651 69.9641 124.575 74.8789 125.362 78.4077C125.758 80.1677 126.11 81.5933 126.366 82.5701C126.489 83.0453 126.586 83.4193 126.66 83.6965C126.687 83.8153 126.713 83.9121 126.731 83.9913C126.748 84.0705 126.784 84.0925 126.757 84.0925Z" fill="#6F4439"/>
<path d="M119.924 92.2548C119.901 92.2168 119.88 92.1771 119.863 92.136L119.704 91.7796L119.119 90.3936C118.991 90.09 118.855 89.7512 118.701 89.386C118.547 89.0208 118.406 88.6116 118.261 88.176C117.94 87.296 117.548 86.3236 117.192 85.2104C117.003 84.656 116.809 84.0752 116.607 83.4504C116.404 82.8256 116.233 82.2052 116.03 81.5452C115.621 80.2252 115.269 78.8084 114.877 77.3124C114.147 74.3072 113.474 70.972 112.968 67.4388C112.462 63.9056 112.22 60.5088 112.088 57.42C112.053 55.8712 112 54.4016 112.035 53.02C112.035 52.3336 112.035 51.6692 112.066 51.0312C112.097 50.3932 112.123 49.7816 112.149 49.1964C112.185 48.0304 112.29 46.9744 112.361 46.0504C112.396 45.6104 112.435 45.1704 112.466 44.7612C112.497 44.352 112.554 44.0044 112.594 43.6788C112.669 43.0452 112.73 42.5436 112.774 42.1872L112.827 41.7956C112.83 41.7521 112.839 41.7092 112.853 41.668C112.857 41.7119 112.857 41.7561 112.853 41.8C112.853 41.9012 112.853 42.0288 112.823 42.1916C112.792 42.548 112.743 43.0716 112.686 43.6876C112.657 44.0132 112.622 44.374 112.581 44.77C112.554 45.166 112.523 45.5972 112.493 46.0592C112.435 46.9832 112.339 48.0392 112.312 49.2052C112.312 49.786 112.273 50.3976 112.246 51.0356C112.22 51.6736 112.246 52.3556 112.246 53.02C112.22 54.3928 112.277 55.858 112.321 57.42C112.457 60.5 112.726 63.888 113.201 67.4168C113.676 70.9456 114.371 74.2676 115.084 77.2728C115.471 78.7644 115.815 80.19 116.219 81.5012C116.413 82.1612 116.589 82.7992 116.783 83.4064C116.976 84.0136 117.165 84.5944 117.35 85.1664C117.693 86.2796 118.076 87.2652 118.384 88.1408L118.824 89.3552C118.969 89.7248 119.101 90.0636 119.225 90.3672L119.77 91.7708L119.907 92.136C119.917 92.1747 119.923 92.2146 119.924 92.2548Z" fill="#6F4439"/>
<path d="M106.861 94.9442C106.847 94.9059 106.836 94.866 106.831 94.8254C106.809 94.7286 106.787 94.6098 106.756 94.4646C106.699 94.1302 106.615 93.6638 106.505 93.0742C106.289 91.8686 106.003 90.1174 105.682 87.9482C105.361 85.779 105.018 83.1918 104.692 80.3098C104.367 77.4278 104.116 74.251 103.944 70.907C103.652 65.1987 103.718 59.4778 104.142 53.7778C104.314 51.5778 104.49 49.8178 104.648 48.6122C104.723 48.0182 104.785 47.5474 104.824 47.2086L104.877 46.8478C104.88 46.8057 104.889 46.7642 104.903 46.7246C104.909 46.7669 104.909 46.8099 104.903 46.8522C104.903 46.9446 104.903 47.0678 104.873 47.2174C104.837 47.5562 104.793 48.0226 104.736 48.621C104.604 49.8398 104.455 51.6042 104.296 53.791C103.925 59.4862 103.882 65.1981 104.169 70.8982C104.34 74.2334 104.609 77.4058 104.899 80.2878C105.189 83.1698 105.528 85.757 105.836 87.9262C106.144 90.0954 106.404 91.8466 106.589 93.061C106.681 93.655 106.747 94.1214 106.8 94.4558C106.8 94.6054 106.835 94.7242 106.848 94.821C106.858 94.8614 106.862 94.9028 106.861 94.9442Z" fill="#6F4439"/>
<path d="M138.759 88.6561L138.663 88.6869L138.368 88.7485L137.228 88.9729C136.238 89.1621 134.804 89.4393 133.039 89.8045C129.519 90.5217 124.644 91.5997 119.333 93.0341C116.693 93.7557 114.172 94.5081 111.902 95.2341C109.631 95.9601 107.607 96.6729 105.927 97.3285C105.082 97.6409 104.329 97.9445 103.665 98.2085C103.001 98.4725 102.429 98.7057 101.971 98.9125L100.902 99.3525L100.625 99.4625L100.523 99.4977C100.55 99.4765 100.58 99.4587 100.611 99.4449L100.884 99.3085L101.936 98.8157C102.376 98.5957 102.957 98.3493 103.617 98.0721C104.277 97.7949 105.029 97.4737 105.869 97.1481C107.546 96.4749 109.574 95.7665 111.836 95.0053C114.097 94.2441 116.619 93.5137 119.272 92.8053C124.591 91.3709 129.462 90.3193 133.009 89.6417C134.769 89.2941 136.216 89.0433 137.211 88.8805L138.359 88.7001L138.658 88.6605C138.692 88.6541 138.726 88.6527 138.759 88.6561Z" fill="#6F4439"/>
<path d="M151.285 160.041C151.285 160.041 155.734 162.184 157.142 165.031C158.55 167.877 158.317 169.963 158.317 169.963L157.951 172.387C157.174 175.162 155.797 177.732 153.917 179.916C148.685 185.722 141.599 189.53 133.87 190.691C131.949 190.997 129.992 190.997 128.071 190.691C124.758 190.133 122.399 188.764 120.793 186.085C120.085 185.059 118.079 181.143 118.039 180.527L118.778 181.847C120.947 184.879 122.738 185.565 125.488 186.203C128.238 186.841 131.283 186.551 134.099 185.873C140.701 184.273 146.607 180.578 150.933 175.34C152.693 173.215 154.167 170.764 154.568 168.04C154.55 168.049 155.421 163.605 151.285 160.041Z" fill="#B0BEC5"/>
<g opacity="0.2">
<path d="M141.599 95.3475C141.497 91.3875 138.919 86.3671 139.751 82.5039C138.461 84.1495 138.409 86.4639 138.8 88.5055C139.192 90.5471 139.975 92.5359 140.155 94.6171C140.336 96.6983 139.896 98.8675 139.795 100.997C139.693 103.127 140.023 105.428 141.467 106.994C141.005 103.004 141.713 99.8267 141.599 95.3475Z" fill="black"/>
</g>
<path d="M133.245 67.9325C133.009 68.1186 132.747 68.267 132.466 68.3725C131.808 68.6586 131.13 68.8954 130.437 69.0809C129.746 69.2813 129.04 69.4284 128.325 69.5209C128.035 69.5758 127.739 69.5891 127.445 69.5605C127.445 69.4901 128.765 69.3273 130.389 68.8741C132.013 68.4209 133.218 67.8709 133.245 67.9325Z" fill="#6F4439"/>
<path d="M131.283 56.9238C131.067 57.1599 130.809 57.3539 130.522 57.4958C129.167 58.2641 127.58 58.5187 126.052 58.213C125.743 58.1648 125.445 58.062 125.172 57.9094C126.209 58.1598 127.285 58.2015 128.338 58.0323C129.391 57.8631 130.399 57.4863 131.305 56.9238H131.283Z" fill="#6F4439"/>
<path d="M134.339 70.1133C133.332 70.4427 132.303 70.6986 131.259 70.8789C130.237 71.1338 129.197 71.3146 128.148 71.4201C129.155 71.0907 130.185 70.8348 131.228 70.6545C132.25 70.3967 133.29 70.2158 134.339 70.1133Z" fill="#6F4439"/>
<g opacity="0.2">
<path d="M134.745 69.1762C134.459 68.5602 133.689 68.3754 133.02 68.2698L132.716 68.1026C131.079 67.7342 129.364 67.9587 127.876 68.7362C127.482 68.9226 127.136 69.1965 126.864 69.537C126.732 69.7101 126.645 69.9132 126.61 70.1282C126.576 70.3431 126.595 70.5633 126.666 70.769C126.886 71.297 127.493 71.539 128.052 71.649C129.739 72.0396 131.502 71.9404 133.134 71.363C133.632 71.2144 134.085 70.9454 134.454 70.5798C134.628 70.3956 134.747 70.1669 134.798 69.9191C134.849 69.6713 134.831 69.4142 134.745 69.1762Z" fill="#6F4439"/>
</g>
<path d="M121.229 69.6922C120.992 69.8776 120.727 70.026 120.446 70.1322C119.789 70.4177 119.113 70.6545 118.422 70.8406C117.73 71.0402 117.024 71.1873 116.31 71.2806C116.02 71.3383 115.723 71.3517 115.43 71.3202C115.43 71.2498 116.772 71.0914 118.373 70.6382C119.975 70.185 121.198 69.6306 121.229 69.6922Z" fill="#6F4439"/>
<path d="M122.328 71.875C121.321 72.2044 120.292 72.4603 119.248 72.6406C118.224 72.8957 117.183 73.0781 116.133 73.1862C117.138 72.8515 118.168 72.5941 119.213 72.4162C120.237 72.1611 121.278 71.9802 122.328 71.875Z" fill="#6F4439"/>
<g opacity="0.2">
<path d="M122.739 70.9362C122.453 70.3202 121.678 70.1398 121.01 70.0298L120.71 69.8626C119.073 69.4938 117.358 69.7183 115.87 70.4962C115.476 70.6842 115.13 70.9596 114.858 71.3014C114.726 71.4737 114.639 71.6758 114.604 71.8899C114.568 72.104 114.586 72.3235 114.656 72.529C114.876 73.0614 115.488 73.299 116.046 73.409C117.732 73.7997 119.493 73.7005 121.124 73.123C121.623 72.9775 122.077 72.7081 122.444 72.3398C122.618 72.1561 122.738 71.9276 122.79 71.6798C122.842 71.432 122.824 71.1746 122.739 70.9362Z" fill="#6F4439"/>
</g>
<path d="M112.073 71.2802C111.837 71.4676 111.572 71.6162 111.289 71.7202C110.635 72.0167 109.958 72.2623 109.265 72.455C108.574 72.6546 107.868 72.8017 107.153 72.895C106.864 72.9528 106.567 72.9661 106.273 72.9346C106.273 72.8642 107.593 72.7058 109.217 72.2526C110.841 71.7994 112.042 71.2318 112.073 71.2802Z" fill="#6F4439"/>
<path d="M113.171 73.4805C112.164 73.8099 111.135 74.0658 110.091 74.2461C109.07 74.5038 108.032 74.689 106.984 74.8005C107.991 74.4683 109.02 74.2109 110.064 74.0305C111.085 73.7728 112.123 73.589 113.171 73.4805Z" fill="#6F4439"/>
<g opacity="0.2">
<path d="M113.583 72.5392C113.297 71.9232 112.522 71.7428 111.853 71.6328L111.554 71.47C109.917 71.0959 108.201 71.319 106.714 72.0992C106.32 72.2875 105.974 72.5628 105.702 72.9044C105.57 73.0766 105.483 73.2787 105.447 73.4928C105.412 73.707 105.43 73.9265 105.5 74.132C105.72 74.6644 106.331 74.902 106.89 75.034C108.575 75.4247 110.337 75.3254 111.968 74.748C112.468 74.605 112.923 74.3352 113.288 73.9648C113.466 73.779 113.588 73.5466 113.64 73.2944C113.693 73.0423 113.673 72.7805 113.583 72.5392Z" fill="#6F4439"/>
</g>
<path d="M153.967 94.4512C153.173 94.7263 152.356 94.9295 151.525 95.0584C150.71 95.2598 149.878 95.3865 149.039 95.4368C150.649 94.9622 152.298 94.6324 153.967 94.4512Z" fill="#6F4439"/>
<path d="M152.455 93.0655C152.112 93.2442 151.739 93.3562 151.355 93.3955C150.984 93.5066 150.595 93.5411 150.211 93.4967C150.553 93.3184 150.927 93.2078 151.311 93.1711C151.681 93.06 152.07 93.0241 152.455 93.0655Z" fill="#6F4439"/>
<g opacity="0.2">
<path d="M149.66 81.8402C149.37 82.2318 148.63 82.487 148.265 82.1614C147.928 81.804 147.705 81.3533 147.627 80.8678C147.11 78.8024 146.907 76.6709 147.024 74.545C147.014 74.1035 147.119 73.6668 147.328 73.2778C147.437 73.0854 147.609 72.9365 147.815 72.8563C148.021 72.7761 148.248 72.7696 148.459 72.8378L149.66 81.8402Z" fill="white"/>
</g>
<path opacity="0.2" d="M114.899 162.549C119.224 159.909 122.076 155.36 123.66 150.559C125.244 145.759 125.701 140.673 126.229 135.643C127.183 126.761 128.362 117.92 129.767 109.12C129.767 109.12 129.094 96.215 127.76 86.9618C126.427 77.7086 124.342 69.3618 123.607 69.8018C122.872 70.2418 113.047 158.506 113.047 158.506L114.899 162.549Z" fill="black"/>
<path opacity="0.2" d="M107.827 42.1465C108.405 43.3399 108.705 44.6485 108.707 45.9745C110.102 45.4953 111.615 45.4814 113.019 45.9349C114.423 46.3991 115.595 47.3852 116.292 48.6893C116.855 49.7761 117.018 51.0125 117.199 52.2093C117.722 55.691 118.435 59.1414 119.337 62.5449H112.099L105.618 54.2773L104.359 50.0929C105.05 46.1065 106.009 42.8813 107.827 42.1465Z" fill="black"/>
<path d="M103.749 198.166C103.749 198.166 109.909 195.526 102.662 193.564C95.4157 191.602 87.8125 192.719 87.8125 192.719L97.0965 197.889L103.749 198.166Z" fill="#B0BEC5"/>
<path opacity="0.3" d="M103.749 198.166C103.749 198.166 109.909 195.526 102.662 193.564C95.4157 191.602 87.8125 192.719 87.8125 192.719L97.0965 197.889L103.749 198.166Z" fill="black"/>
<path d="M41.7554 102.717C41.7554 102.717 36.8582 104.059 39.4542 108.763C41.355 112.208 43.3614 115.878 44.479 121.338C44.9718 123.767 47.867 126.684 48.8174 128.66C51.365 133.971 53.7234 138.388 57.547 142.85C61.3706 147.311 73.2638 155.17 73.0482 160.692C72.8326 166.214 57.6042 201.339 57.6042 201.339C69.5414 208.612 83.2782 210.949 97.9566 210.685C97.9566 210.685 108.517 172.369 110.004 166.425C111.491 160.481 117.295 155.491 121.118 146.572C124.942 137.653 126.147 118.373 126.574 103.131C126.931 90.371 124.093 76.4494 124.035 72.1594C124.028 70.4644 123.744 68.782 123.195 67.1786C122.28 64.5914 120.41 61.6214 116.648 61.8634C116.648 61.8634 116.692 50.2782 114.743 46.2786C114.025 44.8134 111.592 43.9334 109.727 44.3866C108.794 44.6237 107.912 45.0261 107.122 45.5746C107.122 45.5746 108.05 36.361 103.377 35.5118C101.248 35.1246 99.2238 35.437 98.005 37.2718C96.553 39.4718 95.9282 42.9918 95.6994 46.789C95.6994 46.789 95.2374 44.501 91.4886 44.501C89.0906 44.501 87.2162 46.2918 86.2086 50.0406C84.5366 56.4074 76.6166 93.3718 75.1734 98.0358C74.1746 101.309 66.4658 124.159 64.3406 124.159C62.2154 124.159 59.9934 122.245 58.7218 118.848C57.4502 115.451 50.8854 99.9542 41.7554 102.717Z" fill="#FFBF9D"/>
<path d="M85.6172 97.7768L85.6964 97.6624L85.9428 97.3368L86.8844 96.074C87.2892 95.524 87.7644 94.8464 88.3144 94.0412C88.9362 93.1411 89.4864 92.1937 89.96 91.2076C90.2177 90.6299 90.3825 90.0151 90.4484 89.386C90.554 88.7304 90.6244 88.0396 90.7036 87.3268C90.862 85.9012 90.9896 84.37 91.1436 82.764C91.412 79.5432 91.7068 76.0056 92.0236 72.292C92.1057 71.3621 92.1952 70.4454 92.292 69.542C92.3772 68.6551 92.5124 67.7737 92.6968 66.902C93.04 65.186 93.2732 63.5008 93.5196 61.908C93.9596 58.7136 94.3996 55.8404 94.7472 53.416C95.0948 50.9916 95.3632 49.0556 95.5568 47.696C95.658 47.036 95.7328 46.5124 95.7856 46.1428C95.812 45.9756 95.834 45.8392 95.8516 45.738C95.857 45.6915 95.8673 45.6458 95.8824 45.6016C95.8873 45.6484 95.8873 45.6956 95.8824 45.7424C95.8824 45.8436 95.8604 45.98 95.8428 46.1472C95.7988 46.5212 95.7372 47.0272 95.658 47.7092C95.482 49.082 95.218 51.0356 94.9188 53.4292C94.6196 55.8228 94.206 58.7356 93.7396 61.93C93.4976 63.5272 93.2688 65.2036 92.9256 66.9416C92.7426 67.8132 92.6104 68.6946 92.5296 69.5816C92.4284 70.4616 92.3448 71.3988 92.2612 72.3272C91.9444 76.0408 91.6452 79.574 91.3812 82.7948C91.236 84.4052 91.0996 85.932 90.9412 87.362C90.8576 88.0748 90.7784 88.7656 90.6728 89.4256C90.5997 90.0691 90.426 90.6971 90.158 91.2868C89.6711 92.2775 89.1061 93.228 88.4684 94.1292C87.9184 94.93 87.4168 95.5988 87.0032 96.1444C86.5896 96.69 86.2552 97.0992 86.0264 97.3764L85.7624 97.6888C85.6524 97.746 85.6216 97.7812 85.6172 97.7768Z" fill="#FF9A6C"/>
<path d="M117.537 61.7715C117.537 61.7715 117.502 61.7935 117.427 61.8243L117.092 61.9519C116.947 62.0091 116.784 62.1103 116.582 62.2159C116.361 62.3565 116.155 62.5186 115.966 62.6999C115.453 63.2058 115.058 63.8188 114.809 64.4951C114.475 65.3915 114.271 66.3307 114.202 67.2847C113.995 69.4055 114.202 71.9531 114.536 74.7647C114.69 76.1683 114.945 77.6291 114.976 79.1867C114.976 79.9567 114.976 80.7399 114.919 81.5407C114.848 82.3472 114.724 83.1482 114.549 83.9387C114.4 84.7395 114.25 85.5315 114.18 86.3147C114.109 87.0979 114.087 87.8811 114.083 88.6467C114.083 90.1823 114.14 91.6607 114.206 93.0731C114.272 94.4855 114.356 95.8231 114.422 97.0815C114.488 98.3399 114.461 99.5147 114.422 100.601C114.338 102.74 114.215 104.465 114.127 105.657C114.078 106.238 114.043 106.7 114.017 107.03L113.977 107.386C113.982 107.426 113.982 107.466 113.977 107.505C113.972 107.464 113.972 107.423 113.977 107.382V107.025C113.977 106.695 114.017 106.233 114.048 105.653C114.109 104.456 114.206 102.731 114.268 100.597C114.294 99.5279 114.32 98.3619 114.241 97.1079C114.162 95.8539 114.087 94.5119 114.004 93.0995C113.92 91.6871 113.867 90.2043 113.867 88.6643C113.867 87.8943 113.889 87.1067 113.96 86.3103C114.03 85.5139 114.18 84.7131 114.329 83.9123C114.506 83.1309 114.631 82.3386 114.703 81.5407C114.756 80.7531 114.76 79.9743 114.76 79.2043C114.73 77.6863 114.479 76.2123 114.32 74.8043C113.99 71.9971 113.806 69.4363 114.034 67.2935C114.115 66.327 114.334 65.3772 114.686 64.4731C114.951 63.7861 115.366 63.1669 115.9 62.6603C116.098 62.4802 116.313 62.3196 116.542 62.1807C116.754 62.0839 116.921 61.9871 117.07 61.9343L117.418 61.8243C117.454 61.8001 117.494 61.7823 117.537 61.7715Z" fill="#FF9A6C"/>
<path d="M102.411 99.0251C102.38 98.9643 102.353 98.901 102.332 98.8359C102.284 98.6995 102.218 98.5147 102.139 98.2815C101.963 97.7711 101.699 97.0407 101.391 96.0815C101.589 93.8815 101.897 90.5111 102.271 86.4015C102.363 85.3675 102.477 84.2895 102.561 83.1719C102.645 82.0543 102.689 80.8883 102.75 79.6915C102.788 78.4529 102.895 77.2175 103.071 75.9911C103.127 75.6736 103.198 75.3593 103.287 75.0495C103.327 74.8955 103.393 74.7415 103.445 74.5875L103.604 74.1475C103.775 73.5315 103.899 72.8935 104.017 72.2511C104.325 70.4119 104.537 68.5947 104.704 66.8391C104.871 65.0835 104.994 63.3851 105.047 61.7659C105.084 58.8863 105.287 56.0113 105.654 53.1551C105.867 51.234 106.177 49.3249 106.583 47.4351C106.686 46.9176 106.834 46.4098 107.023 45.9171C107.077 45.7897 107.144 45.6687 107.225 45.5563C107.254 45.5184 107.288 45.4844 107.326 45.4551C107.302 45.4958 107.274 45.5341 107.243 45.5695C107.174 45.686 107.115 45.8082 107.067 45.9347C106.892 46.4295 106.755 46.937 106.657 47.4527C106.371 48.7727 106.072 50.7571 105.799 53.1727C105.457 56.0233 105.271 58.8905 105.241 61.7615C105.192 63.3895 105.069 65.0879 104.906 66.8523C104.743 68.6167 104.537 70.4295 104.224 72.2819C104.111 72.9286 103.964 73.5689 103.784 74.2003C103.679 74.5215 103.56 74.8163 103.467 75.1111C103.381 75.4119 103.312 75.7175 103.261 76.0263C103.084 77.2425 102.975 78.4676 102.935 79.6959C102.873 80.8927 102.821 82.0587 102.737 83.1851C102.653 84.3115 102.526 85.3851 102.429 86.4147C102.015 90.5243 101.681 93.8947 101.457 96.0947L102.152 98.2947C102.227 98.5323 102.284 98.7347 102.323 98.8579C102.358 98.9107 102.387 98.9667 102.411 99.0251Z" fill="#FF9A6C"/>
<path d="M111.216 78.9354C111.216 78.9354 111.168 79.0234 111.014 79.0894C110.796 79.1585 110.568 79.1839 110.34 79.1642C109.604 79.1551 108.869 79.0948 108.14 78.9838C107.418 78.8762 106.704 78.7204 106.002 78.5174C105.703 78.455 105.415 78.3466 105.148 78.1962C105.17 78.1346 106.499 78.5086 108.176 78.755C109.012 78.8826 109.777 78.9574 110.332 79.0014C110.543 79.0352 110.758 79.0352 110.97 79.0014C111.132 78.9706 111.203 78.9222 111.216 78.9354Z" fill="#FF9A6C"/>
<path d="M112.259 81.4962C111.879 81.584 111.488 81.621 111.098 81.6062C109.21 81.6406 107.332 81.3336 105.554 80.6998C105.179 80.5847 104.821 80.4252 104.484 80.2246C104.865 80.3025 105.238 80.4099 105.602 80.5458C106.495 80.8109 107.403 81.0211 108.321 81.175C109.24 81.3242 110.167 81.4138 111.098 81.4434C111.486 81.4352 111.874 81.4528 112.259 81.4962Z" fill="#FF9A6C"/>
<path d="M112.258 76.4189C112.236 76.4849 110.691 76.0141 108.738 75.8469C106.784 75.6797 105.161 75.8469 105.156 75.7809C105.495 75.6789 105.845 75.6212 106.199 75.6093C107.051 75.5365 107.908 75.5365 108.76 75.6093C109.61 75.6835 110.452 75.8307 111.277 76.0493C111.619 76.1269 111.949 76.2513 112.258 76.4189Z" fill="#FF9A6C"/>
<path d="M122.872 88.9859C122.587 89.1252 122.283 89.2216 121.97 89.2719C121.222 89.4347 120.461 89.5261 119.695 89.5447C118.931 89.5641 118.166 89.5096 117.412 89.3819C117.094 89.3504 116.784 89.2687 116.492 89.1399C116.492 89.0695 117.922 89.3687 119.691 89.3159C121.46 89.2631 122.855 88.9155 122.872 88.9859Z" fill="#FF9A6C"/>
<path d="M121.115 87.8551C120.439 87.9313 119.758 87.9313 119.082 87.8551C118.402 87.8522 117.724 87.771 117.062 87.6131C117.738 87.5378 118.42 87.5378 119.095 87.6131C119.775 87.6176 120.453 87.6988 121.115 87.8551Z" fill="#FF9A6C"/>
<path d="M120.864 91.238C120.481 91.4245 120.058 91.5122 119.632 91.4932C119.209 91.5487 118.778 91.4926 118.383 91.3304C118.793 91.2664 119.209 91.2442 119.624 91.2644C120.035 91.2115 120.451 91.2027 120.864 91.238Z" fill="#FF9A6C"/>
<path d="M100.346 72.8767C99.4779 73.1254 98.5697 73.2046 97.6712 73.1099C96.7639 73.0918 95.8682 72.9022 95.0312 72.5511C95.0312 72.4807 96.2061 72.7975 97.6712 72.8811C99.1364 72.9647 100.338 72.8107 100.346 72.8767Z" fill="#FF9A6C"/>
<path d="M100.516 75.0364C100.212 75.2005 99.8836 75.3149 99.5435 75.3752C97.914 75.7646 96.2104 75.7145 94.6067 75.23C94.2699 75.1522 93.9486 75.0184 93.6562 74.834C94.7717 75.1406 95.916 75.3308 97.0707 75.4016C98.2284 75.395 99.3825 75.2726 100.516 75.0364Z" fill="#FF9A6C"/>
<path d="M101.77 70.7949C101.744 70.8257 101.436 70.5617 100.864 70.2845C100.107 69.9323 99.3042 69.6908 98.479 69.5673C97.5154 69.4045 96.6222 69.3033 95.9842 69.1625C95.6346 69.1164 95.2946 69.0154 94.9766 68.8633C95.3255 68.8866 95.6724 68.9337 96.015 69.0041C96.6486 69.1009 97.5374 69.1757 98.5186 69.3429C99.3648 69.468 100.183 69.7374 100.939 70.1393C101.261 70.2937 101.545 70.5176 101.77 70.7949Z" fill="#FF9A6C"/>
<path d="M85.8583 75.5214C84.5759 75.7912 83.2512 75.7912 81.9688 75.5214C82.6156 75.4669 83.2655 75.4581 83.9135 75.495C84.5616 75.4582 85.2115 75.467 85.8583 75.5214Z" fill="#FF9A6C"/>
<path d="M87.3497 77.5625C87.155 77.7051 86.9311 77.8028 86.6941 77.8485C86.137 78.0078 85.5618 78.095 84.9825 78.1081C84.1699 78.1537 83.3549 78.0825 82.5625 77.8969C82.5625 77.8177 83.6537 77.8969 84.9737 77.8969C85.773 77.8459 86.5673 77.7341 87.3497 77.5625Z" fill="#FF9A6C"/>
<g opacity="0.2">
<path d="M94.418 47.5858C94.4436 48.6147 94.2672 49.6387 93.8988 50.5998C93.5116 51.6118 93.142 52.2014 92.3104 52.637C91.7483 52.9164 91.1134 53.0148 90.4932 52.9186C90.1501 52.8961 89.8158 52.8009 89.5124 52.6393C89.2089 52.4777 88.9433 52.2534 88.7332 51.9814C88.354 51.3233 88.1298 50.5875 88.0776 49.8298C87.8916 49.0426 87.9144 48.2206 88.1436 47.445C88.3546 46.9556 88.707 46.5404 89.1556 46.2526C90.5416 45.3022 91.9848 45.4782 93.582 45.9886C93.7385 46.0437 93.8799 46.135 93.9946 46.2551C94.1092 46.3751 94.194 46.5204 94.242 46.6794C94.3464 46.9708 94.4057 47.2764 94.418 47.5858Z" fill="white"/>
</g>
<g opacity="0.2">
<path d="M113.496 47.5858C113.523 48.6144 113.348 49.6384 112.981 50.5998C112.59 51.6118 112.225 52.2014 111.389 52.637C110.828 52.9164 110.195 53.0148 109.576 52.9186C109.233 52.8955 108.899 52.8001 108.595 52.6385C108.292 52.477 108.026 52.253 107.816 51.9814C107.437 51.3233 107.212 50.5875 107.16 49.8298C106.979 49.0422 107.001 48.2213 107.226 47.445C107.439 46.9564 107.791 46.5416 108.238 46.2526C109.629 45.3022 111.067 45.4782 112.669 45.9886C112.825 46.0452 112.965 46.1371 113.08 46.2569C113.194 46.3767 113.279 46.5212 113.329 46.6794C113.432 46.9707 113.489 47.2767 113.496 47.5858Z" fill="white"/>
</g>
<g opacity="0.2">
<path d="M115.159 65.9158C115.132 66.9445 115.307 67.9685 115.674 68.9298C116.065 69.9418 116.435 70.5314 117.267 70.967C117.827 71.2462 118.461 71.3445 119.079 71.2486C119.422 71.2256 119.756 71.1302 120.06 70.9686C120.363 70.8071 120.629 70.5831 120.839 70.3114C121.219 69.6534 121.443 68.9175 121.495 68.1598C121.676 67.3723 121.654 66.5514 121.429 65.775C121.218 65.2858 120.865 64.8706 120.417 64.5826C119.031 63.6322 117.588 63.8082 115.986 64.3186C115.831 64.3747 115.69 64.4664 115.576 64.5863C115.463 64.7062 115.378 64.8512 115.331 65.0094C115.226 65.3005 115.168 65.6065 115.159 65.9158Z" fill="white"/>
</g>
<g opacity="0.2">
<path d="M105.332 39.2081C105.37 40.3013 105.171 41.3898 104.747 42.3981C104.307 43.4717 103.867 44.0877 102.894 44.5497C102.224 44.8395 101.487 44.937 100.765 44.8313C100.369 44.8088 99.9826 44.7087 99.6262 44.5365C99.2698 44.3644 98.9509 44.1236 98.6877 43.8281C98.2419 43.1414 97.9715 42.3557 97.9001 41.5401C97.7593 40.6997 97.6229 39.7801 97.9617 39.0145C98.2164 38.4851 98.6282 38.0472 99.1409 37.7605C100.765 36.7617 102.459 36.9597 104.342 37.5141C104.519 37.5683 104.682 37.6628 104.817 37.7903C104.952 37.9177 105.056 38.0747 105.121 38.2489C105.243 38.5548 105.314 38.8789 105.332 39.2081Z" fill="white"/>
</g>
<path d="M63.3476 128.659C63.2872 128.427 63.2678 128.186 63.2904 127.946C63.2825 127.365 63.3296 126.785 63.4312 126.213C63.5283 125.635 63.728 125.079 64.0208 124.572C64.254 124.184 64.4608 123.995 64.4608 124.013C64.369 124.231 64.2616 124.443 64.1396 124.646C63.9011 125.159 63.731 125.7 63.6336 126.257C63.418 127.564 63.418 128.664 63.3476 128.659Z" fill="#FF9A6C"/>
<path d="M74.6666 151.743C74.6226 151.791 72.1234 149.512 69.0786 146.657C66.0338 143.801 63.605 141.447 63.649 141.403C63.693 141.359 66.1922 143.634 69.237 146.489C72.2818 149.345 74.7106 151.699 74.6666 151.743Z" fill="#FF9A6C"/>
<path d="M50.2578 119.322C50.2842 119.388 49.1974 119.762 48.0182 120.523C46.839 121.285 46.025 122.09 45.9766 122.037C46.4925 121.343 47.1454 120.762 47.895 120.33C48.6044 119.834 49.409 119.491 50.2578 119.322Z" fill="#FF9A6C"/>
<path d="M52.9197 118.359C53.0271 118.767 52.9686 119.2 52.7569 119.565C52.5655 119.967 52.3229 120.343 52.0353 120.683C51.6974 121.106 51.336 121.51 50.9529 121.893C50.256 122.584 49.4859 123.198 48.6561 123.723C48.3241 123.96 47.9614 124.151 47.5781 124.291C47.8946 124.039 48.2252 123.805 48.5681 123.591C49.3504 123.031 50.0862 122.408 50.7681 121.73C51.4701 121.067 52.0825 120.316 52.5897 119.495C52.7748 119.142 52.887 118.756 52.9197 118.359Z" fill="#FF9A6C"/>
<path d="M47.8618 116.652C47.3852 117.161 46.8719 117.635 46.3262 118.069C45.8316 118.563 45.3022 119.02 44.7422 119.438C45.1406 118.858 45.6225 118.341 46.1722 117.902C46.6717 117.406 47.2409 116.985 47.8618 116.652Z" fill="#FF9A6C"/>
<path opacity="0.2" d="M42.4088 112.748C42.62 112.819 46.756 110.306 46.2632 108.841C45.7704 107.376 42.9412 103.438 41.4232 103.596C39.9052 103.755 39.1528 105.062 39.2892 106.738C39.4256 108.414 42.4088 112.748 42.4088 112.748Z" fill="white"/>
<g opacity="0.2">
<path d="M90.7335 87.5943L93.6551 60.4199C90.9227 68.8635 90.0999 78.6447 90.7335 87.5943Z" fill="black"/>
</g>
<g opacity="0.2">
<path d="M101.756 91.3698C101.533 82.0536 102.594 72.7511 104.91 63.7246C105.108 66.171 104.448 70.4302 103.819 73.343C103.494 74.8434 103.115 75.1646 102.992 76.423C102.204 84.4398 102.38 86.3538 101.756 91.383" fill="black"/>
</g>
<path opacity="0.4" d="M64.3154 202.892C64.3154 202.892 78.303 164.172 77.7134 157.699C77.1238 151.227 73.2694 150.435 69.1554 146.572C65.0414 142.708 49.4962 129.931 49.3906 129.852C51.727 134.639 54.0062 138.735 57.5438 142.858C61.363 147.32 73.2606 155.178 73.045 160.7C72.8294 166.222 57.601 201.347 57.601 201.347L64.3154 202.892Z" fill="#FF9A6C"/>
<g opacity="0.4">
<path d="M114.29 101.45C112.811 91.857 112.712 82.1016 113.996 72.4805C114.596 75.0063 114.821 77.6067 114.664 80.1981C114.519 82.6181 114.04 85.0073 113.82 87.4185C113.463 91.3081 113.784 95.2197 114.106 99.1049" fill="#FF9A6C"/>
</g>
<g opacity="0.2">
<path d="M109.29 75.8899C108.606 75.4445 107.776 75.2816 106.974 75.4355C106.172 75.5894 105.461 76.0481 104.991 76.7153C104.52 77.3824 104.327 78.206 104.451 79.0129C104.575 79.8199 105.007 80.5473 105.656 81.0423C106.496 81.5986 107.478 81.9038 108.485 81.9223C109.236 82.0176 109.999 81.9729 110.733 81.7903C111.104 81.6993 111.452 81.5322 111.755 81.2997C112.058 81.0671 112.31 80.7743 112.493 80.4396C112.678 79.9736 112.741 79.4681 112.674 78.9712C112.608 78.4743 112.416 78.0027 112.115 77.6015C111.694 76.9933 111.129 76.4991 110.47 76.1635C109.811 75.8278 109.079 75.6613 108.34 75.6787" fill="#FF9A6C"/>
</g>
<g opacity="0.2">
<path d="M86.4543 74.3587C85.7702 73.9132 84.94 73.7503 84.1382 73.9042C83.3364 74.0581 82.6255 74.5169 82.155 75.184C81.6844 75.8511 81.4907 76.6747 81.6147 77.4817C81.7388 78.2886 82.1708 79.0161 82.82 79.5111C83.6602 80.0673 84.6416 80.3726 85.6491 80.3911C86.4018 80.4862 87.1655 80.4415 87.9019 80.2591C88.2686 80.1647 88.6119 79.9956 88.9102 79.7625C89.2085 79.5293 89.4554 79.237 89.6355 78.9039C89.822 78.4393 89.8855 77.9344 89.82 77.4381C89.7545 76.9417 89.5622 76.4707 89.2615 76.0703C88.8408 75.4611 88.2749 74.9663 87.6151 74.6306C86.9552 74.2949 86.2221 74.1289 85.4819 74.1475" fill="#FF9A6C"/>
</g>
<g opacity="0.2">
<path d="M98.4637 69.4487C97.1129 68.3399 95.0977 68.8371 94.1693 70.5091C93.2409 72.1811 93.5533 74.7551 94.8293 76.0003C95.6165 76.6878 96.6143 77.0867 97.6585 77.1311C98.4125 77.2506 99.1841 77.1918 99.9113 76.9595C100.306 76.8133 100.664 76.5845 100.963 76.2886C101.262 75.9927 101.495 75.6364 101.645 75.2435C101.833 74.6491 101.896 74.0223 101.831 73.4023C101.766 72.7823 101.574 72.1823 101.267 71.6399C100.444 70.0911 98.9653 69.1363 97.4913 69.2023" fill="#FF9A6C"/>
</g>
<g opacity="0.2">
<path d="M120.479 86.4232C119.795 85.9566 118.954 85.7779 118.139 85.9256C117.324 86.0732 116.6 86.5354 116.123 87.2124C115.646 87.8894 115.454 88.7268 115.589 89.544C115.724 90.3611 116.175 91.0924 116.844 91.58C117.687 92.135 118.669 92.4401 119.678 92.46C120.429 92.5552 121.192 92.5105 121.926 92.328C122.293 92.2337 122.637 92.0652 122.936 91.8328C123.234 91.6005 123.483 91.3093 123.664 90.9772C123.849 90.5113 123.912 90.0057 123.845 89.5088C123.779 89.0119 123.587 88.5404 123.286 88.1392C122.864 87.5314 122.298 87.0379 121.638 86.703C120.979 86.3682 120.246 86.2025 119.506 86.2208" fill="#FF9A6C"/>
</g>
<g opacity="0.3">
<path d="M93.9545 49.9401C93.9545 49.9401 93.9545 50.0765 93.8753 50.3097C93.7753 50.6377 93.6487 50.9571 93.4969 51.2645C93.2766 51.7357 92.9656 52.1588 92.5817 52.5097C92.0939 52.9334 91.4677 53.1636 90.8217 53.1565C90.1723 53.1474 89.5477 52.9054 89.0617 52.4745C88.6737 52.123 88.3828 51.6775 88.2169 51.1809C88.1018 50.8516 88.0452 50.5046 88.0497 50.1557C88.0394 50.0273 88.0574 49.8981 88.1025 49.7773C88.127 50.2363 88.2159 50.6895 88.3665 51.1237C88.5476 51.5814 88.834 51.9899 89.2025 52.3161C89.658 52.7053 90.2359 52.9218 90.8349 52.9277C91.4251 52.9383 91.9996 52.7369 92.4541 52.3601C92.8263 52.0348 93.1338 51.6422 93.3605 51.2029C93.7741 50.4417 93.9193 49.9225 93.9545 49.9401Z" fill="white"/>
</g>
<g opacity="0.3">
<path d="M105.061 40.9193C105.061 41.0684 105.038 41.2167 104.995 41.3593C104.901 41.7741 104.768 42.1792 104.599 42.5693C104.347 43.155 103.989 43.689 103.543 44.1445C102.982 44.709 102.25 45.0725 101.461 45.1785C101.067 45.2423 100.664 45.2203 100.279 45.114C99.8939 45.0077 99.5363 44.8196 99.2307 44.5625C98.761 44.1204 98.423 43.5569 98.2539 42.9345C98.1312 42.5276 98.0429 42.111 97.9899 41.6893C97.9604 41.5446 97.9486 41.3969 97.9547 41.2493C98.0031 41.2493 98.0779 41.9049 98.3947 42.9037C98.5753 43.4876 98.9079 44.013 99.3583 44.4261C99.6434 44.6575 99.9744 44.8258 100.329 44.9199C100.684 45.0139 101.055 45.0316 101.417 44.9717C102.159 44.8742 102.848 44.5374 103.38 44.0125C103.818 43.5821 104.175 43.077 104.436 42.5209C104.902 41.5441 105.017 40.8841 105.061 40.9193Z" fill="#FF9A6C"/>
</g>
<g opacity="0.3">
<path d="M113.577 49.0859C113.604 49.0859 113.384 49.6051 113.137 50.4763C113 50.9942 112.801 51.4936 112.543 51.9635C112.376 52.2576 112.15 52.5138 111.879 52.716C111.608 52.9183 111.298 53.062 110.968 53.1383C110.308 53.2874 109.616 53.2035 109.01 52.9007C108.529 52.6464 108.112 52.2851 107.791 51.8447C107.579 51.5527 107.407 51.2329 107.281 50.8943C107.224 50.7742 107.189 50.6443 107.18 50.5115C107.392 50.9426 107.641 51.3547 107.923 51.7435C108.24 52.1493 108.643 52.4799 109.102 52.7115C109.667 52.9799 110.305 53.0512 110.915 52.9139C111.217 52.8453 111.501 52.7153 111.75 52.5321C111.999 52.3489 112.208 52.1165 112.363 51.8491C112.62 51.3975 112.828 50.9196 112.983 50.4235C113.107 49.9482 113.308 49.4964 113.577 49.0859Z" fill="white"/>
</g>
<g opacity="0.3">
<path d="M121.722 67.1426C121.74 67.2695 121.74 67.3985 121.722 67.5254C121.688 67.8719 121.633 68.2158 121.555 68.555C121.445 69.0656 121.248 69.5537 120.974 69.9982C120.616 70.549 120.084 70.9643 119.463 71.178C118.842 71.3916 118.167 71.3914 117.546 71.1774C117.045 70.9971 116.605 70.68 116.275 70.2622C116.05 69.9886 115.883 69.6729 115.782 69.3338C115.734 69.2137 115.713 69.0845 115.72 68.9554C115.876 69.3917 116.105 69.798 116.398 70.1566C116.756 70.5785 117.234 70.8814 117.768 71.0252C118.303 71.169 118.868 71.1469 119.39 70.9618C119.965 70.7675 120.46 70.3885 120.798 69.8838C121.071 69.4618 121.273 68.9981 121.396 68.511C121.603 67.675 121.682 67.1382 121.722 67.1426Z" fill="white"/>
</g>
<path d="M42.7871 104.28C42.7871 104.315 42.5143 104.183 42.0743 104.117C41.5027 104.032 40.9186 104.13 40.4067 104.399C39.9035 104.684 39.5054 105.124 39.2715 105.653C39.0911 106.062 39.0647 106.348 39.0295 106.343C38.9814 106.089 39.0137 105.826 39.1219 105.591C39.3258 104.996 39.7449 104.498 40.2969 104.196C40.8489 103.894 41.4939 103.809 42.1051 103.959C42.3589 103.997 42.5959 104.109 42.7871 104.28Z" fill="#FF9A6C"/>
<path d="M62.6792 188.096L57.6016 201.34C79.4872 214.945 100.136 210.703 100.136 210.703L105.799 196.786C91.4772 198.502 76.5128 196.24 62.6792 188.096Z" fill="#B0BEC5"/>
<path opacity="0.2" d="M69.4676 200.688C69.2471 201.191 68.8824 201.617 68.4195 201.913C67.9567 202.209 67.4165 202.36 66.8674 202.349C66.3183 202.338 65.7849 202.164 65.3346 201.849C64.8844 201.535 64.5376 201.094 64.3381 200.582C64.1386 200.07 64.0953 199.511 64.2138 198.974C64.3323 198.438 64.6071 197.949 65.0036 197.569C65.4002 197.189 65.9005 196.935 66.4413 196.839C66.9822 196.744 67.5392 196.811 68.042 197.032C68.7157 197.328 69.2443 197.879 69.5116 198.565C69.7789 199.25 69.7631 200.014 69.4676 200.688Z" fill="black"/>
<path d="M69.7012 198.483C69.7021 199.032 69.54 199.569 69.2355 200.027C68.9309 200.484 68.4976 200.84 67.9904 201.051C67.4831 201.262 66.9247 201.318 66.3859 201.211C65.847 201.104 65.3519 200.84 64.9632 200.452C64.5745 200.064 64.3096 199.569 64.2021 199.031C64.0946 198.492 64.1493 197.933 64.3594 197.426C64.5694 196.918 64.9252 196.484 65.3819 196.179C65.8386 195.874 66.3755 195.711 66.9248 195.711C67.6604 195.711 68.3659 196.003 68.8865 196.523C69.407 197.042 69.7001 197.747 69.7012 198.483Z" fill="white"/>
<path d="M69.1674 198.523C69.1499 198.342 69.1205 198.163 69.0794 197.986C69.001 197.692 68.8625 197.417 68.6724 197.179C68.4824 196.941 68.245 196.745 67.9754 196.604C67.7057 196.462 67.4096 196.378 67.1058 196.357C66.8021 196.336 66.4972 196.378 66.2106 196.481C65.861 196.612 65.5512 196.831 65.3109 197.117C65.0707 197.403 64.9081 197.746 64.8389 198.113C64.7697 198.48 64.7962 198.858 64.9158 199.212C65.0354 199.566 65.2442 199.883 65.5219 200.132C65.7996 200.382 66.1369 200.556 66.5014 200.637C66.8658 200.719 67.245 200.705 67.6025 200.597C67.96 200.489 68.2837 200.291 68.5424 200.022C68.8011 199.752 68.986 199.421 69.0794 199.059C69.1208 198.883 69.1502 198.703 69.1674 198.523C69.1793 198.706 69.1615 198.89 69.1146 199.068C68.9995 199.563 68.7166 200.003 68.3138 200.313C67.9797 200.571 67.5803 200.729 67.1608 200.771C66.7413 200.813 66.3184 200.736 65.9401 200.55C65.5619 200.364 65.2433 200.075 65.0205 199.717C64.7978 199.36 64.6797 198.946 64.6797 198.525C64.6797 198.103 64.7978 197.69 65.0205 197.332C65.2433 196.974 65.5619 196.686 65.9401 196.5C66.3184 196.313 66.7413 196.237 67.1608 196.279C67.5803 196.321 67.9797 196.479 68.3138 196.736C68.7282 197.047 69.0196 197.494 69.1366 197.999C69.1738 198.171 69.1842 198.348 69.1674 198.523Z" fill="#263238"/>
<path d="M66.8287 198.241C67.1009 198.241 67.3215 198.021 67.3215 197.749C67.3215 197.476 67.1009 197.256 66.8287 197.256C66.5566 197.256 66.3359 197.476 66.3359 197.749C66.3359 198.021 66.5566 198.241 66.8287 198.241Z" fill="#263238"/>
<path d="M67.5012 199.478C67.5003 199.575 67.4707 199.67 67.416 199.75C67.3613 199.831 67.2841 199.893 67.194 199.93C67.1038 199.966 67.0049 199.976 66.9096 199.956C66.8143 199.937 66.7269 199.889 66.6584 199.82C66.5899 199.751 66.5434 199.663 66.5248 199.568C66.5061 199.472 66.5161 199.373 66.5536 199.284C66.591 199.194 66.6541 199.117 66.7351 199.063C66.816 199.009 66.9111 198.98 67.0084 198.98C67.0735 198.98 67.1379 198.993 67.198 199.018C67.2581 199.043 67.3126 199.08 67.3584 199.126C67.4043 199.173 67.4405 199.227 67.465 199.288C67.4895 199.348 67.5018 199.413 67.5012 199.478Z" fill="#263238"/>
</svg>
