<svg width="331" height="220" viewBox="0 0 331 220" fill="none" xmlns="http://www.w3.org/2000/svg">
<path d="M83.3265 31.498H42.9609V90.0093H83.3265V31.498Z" fill="#E0E0E0"/>
<path d="M81.3031 31.498H40.9375V90.0093H81.3031V31.498Z" fill="#F5F5F5"/>
<path d="M76.2911 37.832H45.9531V83.6668H76.2911V37.832Z" fill="white"/>
<path d="M76.2839 83.6734C76.2839 83.6734 76.2839 83.5942 76.2839 83.449C76.2839 83.3038 76.2839 83.0794 76.2839 82.7978C76.2839 82.2214 76.2839 81.3766 76.2839 80.2854C76.2839 78.0854 76.2838 74.8866 76.253 70.843C76.253 62.7602 76.2267 51.3114 76.2047 37.843L76.3059 37.9442H45.9723L46.0823 37.8342C46.0823 55.1262 46.0823 71.0674 46.0823 83.6734L45.9943 83.5854L68.0779 83.6294L74.1763 83.6514H75.7779H76.3323H75.7955H74.2114H68.1307L45.9943 83.6954H45.9062V83.6074C45.9062 71.0014 45.9062 55.0602 45.9062 37.7682V37.6582H46.0207H76.3543H76.4555V37.8386C76.4555 51.3466 76.4159 62.813 76.4071 70.9134C76.4071 74.9482 76.3851 78.1382 76.3763 80.3294C76.3763 81.4162 76.3763 82.2522 76.3763 82.8242C76.3763 83.1014 76.3763 83.317 76.3763 83.4622C76.3763 83.6074 76.2839 83.6734 76.2839 83.6734Z" fill="#E0E0E0"/>
<path d="M81.4209 31.498C81.2122 31.8722 80.9708 32.227 80.6993 32.5584C80.2329 33.1832 79.5641 34.0368 78.8073 34.9608C78.0505 35.8848 77.3377 36.6988 76.8097 37.2796C76.5443 37.6078 76.2498 37.9111 75.9297 38.186C76.1576 37.8291 76.4152 37.4921 76.6997 37.1784L78.6445 34.82L80.5805 32.4484C80.8332 32.1084 81.1143 31.7905 81.4209 31.498Z" fill="#E0E0E0"/>
<path d="M76.4375 83.5234C77.944 85.9148 79.7151 88.1288 81.7175 90.1234L76.4375 83.5234Z" fill="white"/>
<path d="M81.7351 90.141C81.3965 89.8965 81.0866 89.6146 80.8111 89.3006C80.1076 88.5855 79.4409 87.835 78.8135 87.0522C78.0831 86.1326 77.4715 85.257 77.0535 84.6102C76.8131 84.269 76.6068 83.905 76.4375 83.5234C76.7096 83.8376 76.9582 84.1714 77.1811 84.5222C77.6211 85.147 78.2547 86.0006 78.9807 86.9114C79.7067 87.8222 80.4107 88.623 80.9211 89.195C81.2147 89.4905 81.4868 89.8066 81.7351 90.141Z" fill="#E0E0E0"/>
<path d="M40.9297 89.9603L46.2097 83.4395L40.9297 89.9603Z" fill="white"/>
<path d="M46.2185 83.4395C45.4221 84.5925 44.5674 85.7043 43.6577 86.7703C42.8064 87.8819 41.8958 88.9468 40.9297 89.9603C41.7261 88.8072 42.5808 87.6954 43.4905 86.6295C44.3418 85.5178 45.2524 84.4529 46.2185 83.4395Z" fill="#E0E0E0"/>
<path d="M40.9375 31.498C41.8496 32.477 42.7074 33.5052 43.5071 34.578C44.3635 35.6023 45.1626 36.6731 45.9007 37.7856C44.9901 36.8065 44.1338 35.7783 43.3355 34.7056C42.478 33.6812 41.6774 32.6104 40.9375 31.498Z" fill="#E0E0E0"/>
<path d="M66.8393 47.1406H56.6797V75.9826H66.8393V47.1406Z" fill="#E0E0E0"/>
<path d="M137.751 22.9707V48.5963H100.949L99.625 23.1511L137.751 22.9707Z" fill="#E0E0E0"/>
<path d="M99.6172 23.1491V48.5371H136.419V23.1491L99.6172 23.1491Z" fill="white"/>
<path d="M136.595 48.7146H99.4453V22.9746H136.595V48.7146ZM99.7973 48.367H136.247V23.3178H99.7973V48.367Z" fill="#E0E0E0"/>
<path d="M132.438 26.3047H103.609V45.3831H132.438V26.3047Z" fill="white"/>
<path d="M132.443 26.3063H131.888H130.304H124.364L103.614 26.3987L103.698 26.3151C103.698 32.1451 103.698 38.6043 103.698 45.3935L103.61 45.3055H132.438L132.364 45.3759C132.364 39.5723 132.394 34.8159 132.403 31.4939C132.403 29.8395 132.403 28.5459 132.403 27.6571C132.403 27.2171 132.403 26.8827 132.403 26.6495C132.403 26.4163 132.403 26.2975 132.403 26.2975C132.403 26.2975 132.403 26.4075 132.403 26.6319C132.403 26.8563 132.403 27.1951 132.403 27.6263C132.403 28.5063 132.403 29.7999 132.425 31.4499C132.425 34.7763 132.447 39.5547 132.46 45.3759V45.4507H132.39H103.561H103.469V45.3583C103.469 38.5691 103.469 32.1099 103.469 26.2799V26.2227H103.552L124.36 26.2623L130.282 26.2887H131.849H132.381L132.443 26.3063Z" fill="#E0E0E0"/>
<path d="M99.625 23.082C99.8525 23.1914 100.065 23.3289 100.259 23.4912C100.633 23.764 101.139 24.1512 101.702 24.5912C102.265 25.0312 102.74 25.4712 103.083 25.766C103.28 25.9254 103.457 26.107 103.611 26.3072C102.91 25.817 102.235 25.2912 101.587 24.732C100.899 24.2242 100.243 23.6731 99.625 23.082Z" fill="#E0E0E0"/>
<path d="M136.424 23.1523C135.819 23.7478 135.172 24.2992 134.488 24.8023C133.841 25.3516 133.156 25.8544 132.438 26.3071C133.043 25.7117 133.69 25.1603 134.374 24.6571C135.02 24.1068 135.705 23.6038 136.424 23.1523Z" fill="#E0E0E0"/>
<path d="M136.394 48.5432L132.289 45.2168L136.394 48.5432Z" fill="white"/>
<path d="M132.289 45.2168C133.027 45.7008 133.733 46.2329 134.401 46.8096C135.104 47.3421 135.77 47.9213 136.394 48.5432C135.655 48.062 134.951 47.5298 134.287 46.9504C133.581 46.4201 132.913 45.8408 132.289 45.2168Z" fill="#E0E0E0"/>
<path d="M99.625 48.5395C100.223 47.9514 100.863 47.4073 101.539 46.9115C102.179 46.3671 102.857 45.8687 103.567 45.4199C102.971 46.0115 102.332 46.5572 101.653 47.0523C101.014 47.5963 100.336 48.0933 99.625 48.5395Z" fill="#E0E0E0"/>
<path d="M109.461 32.2518V38.6406H127.602V32.2518H109.461Z" fill="#E0E0E0"/>
<path d="M287.677 137.793C287.677 137.793 284.373 136.253 281.781 143.997C279.19 151.741 278.42 156.101 278.42 156.101C278.42 156.101 277.676 157.755 276.493 156.924C275.309 156.092 273.474 153.509 271.789 154.284C270.104 155.058 269.743 157.205 270.539 160.149C271.336 163.093 272.845 169.6 272.977 170.19C273.109 170.779 272.902 171.681 272.009 171.246C271.116 170.81 265.651 166.3 263.649 169.015C261.647 171.73 265.229 179.575 265.603 180.429C265.977 181.282 265.858 181.705 265.462 181.991C265.066 182.277 263.381 180.587 261.775 179.351C260.169 178.114 258.096 177.001 257.08 178.664C256.063 180.327 256.591 186.527 263.926 195.626L267.6 199.617L272.937 198.513C284.215 195.455 288.28 190.747 288.434 188.802C288.588 186.857 286.234 186.558 284.232 186.602C282.23 186.646 279.859 187.02 279.709 186.553C279.559 186.087 279.709 185.673 280.51 185.233C281.311 184.793 288.804 180.503 288.795 177.137C288.786 173.771 281.715 174.22 280.734 174.057C279.753 173.895 280.123 173.023 280.567 172.632C281.011 172.24 286.063 167.849 288.434 165.935C290.806 164.021 291.818 162.125 290.867 160.457C289.917 158.789 286.951 159.859 285.508 159.837C284.065 159.815 284.43 158.037 284.43 158.037C284.43 158.037 286.366 154.077 288.83 146.267C291.294 138.457 287.607 137.784 287.607 137.784" fill="#EBEBEB"/>
<path d="M266.914 200.723C268.736 195.003 272.141 184.905 275.023 176.215C277.905 167.525 280.506 159.663 282.358 153.96C283.278 151.109 284.021 148.803 284.558 147.202C284.818 146.41 284.998 145.789 285.156 145.363C285.224 145.16 285.277 145.002 285.315 144.887C285.35 144.777 285.372 144.725 285.372 144.725C285.372 144.725 285.372 144.782 285.328 144.892C285.284 145.002 285.249 145.165 285.187 145.371C285.055 145.811 284.866 146.423 284.62 147.219C284.127 148.825 283.401 151.14 282.486 153.995C280.664 159.715 278.086 167.583 275.204 176.268C272.322 184.954 268.894 195.056 267.042 200.759" fill="#E0E0E0"/>
<path d="M274.219 157.994C274.292 158.103 274.355 158.218 274.408 158.337C274.522 158.562 274.676 158.896 274.848 159.305C275.222 160.128 275.728 161.277 276.216 162.553C276.705 163.829 277.167 164.951 277.536 165.822C277.69 166.213 277.827 166.548 277.932 166.812C277.992 166.929 278.037 167.053 278.064 167.181C277.991 167.073 277.928 166.958 277.875 166.838C277.761 166.614 277.607 166.284 277.435 165.87C277.07 165.043 276.599 163.89 276.089 162.614C275.578 161.338 275.121 160.221 274.769 159.354L274.364 158.364C274.3 158.247 274.251 158.123 274.219 157.994Z" fill="#E0E0E0"/>
<path d="M278.578 167.197C278.556 167.153 280.879 166.053 283.766 164.733C286.652 163.413 289.002 162.383 289.046 162.427C289.09 162.471 286.74 163.571 283.854 164.887C280.967 166.202 278.578 167.245 278.578 167.197Z" fill="#E0E0E0"/>
<path d="M273.539 180.346C273.668 180.304 273.8 180.278 273.935 180.266L275.013 180.108C275.919 179.976 277.178 179.787 278.555 179.523C279.932 179.259 281.169 178.99 282.075 178.779L283.135 178.537C283.264 178.497 283.397 178.474 283.531 178.467C283.41 178.522 283.283 178.566 283.153 178.599C282.907 178.674 282.55 178.779 282.106 178.898C281.226 179.136 279.976 179.43 278.586 179.69C277.195 179.95 275.946 180.13 275.026 180.227C274.586 180.28 274.199 180.315 273.939 180.332C273.807 180.348 273.673 180.353 273.539 180.346Z" fill="#E0E0E0"/>
<path d="M267.773 172.879C267.869 172.958 267.954 173.048 268.029 173.147L268.675 173.922C269.217 174.577 269.951 175.493 270.757 176.509C271.562 177.525 272.288 178.449 272.803 179.127L273.405 179.932C273.484 180.028 273.554 180.131 273.612 180.24C273.516 180.162 273.43 180.072 273.357 179.972L272.71 179.202C272.169 178.542 271.434 177.631 270.625 176.615C269.815 175.598 269.098 174.67 268.583 173.997L267.98 173.191C267.899 173.096 267.83 172.991 267.773 172.879Z" fill="#E0E0E0"/>
<path d="M261.852 183.918C261.97 184.022 262.078 184.139 262.173 184.266C262.393 184.521 262.67 184.855 263.004 185.251C263.704 186.087 264.654 187.253 265.702 188.547C266.749 189.84 267.686 191.015 268.342 191.873L269.134 192.89C269.234 193.012 269.324 193.143 269.402 193.281C269.286 193.174 269.179 193.058 269.081 192.934L268.249 191.948C267.554 191.108 266.599 189.946 265.552 188.652C264.505 187.359 263.568 186.184 262.912 185.326C262.595 184.917 262.327 184.574 262.124 184.305C262.021 184.185 261.93 184.056 261.852 183.918Z" fill="#E0E0E0"/>
<path d="M269.336 193.004C269.497 192.955 269.662 192.919 269.829 192.894L271.188 192.648C272.337 192.437 273.921 192.138 275.659 191.768C277.397 191.398 278.963 191.011 280.094 190.725L281.436 190.391C281.599 190.342 281.765 190.307 281.933 190.285C281.779 190.355 281.618 190.411 281.454 190.452C281.141 190.549 280.688 190.686 280.134 190.84C279.007 191.156 277.445 191.557 275.703 191.931C273.96 192.305 272.372 192.591 271.219 192.771C270.643 192.864 270.172 192.93 269.851 192.969C269.681 192.997 269.508 193.009 269.336 193.004Z" fill="#E0E0E0"/>
<path d="M297.494 200.566C297.494 200.627 237.042 200.68 162.493 200.68C87.9438 200.68 27.4922 200.64 27.4922 200.566C27.4922 200.491 87.9306 200.451 162.511 200.451C237.091 200.451 297.494 200.504 297.494 200.566Z" fill="#263238"/>
<path d="M214.937 47.4408L210.75 51.0215L216.338 57.5557L220.525 53.9749L214.937 47.4408Z" fill="#263238"/>
<path d="M218.555 46.9306L209.94 54.3314L203.898 47.2914C206.274 43.9562 209.108 41.4394 212.5 39.8906L218.555 46.9306Z" fill="#455A64"/>
<path d="M211.392 53.092C211.344 53.136 209.887 51.5344 208.136 49.5236C206.385 47.5128 205.003 45.8496 205.056 45.8056C205.109 45.7616 206.561 47.3632 208.312 49.374C210.063 51.3848 211.441 53.0524 211.392 53.092Z" fill="#263238"/>
<path d="M213.024 51.685C212.676 51.3463 212.352 50.9831 212.056 50.5982C211.475 49.9162 210.688 48.9702 209.821 47.9142L207.621 45.2038L206.961 44.381C206.802 44.1786 206.719 44.0862 206.719 44.073C206.807 43.9938 208.272 45.6614 210.006 47.769C210.886 48.825 211.642 49.7886 212.206 50.497C212.513 50.8681 212.787 51.2657 213.024 51.685Z" fill="#263238"/>
<path d="M215.225 49.8045C214.871 49.4669 214.543 49.1037 214.243 48.7177C213.658 48.0269 212.866 47.0633 211.995 45.9941L209.795 43.2397L209.135 42.3993C209.05 42.2991 208.973 42.1917 208.906 42.0781C209.284 42.3905 209.624 42.7464 209.918 43.1385C210.512 43.8205 211.313 44.7797 212.18 45.8489C213.047 46.9181 213.825 47.8993 214.38 48.6165C214.694 48.9881 214.977 49.3855 215.225 49.8045Z" fill="#263238"/>
<path d="M217.203 48.0467C217.155 48.0863 215.707 46.4715 213.969 44.4387C212.231 42.4059 210.867 40.7207 210.915 40.6767C210.964 40.6327 212.407 42.2519 214.145 44.2891C215.883 46.3263 217.251 48.0071 217.203 48.0467Z" fill="#263238"/>
<path d="M288.665 51.8889L284.859 47.9062L278.644 53.8462L282.45 57.8289L288.665 51.8889Z" fill="#263238"/>
<path d="M288.849 55.8053L281.008 47.5993L287.709 41.1973C291.159 43.3973 293.825 46.0945 295.545 49.4033L288.849 55.8053Z" fill="#455A64"/>
<path d="M282.313 48.979C282.269 48.9306 283.787 47.3906 285.706 45.5382C287.624 43.6858 289.226 42.2206 289.257 42.2646C289.287 42.3086 287.783 43.8486 285.864 45.7054C283.946 47.5622 282.357 49.023 282.313 48.979Z" fill="#263238"/>
<path d="M283.812 50.5406C284.125 50.1711 284.467 49.8268 284.833 49.511C285.48 48.895 286.387 48.0546 287.394 47.1306L289.986 44.7854L290.773 44.0814C290.963 43.9142 291.055 43.8306 291.068 43.8262C291.152 43.9098 289.563 45.463 287.548 47.3022C286.54 48.2218 285.616 49.0622 284.939 49.6298C284.588 49.9625 284.211 50.267 283.812 50.5406Z" fill="#263238"/>
<path d="M285.805 52.6202C286.121 52.2472 286.467 51.9 286.839 51.5818C287.494 50.9614 288.414 50.1166 289.439 49.1926L292.079 46.843L292.884 46.139C292.983 46.0515 293.085 45.9692 293.192 45.8926C292.901 46.2874 292.565 46.6463 292.189 46.9618C291.538 47.591 290.618 48.4402 289.598 49.3642C288.577 50.2882 287.635 51.1242 286.958 51.705C286.597 52.0392 286.212 52.3452 285.805 52.6202Z" fill="#263238"/>
<path d="M287.665 54.5187C287.621 54.4703 289.161 52.9435 291.101 51.0999C293.042 49.2563 294.652 47.8043 294.696 47.8527C294.74 47.9011 293.2 49.4279 291.26 51.2671C289.319 53.1063 287.709 54.5583 287.665 54.5187Z" fill="#263238"/>
<path d="M253.536 32.875H247.016V43.0522H253.536V32.875Z" fill="#263238"/>
<path d="M257.014 35.9197H243.594V24.9505C248.297 23.7889 252.785 23.7185 257.027 24.9505L257.014 35.9197Z" fill="#B0BEC5"/>
<path d="M257.188 24.9936C257.031 25.092 256.865 25.1745 256.691 25.24C256.232 25.4424 255.76 25.6158 255.279 25.7592C254.558 25.9813 253.823 26.1547 253.079 26.2784C252.175 26.4219 251.262 26.4984 250.346 26.5072C249.432 26.5086 248.518 26.4409 247.614 26.3048C246.87 26.1895 246.135 26.0234 245.414 25.8076C244.932 25.6667 244.459 25.4977 243.997 25.3016C243.822 25.241 243.656 25.1598 243.5 25.0596C243.5 25.02 244.239 25.3236 245.458 25.6492C246.173 25.8383 246.899 25.9852 247.632 26.0892C248.527 26.2104 249.43 26.2721 250.333 26.274C251.237 26.2637 252.14 26.1932 253.035 26.0628C253.764 25.9573 254.487 25.8104 255.2 25.6228C256.449 25.2664 257.171 24.954 257.188 24.9936Z" fill="#263238"/>
<path d="M248.036 35.8896C247.975 35.8896 247.922 33.782 247.922 31.186C247.922 28.59 247.975 26.4824 248.036 26.4824C248.098 26.4824 248.151 28.5856 248.151 31.186C248.151 33.7864 248.102 35.8896 248.036 35.8896Z" fill="#263238"/>
<path d="M250.591 35.9507C250.529 35.9507 250.477 33.8343 250.477 31.2251C250.477 28.6159 250.529 26.5039 250.591 26.5039C250.653 26.5039 250.705 28.6159 250.705 31.2251C250.705 33.8343 250.657 35.9507 250.591 35.9507Z" fill="#263238"/>
<path d="M253.153 35.9102C253.092 35.9102 253.039 33.7938 253.039 31.1846C253.039 28.5754 253.092 26.459 253.153 26.459C253.215 26.459 253.268 28.5754 253.268 31.1846C253.268 33.7938 253.219 35.9102 253.153 35.9102Z" fill="#263238"/>
<path d="M255.263 35.9102C255.197 35.9102 255.148 33.6222 255.148 30.8018C255.148 27.9814 255.197 25.6934 255.263 25.6934C255.329 25.6934 255.377 27.9814 255.377 30.8018C255.377 33.6222 255.342 35.9102 255.263 35.9102Z" fill="#263238"/>
<path d="M245.622 35.8457C245.561 35.8457 245.508 33.5577 245.508 30.7373C245.508 27.9169 245.561 25.6289 245.622 25.6289C245.684 25.6289 245.737 27.9169 245.737 30.7373C245.737 33.5577 245.688 35.8457 245.622 35.8457Z" fill="#263238"/>
<path d="M283.037 120.896C301.566 102.368 301.566 72.3273 283.037 53.7988C264.509 35.2703 234.468 35.2703 215.939 53.7988C197.411 72.3273 197.411 102.368 215.939 120.896C234.468 139.425 264.509 139.425 283.037 120.896Z" fill="#B0BEC5"/>
<path d="M249.487 126.82C271.494 126.82 289.333 108.98 289.333 86.9734C289.333 64.9668 271.494 47.127 249.487 47.127C227.48 47.127 209.641 64.9668 209.641 86.9734C209.641 108.98 227.48 126.82 249.487 126.82Z" fill="#FAFAFA"/>
<path d="M289.331 86.9723C289.331 86.9723 289.331 86.7567 289.3 86.3299C289.269 85.9031 289.3 85.2651 289.216 84.4335C289.059 82.0072 288.679 79.6005 288.081 77.2439C287.65 75.5429 287.105 73.873 286.449 72.2455C285.678 70.305 284.751 68.4303 283.677 66.6399C281.049 62.2657 277.615 58.4299 273.557 55.3363C268.631 51.5891 262.898 49.0456 256.815 47.9091C251.658 46.9604 246.367 47.0216 241.234 48.0895C239.432 48.4807 237.656 48.9878 235.919 49.6075C228.526 52.3004 222.096 57.1215 217.439 63.4631C216.224 65.1145 215.141 66.8594 214.201 68.6815C213.712 69.5923 213.294 70.5383 212.881 71.4887C212.467 72.4391 212.097 73.4247 211.785 74.4279C211.11 76.4355 210.603 78.496 210.271 80.5879C209.937 82.7029 209.762 84.8399 209.748 86.9811C209.763 89.1235 209.937 91.2618 210.267 93.3787C210.604 95.4696 211.11 97.5297 211.781 99.5387C212.097 100.537 212.493 101.505 212.876 102.473C213.259 103.441 213.721 104.374 214.196 105.285C215.136 107.108 216.221 108.853 217.439 110.503C222.095 116.847 228.525 121.67 235.919 124.363C237.656 124.983 239.432 125.49 241.234 125.881C242.992 126.249 244.772 126.497 246.563 126.625C249.99 126.884 253.436 126.695 256.815 126.062C262.898 124.925 268.631 122.382 273.557 118.635C277.616 115.542 281.05 111.706 283.677 107.331C284.75 105.54 285.677 103.666 286.449 101.725C288.011 97.8352 288.946 93.7212 289.216 89.5375C289.291 88.7059 289.278 88.0679 289.3 87.6411C289.322 87.2143 289.331 86.9943 289.331 86.9943C289.331 86.9943 289.331 87.2143 289.331 87.6411C289.331 88.0679 289.331 88.7059 289.269 89.5375C289.028 93.7329 288.111 97.8619 286.554 101.765C285.788 103.714 284.864 105.598 283.791 107.397C281.169 111.793 277.735 115.65 273.671 118.762C268.728 122.532 262.972 125.094 256.863 126.242C253.47 126.884 250.007 127.079 246.563 126.823C244.763 126.695 242.974 126.447 241.208 126.079C239.394 125.689 237.609 125.181 235.862 124.557C228.425 121.854 221.956 117.008 217.272 110.631C216.049 108.972 214.96 107.218 214.016 105.386C213.523 104.471 213.101 103.512 212.669 102.557C212.238 101.602 211.886 100.612 211.569 99.6047C210.894 97.5874 210.385 95.5184 210.047 93.4183C209.349 89.1582 209.349 84.8128 210.047 80.5527C210.387 78.4615 210.896 76.4015 211.569 74.3927C211.891 73.3851 212.287 72.4127 212.674 71.4403C213.061 70.4679 213.523 69.5307 214.016 68.6155C214.964 66.7845 216.054 65.0308 217.276 63.3707C221.959 56.9946 228.426 52.1499 235.862 49.4491C237.607 48.8259 239.392 48.3173 241.203 47.9267C242.971 47.5594 244.762 47.311 246.563 47.1831C250.005 46.9274 253.467 47.1226 256.859 47.7639C262.97 48.9073 268.727 51.4693 273.667 55.2439C277.73 58.3577 281.165 62.2161 283.787 66.6135C285.758 69.9329 287.239 73.5191 288.187 77.2615C288.774 79.6264 289.14 82.0405 289.282 84.4731C289.348 85.3047 289.326 85.9427 289.344 86.3695C289.361 86.7963 289.331 86.9723 289.331 86.9723Z" fill="#263238"/>
<path d="M283.492 85.528C282.229 85.5808 281.2 85.528 281.195 85.418C281.191 85.308 282.207 85.1584 283.47 85.088C284.733 85.0176 285.763 85.0616 285.771 85.1936C285.78 85.3256 284.746 85.4752 283.492 85.528Z" fill="#263238"/>
<path d="M282.638 94.7038C281.405 94.4134 280.438 94.0922 280.438 93.9822C280.438 93.8722 281.485 94.0042 282.721 94.2726C283.958 94.541 284.921 94.8666 284.921 94.9942C284.921 95.1218 283.861 94.9898 282.638 94.7038Z" fill="#263238"/>
<path d="M279.354 103.307C278.241 102.699 277.387 102.123 277.44 102.026C277.493 101.929 278.443 102.33 279.561 102.906C280.678 103.483 281.536 104.077 281.475 104.191C281.413 104.305 280.463 103.918 279.354 103.307Z" fill="#263238"/>
<path d="M273.874 110.715C272.968 109.835 272.294 109.052 272.374 108.955C272.453 108.858 273.254 109.514 274.178 110.385C275.102 111.256 275.766 112.035 275.678 112.145C275.59 112.255 274.776 111.599 273.874 110.715Z" fill="#263238"/>
<path d="M266.615 116.389C265.982 115.294 265.542 114.361 265.638 114.304C265.735 114.246 266.342 115.082 266.994 116.165C267.645 117.247 268.085 118.18 267.975 118.25C267.865 118.321 267.253 117.476 266.615 116.389Z" fill="#263238"/>
<path d="M258.099 119.908C257.782 118.68 257.611 117.664 257.721 117.637C257.831 117.611 258.187 118.574 258.526 119.793C258.865 121.012 259.032 122.028 258.904 122.064C258.777 122.099 258.416 121.131 258.099 119.908Z" fill="#263238"/>
<path d="M248.948 120.997C248.948 119.73 249.076 118.705 249.186 118.705C249.296 118.705 249.388 119.735 249.388 120.997C249.388 122.26 249.278 123.29 249.151 123.29C249.023 123.29 248.926 122.269 248.948 120.997Z" fill="#263238"/>
<path d="M239.863 119.62C240.224 118.405 240.602 117.45 240.712 117.481C240.822 117.512 240.629 118.524 240.272 119.743C239.916 120.962 239.551 121.943 239.423 121.881C239.295 121.82 239.48 120.834 239.863 119.62Z" fill="#263238"/>
<path d="M231.447 115.832C232.12 114.763 232.741 113.94 232.837 113.997C232.934 114.054 232.476 114.983 231.821 116.065C231.165 117.147 230.541 117.966 230.431 117.9C230.321 117.834 230.774 116.905 231.447 115.832Z" fill="#263238"/>
<path d="M224.36 109.936C225.297 109.082 226.12 108.457 226.19 108.541C226.261 108.624 225.583 109.39 224.659 110.257C223.735 111.124 222.921 111.748 222.829 111.656C222.736 111.564 223.427 110.789 224.36 109.936Z" fill="#263238"/>
<path d="M219.119 102.359C220.25 101.791 221.209 101.408 221.257 101.505C221.306 101.602 220.443 102.161 219.321 102.75C218.199 103.34 217.244 103.723 217.183 103.604C217.121 103.485 217.992 102.931 219.119 102.359Z" fill="#263238"/>
<path d="M216.107 93.6562C217.352 93.4098 218.377 93.2998 218.399 93.4098C218.421 93.5198 217.436 93.8234 216.199 94.0874C214.963 94.3514 213.933 94.4614 213.907 94.3338C213.88 94.2062 214.875 93.9026 216.107 93.6562Z" fill="#263238"/>
<path d="M215.543 84.4783C216.806 84.5707 217.823 84.7379 217.818 84.8479C217.814 84.9579 216.78 84.9887 215.517 84.9139C214.254 84.8391 213.233 84.6763 213.242 84.5443C213.251 84.4123 214.281 84.3639 215.543 84.4783Z" fill="#263238"/>
<path d="M217.455 75.4435C218.648 75.8835 219.58 76.3235 219.545 76.4159C219.51 76.5083 218.507 76.2707 217.31 75.8571C216.113 75.4435 215.18 75.0123 215.22 74.8891C215.26 74.7659 216.267 75.0123 217.455 75.4435Z" fill="#263238"/>
<path d="M221.725 67.281C222.754 68.0158 223.537 68.6846 223.485 68.777C223.432 68.8694 222.525 68.359 221.483 67.6418C220.44 66.9246 219.657 66.2558 219.723 66.1458C219.789 66.0358 220.691 66.5462 221.725 67.281Z" fill="#263238"/>
<path d="M228.022 60.5583C228.819 61.5395 229.395 62.3931 229.311 62.4679C229.228 62.5427 228.493 61.8079 227.683 60.8355C226.874 59.8631 226.293 59.0139 226.394 58.9303C226.495 58.8467 227.226 59.5771 228.022 60.5583Z" fill="#263238"/>
<path d="M235.905 55.7621C236.407 56.9237 236.737 57.9005 236.631 57.9621C236.525 58.0237 236.024 57.1085 235.505 55.9557C234.985 54.8029 234.655 53.8261 234.774 53.7557C234.893 53.6853 235.39 54.6049 235.905 55.7621Z" fill="#263238"/>
<path d="M244.76 53.2686C244.932 54.5226 244.985 55.5522 244.87 55.5698C244.756 55.5874 244.514 54.5842 244.325 53.3346C244.136 52.085 244.083 51.051 244.21 51.0334C244.338 51.0158 244.589 52.0146 244.76 53.2686Z" fill="#263238"/>
<path d="M253.975 53.2389C253.808 54.4929 253.584 55.5005 253.474 55.4873C253.364 55.4741 253.39 54.4401 253.54 53.1861C253.689 51.9321 253.914 50.9201 254.041 50.9377C254.169 50.9553 254.142 51.9805 253.975 53.2389Z" fill="#263238"/>
<path d="M262.862 55.6705C262.365 56.8365 261.876 57.7429 261.771 57.6989C261.665 57.6549 261.977 56.6737 262.457 55.4989C262.937 54.3241 263.429 53.4221 263.548 53.4749C263.667 53.5277 263.363 54.5089 262.862 55.6705Z" fill="#263238"/>
<path d="M270.766 60.4094C269.974 61.3994 269.261 62.143 269.173 62.0726C269.085 62.0022 269.644 61.1354 270.423 60.1366C271.202 59.1378 271.91 58.3766 272.016 58.4778C272.121 58.579 271.545 59.4238 270.766 60.4094Z" fill="#263238"/>
<path d="M277.109 67.0897C276.079 67.8289 275.195 68.3569 275.129 68.2645C275.063 68.1721 275.833 67.4901 276.849 66.7333C277.866 65.9765 278.75 65.4529 278.829 65.5585C278.909 65.6641 278.139 66.3505 277.109 67.0897Z" fill="#263238"/>
<path d="M281.438 75.2372C280.25 75.6772 279.238 75.9368 279.211 75.8356C279.185 75.7344 280.092 75.2768 281.284 74.8236C282.476 74.3704 283.458 74.102 283.506 74.2252C283.554 74.3484 282.626 74.7972 281.438 75.2372Z" fill="#263238"/>
<path d="M283.426 84.2235C282.163 84.3247 281.134 84.3159 281.125 84.2235C281.116 84.1311 282.128 83.9287 283.387 83.7835C284.645 83.6383 285.679 83.6735 285.688 83.8055C285.697 83.9375 284.676 84.1223 283.426 84.2235Z" fill="#263238"/>
<path d="M234.02 43.8652L233.883 43.9268L233.478 44.0896C233.126 44.2392 232.598 44.4196 231.925 44.7144C230.028 45.5074 228.186 46.4261 226.412 47.4644C225.286 48.1156 224.093 48.8944 222.839 49.77C221.585 50.6456 220.305 51.6664 219.024 52.8148C213.403 57.7698 209.109 64.0512 206.533 71.088C205.93 72.6984 205.477 74.2736 205.085 75.7476C204.694 77.2216 204.43 78.6296 204.232 79.9144C203.91 81.9444 203.724 83.9934 203.673 86.048C203.638 86.7784 203.673 87.3416 203.673 87.7244C203.673 87.9092 203.673 88.05 203.673 88.1644C203.677 88.2142 203.677 88.2642 203.673 88.314C203.667 88.2658 203.667 88.2171 203.673 88.1688C203.673 88.0588 203.673 87.9136 203.673 87.7288C203.673 87.346 203.624 86.7828 203.646 86.0524C203.662 83.9901 203.825 81.9315 204.135 79.8924C204.32 78.5988 204.606 77.1952 204.962 75.7036C205.36 74.1181 205.838 72.5541 206.396 71.0176C208.96 63.9337 213.279 57.6161 218.95 52.6564C220.239 51.508 221.55 50.518 222.791 49.616C224.032 48.714 225.255 47.966 226.394 47.3236C228.181 46.296 230.038 45.3962 231.952 44.6308C232.625 44.3492 233.166 44.1908 233.527 44.0456L233.94 43.9048C233.966 43.8897 233.992 43.8765 234.02 43.8652Z" fill="white"/>
<path d="M247.258 41.2958C246.806 41.3898 246.347 41.4501 245.885 41.4762C245.032 41.5642 243.861 41.6918 242.568 41.859C241.274 42.0262 240.108 42.2022 239.263 42.3342C238.811 42.4273 238.352 42.4861 237.891 42.5102C238.328 42.3577 238.779 42.2457 239.237 42.1758C240.077 42.0042 241.243 41.8018 242.537 41.6346C243.831 41.4674 245.014 41.3618 245.872 41.3134C246.333 41.2642 246.797 41.2583 247.258 41.2958Z" fill="white"/>
<g opacity="0.4">
<path d="M217.641 110.925C217.641 110.925 238.29 143.511 270.322 126.822C303.762 109.398 285.282 69.459 285.282 69.459C285.282 69.459 301.016 101.289 268.421 122.039C260.303 127.209 251.463 127.213 244.723 126.536C227.497 124.811 217.641 110.925 217.641 110.925Z" fill="black"/>
</g>
<path d="M260.592 65.7949C260.79 71.639 260.614 77.4898 260.064 83.3113C259.861 85.4189 259.624 87.5485 258.81 89.5065C257.996 91.4645 256.61 93.2597 254.656 94.0869C252.703 94.9141 250.203 94.5709 248.844 92.9517L260.592 65.7949Z" fill="#E0E0E0"/>
<path d="M248.617 83.8301L263.098 59.4453L254.359 86.9761L249.893 88.3093L248.617 83.8301Z" fill="#B0BEC5"/>
<g opacity="0.4">
<path d="M263.1 59.4453L252.359 84.3625L254.361 86.9761L263.1 59.4453Z" fill="black"/>
</g>
<path d="M249.894 92.9696C252.467 92.9696 254.554 90.8834 254.554 88.31C254.554 85.7366 252.467 83.6504 249.894 83.6504C247.321 83.6504 245.234 85.7366 245.234 88.31C245.234 90.8834 247.321 92.9696 249.894 92.9696Z" fill="#FAFAFA"/>
<path d="M254.55 88.3093C254.508 87.9305 254.445 87.5545 254.361 87.1829C254.091 86.1793 253.493 85.2949 252.662 84.6705C252.052 84.2113 251.336 83.9124 250.581 83.8009C249.825 83.6895 249.054 83.7691 248.337 84.0325C247.924 84.1785 247.537 84.3878 247.189 84.6529C246.818 84.9219 246.492 85.2487 246.225 85.6209C245.653 86.4005 245.345 87.3423 245.345 88.3093C245.345 89.2762 245.653 90.218 246.225 90.9977C246.759 91.7226 247.493 92.2761 248.337 92.5905C248.939 92.8113 249.581 92.9038 250.221 92.8621C250.861 92.8205 251.485 92.6455 252.053 92.3484C252.622 92.0514 253.122 91.6389 253.521 91.1373C253.921 90.6356 254.211 90.0561 254.374 89.4357C254.459 89.0642 254.522 88.6881 254.563 88.3093C254.59 88.695 254.556 89.0826 254.462 89.4577C254.221 90.5068 253.624 91.4399 252.772 92.0977C252.188 92.5511 251.505 92.8602 250.779 92.9997C249.944 93.1593 249.081 93.0925 248.28 92.8061C247.845 92.6559 247.436 92.4376 247.07 92.1593C246.681 91.878 246.339 91.5364 246.058 91.1473C245.452 90.3317 245.125 89.3428 245.125 88.3269C245.125 87.3109 245.452 86.322 246.058 85.5065C246.34 85.1184 246.682 84.7769 247.07 84.4945C247.438 84.2201 247.846 84.0035 248.28 83.8521C249.08 83.5635 249.944 83.4966 250.779 83.6585C251.666 83.829 252.486 84.2518 253.139 84.8761C253.792 85.5004 254.251 86.2998 254.462 87.1785C254.55 87.5485 254.579 87.9301 254.55 88.3093Z" fill="#263238"/>
<path d="M253.312 89.007C253.692 87.1301 252.478 85.3009 250.601 84.9215C248.724 84.542 246.895 85.7559 246.515 87.6328C246.136 89.5097 247.35 91.3389 249.227 91.7183C251.103 92.0978 252.933 90.8839 253.312 89.007Z" fill="#455A64"/>
<path d="M213.164 200.151H236.088L225.4 108.041L213.164 200.151Z" fill="#E0E0E0"/>
<path d="M100.362 108.041L85.4375 201.237L212.796 202.896L225.397 108.041H100.362Z" fill="#FAFAFA"/>
<path d="M219.724 150.734H93.5234L96.269 133.574H222.003L219.724 150.734Z" fill="#EBEBEB"/>
<path d="M219.731 150.746H93.5078L96.2578 133.586H222.014L219.731 150.746ZM93.5342 150.724H219.713L221.988 133.564H96.2798L93.5342 150.724Z" fill="#263238"/>
<path d="M100.365 108.041L96.2734 133.574H222.008L225.4 108.041H100.365Z" fill="#B0BEC5"/>
<path d="M100.382 108.041L225.417 107.936H225.535V108.054C221.853 135.823 217.673 167.314 213.255 200.573V200.674H211.724L85.5451 200.639H85.4219V200.529L100.382 108.041C100.259 108.807 94.5739 144.539 85.6551 200.573L85.5627 200.463H211.693H213.123L213.013 200.56C217.435 167.3 221.624 135.814 225.333 108.046L225.434 108.16L100.382 108.041Z" fill="#263238"/>
<path d="M222.008 133.575C222.008 133.637 193.848 133.69 159.145 133.69C124.442 133.69 96.2734 133.637 96.2734 133.575C96.2734 133.514 124.433 133.461 159.145 133.461C193.857 133.461 222.008 133.509 222.008 133.575Z" fill="#263238"/>
<path d="M219.724 150.735C219.724 150.801 191.414 150.85 156.505 150.85C121.595 150.85 93.2812 150.801 93.2812 150.735C93.2812 150.669 121.582 150.621 156.505 150.621C191.428 150.621 219.724 150.674 219.724 150.735Z" fill="#263238"/>
<path d="M217.159 166.527C217.159 166.593 188.854 166.641 153.944 166.641C119.035 166.641 90.7031 166.593 90.7031 166.527C90.7031 166.461 119.004 166.412 153.927 166.412C188.85 166.412 217.159 166.465 217.159 166.527Z" fill="#263238"/>
<path d="M214.591 182.318C214.591 182.379 186.282 182.432 151.372 182.432C116.462 182.432 88.1484 182.379 88.1484 182.318C88.1484 182.256 116.449 182.203 151.372 182.203C186.295 182.203 214.591 182.256 214.591 182.318Z" fill="#263238"/>
<path d="M103.322 200.701C103.26 200.701 105.57 185.653 108.487 167.12C111.404 148.587 113.811 133.561 113.873 133.574C113.934 133.587 111.624 148.613 108.712 167.155C105.799 185.697 103.388 200.709 103.322 200.701Z" fill="#263238"/>
<path d="M122.775 200.701C122.709 200.701 125.023 185.653 127.936 167.12C130.849 148.587 133.26 133.561 133.326 133.574C133.392 133.587 131.078 148.613 128.16 167.155C125.243 185.697 122.819 200.709 122.775 200.701Z" fill="#263238"/>
<path d="M140.861 200.027C140.799 200.027 143.087 185.133 145.969 166.785C148.851 148.437 151.249 133.561 151.306 133.574C151.363 133.587 149.08 148.464 146.198 166.821C143.316 185.177 140.918 200.036 140.861 200.027Z" fill="#263238"/>
<path d="M158.743 200.56C158.682 200.56 160.987 185.543 163.896 167.049C166.804 148.556 169.211 133.561 169.273 133.574C169.334 133.587 167.029 148.583 164.12 167.085C161.212 185.587 158.805 200.569 158.743 200.56Z" fill="#263238"/>
<path d="M176.72 200.56C176.658 200.56 178.964 185.543 181.872 167.049C184.781 148.556 187.188 133.561 187.249 133.574C187.311 133.587 185.01 148.583 182.101 167.085C179.193 185.587 176.786 200.569 176.72 200.56Z" fill="#263238"/>
<path d="M194.681 200.639C194.619 200.639 196.929 185.604 199.842 167.08C202.755 148.556 205.162 133.543 205.228 133.557C205.294 133.57 202.979 148.587 200.066 167.115C197.154 185.644 194.742 200.665 194.681 200.639Z" fill="#263238"/>
<g opacity="0.2">
<path d="M183.379 134.774C185.543 133.815 186.899 131.562 187.457 129.261C188.016 126.96 187.928 124.557 188.012 122.186C188.095 119.814 188.377 117.372 189.587 115.335C190.304 114.134 191.312 113.135 192.108 111.978C192.905 110.82 193.494 109.412 193.199 108.018L179.656 108.088L183.379 134.774Z" fill="black"/>
</g>
<path d="M127.216 152.006C127.179 152.065 127.135 152.118 127.084 152.164L126.679 152.604C126.322 152.969 125.799 153.484 125.139 154.127C123.819 155.394 121.984 157.119 119.894 158.967C117.804 160.815 115.868 162.425 114.447 163.569C113.734 164.141 113.153 164.599 112.748 164.889L112.278 165.241C112.225 165.287 112.166 165.324 112.102 165.351C112.102 165.351 112.15 165.294 112.247 165.206L112.687 164.819L114.337 163.424C115.736 162.249 117.654 160.617 119.74 158.777C121.826 156.938 123.7 155.231 125.02 153.995L126.608 152.529L127.048 152.138C127.098 152.087 127.154 152.043 127.216 152.006Z" fill="#263238"/>
<path d="M126.205 165.529C126.019 165.366 125.844 165.189 125.682 165.001L124.305 163.532C123.117 162.269 121.524 160.57 119.768 158.692L115.183 153.896L113.793 152.439C113.618 152.266 113.454 152.081 113.305 151.885C113.504 152.032 113.69 152.197 113.859 152.378C114.202 152.703 114.695 153.183 115.298 153.781C116.503 154.978 118.149 156.654 119.931 158.538C121.713 160.421 123.297 162.154 124.423 163.426C124.987 164.06 125.44 164.579 125.743 164.94C125.915 165.121 126.07 165.319 126.205 165.529Z" fill="#263238"/>
<path d="M130.907 156.05C130.907 156.05 130.951 155.936 131.043 155.711C131.189 155.386 131.366 155.075 131.571 154.783C132.38 153.652 133.522 152.802 134.836 152.35C135.778 152.009 136.782 151.877 137.78 151.962C138.968 152.078 140.113 152.468 141.124 153.102C142.291 153.822 143.277 154.8 144.006 155.962C144.848 157.259 145.268 158.786 145.207 160.331C145.156 161.165 144.898 161.973 144.455 162.681C143.99 163.415 143.372 164.04 142.642 164.511C141.088 165.508 139.258 165.987 137.415 165.88C136.449 165.828 135.498 165.621 134.599 165.268C133.662 164.902 132.82 164.331 132.135 163.596C131.794 163.209 131.507 162.779 131.281 162.316C131.066 161.843 130.918 161.342 130.841 160.828C130.695 159.776 130.787 158.704 131.109 157.691C131.782 155.58 133.241 153.807 135.184 152.741C136.191 152.188 137.312 151.873 138.459 151.82C139.607 151.768 140.752 151.979 141.806 152.438C142.897 152.898 143.853 153.629 144.582 154.563C145.312 155.522 145.768 156.661 145.902 157.858C146.054 159.073 145.858 160.307 145.335 161.414C145.066 161.969 144.713 162.48 144.287 162.927C143.855 163.368 143.367 163.751 142.835 164.067C141.764 164.657 140.582 165.02 139.364 165.134C138.146 165.247 136.918 165.109 135.756 164.727C134.611 164.376 133.559 163.774 132.676 162.967C131.799 162.159 131.2 161.095 130.964 159.926C130.716 158.778 130.88 157.579 131.426 156.538C131.703 156.026 132.084 155.576 132.544 155.218C132.997 154.877 133.502 154.611 134.04 154.431C135.096 154.092 136.205 153.943 137.313 153.991C138.393 153.999 139.466 154.147 140.508 154.431C141.537 154.702 142.488 155.211 143.284 155.918C144.047 156.629 144.567 157.562 144.771 158.584C144.973 159.573 144.914 160.596 144.6 161.554C144.288 162.479 143.762 163.315 143.064 163.996C141.739 165.292 139.983 166.057 138.132 166.144C137.265 166.189 136.398 166.064 135.58 165.774C134.794 165.492 134.088 165.026 133.521 164.414C132.983 163.831 132.577 163.139 132.328 162.386C132.083 161.68 131.974 160.933 132.007 160.186C132.07 158.803 132.622 157.487 133.565 156.472C134.371 155.59 135.391 154.931 136.526 154.558C137.479 154.248 138.488 154.152 139.483 154.277C140.857 154.448 142.162 154.974 143.271 155.804C143.559 156.015 143.831 156.248 144.085 156.499C144.257 156.67 144.34 156.763 144.34 156.763C144.34 156.763 144.243 156.679 144.072 156.516C143.81 156.274 143.534 156.047 143.245 155.839C142.134 155.034 140.836 154.526 139.474 154.365C138.4 154.241 137.311 154.375 136.3 154.758C135.289 155.141 134.384 155.76 133.661 156.565C132.743 157.557 132.208 158.844 132.152 160.195C132.122 160.927 132.231 161.659 132.473 162.351C132.719 163.082 133.116 163.752 133.639 164.318C134.191 164.91 134.876 165.363 135.637 165.638C136.435 165.915 137.279 166.035 138.123 165.99C139.93 165.901 141.642 165.151 142.932 163.882C143.606 163.223 144.114 162.413 144.415 161.519C144.716 160.593 144.771 159.604 144.573 158.65C144.375 157.669 143.875 156.773 143.143 156.09C142.369 155.409 141.447 154.918 140.451 154.655C139.426 154.375 138.371 154.227 137.309 154.215C136.227 154.174 135.146 154.323 134.115 154.655C133.063 154.977 132.173 155.686 131.624 156.64C131.103 157.634 130.948 158.78 131.184 159.878C131.412 161 131.99 162.022 132.834 162.795C133.69 163.586 134.713 164.176 135.826 164.52C136.957 164.892 138.153 165.027 139.338 164.917C140.524 164.806 141.674 164.452 142.717 163.878C143.231 163.575 143.704 163.205 144.12 162.778C144.529 162.348 144.869 161.859 145.128 161.326C145.634 160.257 145.825 159.067 145.678 157.894C145.552 156.737 145.116 155.637 144.415 154.708C143.71 153.806 142.786 153.098 141.731 152.653C140.709 152.207 139.597 152.001 138.483 152.051C137.369 152.101 136.28 152.407 135.303 152.944C133.414 153.983 131.997 155.708 131.343 157.762C131.029 158.744 130.937 159.784 131.074 160.806C131.153 161.303 131.301 161.786 131.514 162.241C131.732 162.686 132.007 163.1 132.333 163.473C132.996 164.184 133.811 164.738 134.717 165.092C135.597 165.44 136.527 165.645 137.472 165.699C139.275 165.81 141.068 165.348 142.593 164.379C143.298 163.948 143.892 163.356 144.327 162.653C144.762 161.95 145.026 161.155 145.097 160.331C145.158 158.82 144.751 157.326 143.931 156.054C143.219 154.907 142.252 153.939 141.106 153.225C140.113 152.597 138.988 152.207 137.819 152.086C136.837 151.992 135.845 152.116 134.915 152.446C133.613 152.887 132.476 153.716 131.659 154.822C131.449 155.109 131.266 155.416 131.114 155.738C130.964 155.94 130.907 156.05 130.907 156.05Z" fill="#B0BEC5"/>
<path d="M142.829 168.198C142.869 168.246 139.38 171.229 135.032 174.864C130.685 178.498 127.112 181.398 127.086 181.349C127.06 181.301 130.536 178.318 134.883 174.688C139.23 171.058 142.79 168.149 142.829 168.198Z" fill="#263238"/>
<path d="M143.586 180.959C143.379 180.837 143.183 180.697 143.001 180.541L141.452 179.335C140.154 178.305 138.372 176.871 136.41 175.278C134.447 173.685 132.683 172.233 131.411 171.173L129.911 169.906C129.721 169.761 129.544 169.599 129.383 169.422C129.589 169.545 129.785 169.685 129.968 169.84L131.512 171.045C132.81 172.075 134.592 173.509 136.555 175.102C138.517 176.695 140.282 178.147 141.558 179.207L143.054 180.47C143.243 180.62 143.421 180.783 143.586 180.959Z" fill="#263238"/>
<path d="M179.553 168.37C179.588 168.418 176.253 170.975 172.095 174.09C167.937 177.205 164.54 179.665 164.5 179.612C164.461 179.559 167.8 177.007 171.958 173.892C176.116 170.777 179.513 168.317 179.553 168.37Z" fill="#263238"/>
<path d="M180.853 179.195C180.822 179.248 177.276 177.052 172.933 174.285C168.59 171.517 165.11 169.238 165.141 169.181C165.172 169.124 168.718 171.328 173.061 174.091C177.404 176.854 180.906 179.142 180.853 179.195Z" fill="#263238"/>
<path d="M143.391 200.565C143.343 200.521 146.81 196.886 151.131 192.456C155.452 188.025 158.994 184.456 159.051 184.5C159.108 184.544 155.632 188.179 151.311 192.614C146.99 197.049 143.435 200.609 143.391 200.565Z" fill="#B0BEC5"/>
<path d="M158.055 200.559C158.055 200.559 157.997 200.511 157.909 200.405L157.54 199.965C157.197 199.525 156.739 198.958 156.18 198.262C155.032 196.828 153.404 194.879 151.516 192.806C149.629 190.734 147.838 188.934 146.518 187.658L144.951 186.118L144.511 185.705C144.461 185.658 144.415 185.607 144.375 185.551C144.375 185.551 144.441 185.586 144.542 185.67L144.982 186.052C145.374 186.387 145.928 186.884 146.606 187.509C147.952 188.758 149.765 190.545 151.661 192.622C153.558 194.698 155.181 196.67 156.281 198.13C156.845 198.861 157.289 199.45 157.601 199.89L157.94 200.374C157.986 200.431 158.024 200.493 158.055 200.559Z" fill="#B0BEC5"/>
<path d="M122.035 182.054C122.035 182.054 122.176 192.864 119.448 199.337L102.82 196.503C102.82 196.503 107.828 186.26 106.464 180.566L122.035 182.054Z" fill="#EBEBEB"/>
<path d="M122.029 181.649C122.029 181.649 119.943 194.919 118.667 198.879L102.141 195.597C102.141 195.597 105.542 182.766 105.498 179.193L122.029 181.649Z" fill="#B0BEC5"/>
<path d="M107.172 185.142C107.172 185.204 109.627 185.776 112.685 186.418C115.743 187.06 118.229 187.531 118.242 187.474C118.255 187.417 115.787 186.84 112.729 186.198C109.671 185.556 107.185 185.08 107.172 185.142Z" fill="white"/>
<path d="M106.758 187.955C106.758 188.016 109.213 188.584 112.271 189.231C115.329 189.878 117.815 190.344 117.828 190.287C117.841 190.23 115.373 189.653 112.315 189.011C109.257 188.368 106.771 187.88 106.758 187.955Z" fill="white"/>
<path d="M109.18 191.135C109.462 191.257 109.757 191.346 110.06 191.399C110.627 191.535 111.415 191.716 112.282 191.9C113.148 192.085 113.945 192.235 114.521 192.34C114.829 192.418 115.145 192.456 115.463 192.455C115.17 192.332 114.865 192.242 114.552 192.186C113.989 192.046 113.201 191.865 112.33 191.685C111.459 191.504 110.667 191.346 110.095 191.245C109.795 191.171 109.488 191.134 109.18 191.135Z" fill="white"/>
<path d="M200.703 151.697C200.703 151.697 202.406 162.231 200.681 168.95L184.031 168.593C184.031 168.593 187.437 157.866 185.276 152.502L200.703 151.697Z" fill="#EBEBEB"/>
<path d="M200.629 151.303C200.629 151.303 200.519 164.551 199.845 168.595L183.227 167.807C183.227 167.807 184.683 154.783 184.107 151.303H200.629Z" fill="#455A64"/>
<path d="M186.461 157.199C186.461 157.261 188.96 157.314 192.045 157.318C195.129 157.322 197.633 157.278 197.633 157.217C197.633 157.155 195.133 157.102 192.045 157.098C188.956 157.094 186.461 157.138 186.461 157.199Z" fill="white"/>
<path d="M186.617 160C186.617 160.062 189.116 160.114 192.201 160.119C195.285 160.123 197.789 160.079 197.789 160.018C197.789 159.956 195.29 159.903 192.201 159.899C189.112 159.894 186.617 159.938 186.617 160Z" fill="white"/>
<path d="M189.594 162.584C189.9 162.649 190.213 162.677 190.527 162.667C191.103 162.667 191.899 162.698 192.779 162.702C193.659 162.707 194.451 162.702 195.028 162.672C195.341 162.684 195.654 162.659 195.961 162.597C195.654 162.531 195.341 162.505 195.028 162.518C194.451 162.496 193.659 162.482 192.779 162.478C191.899 162.474 191.103 162.478 190.527 162.509C190.214 162.496 189.901 162.521 189.594 162.584Z" fill="white"/>
<path d="M204.221 121.325C201.115 121.325 197.986 119.376 196.341 116.309C194.741 113.255 194.245 109.743 194.937 106.365C195.848 101.965 198.761 98.3574 202.36 97.2046C205.418 96.2234 210.883 96.7646 213.461 101.081C214.69 103.192 215.299 105.605 215.221 108.046C215.21 108.22 215.164 108.389 215.087 108.545C215.01 108.7 214.903 108.839 214.772 108.954C214.642 109.068 214.49 109.156 214.325 109.211C214.16 109.267 213.987 109.29 213.813 109.278C213.463 109.255 213.137 109.093 212.906 108.829C212.675 108.565 212.558 108.22 212.581 107.87C212.605 105.965 212.116 104.088 211.164 102.436C209.176 99.1142 204.815 99.1802 203.134 99.717C200.054 100.703 198.083 104.033 197.489 106.898C196.919 109.671 197.325 112.556 198.638 115.064C199.936 117.484 202.562 118.989 204.89 118.633C205.234 118.585 205.582 118.674 205.86 118.881C206.139 119.089 206.324 119.397 206.377 119.74C206.429 120.083 206.345 120.432 206.142 120.714C205.938 120.995 205.633 121.184 205.29 121.242C204.937 121.297 204.579 121.325 204.221 121.325Z" fill="#263238"/>
<path d="M118.998 121.326C115.887 121.326 112.763 119.376 111.117 116.31C109.516 113.256 109.019 109.744 109.709 106.366C110.479 102.652 113.084 98.3753 117.189 97.1961C119.169 96.6599 121.267 96.7662 123.182 97.4997L122.232 99.9637C120.854 99.4399 119.346 99.3584 117.92 99.7305C114.893 100.61 112.921 103.963 112.314 106.898C111.744 109.671 112.15 112.556 113.463 115.064C114.761 117.489 117.392 118.989 119.715 118.633L120.115 121.242C119.746 121.299 119.372 121.327 118.998 121.326Z" fill="#263238"/>
<path d="M203.136 108.113L201.922 114.762H219.79L221.379 108.179L203.136 108.113Z" fill="#B0BEC5"/>
<path d="M123.529 120.274C123.529 120.836 123.363 121.386 123.051 121.854C122.739 122.322 122.295 122.687 121.776 122.903C121.256 123.119 120.684 123.175 120.133 123.066C119.581 122.956 119.074 122.686 118.676 122.288C118.278 121.89 118.008 121.383 117.898 120.831C117.789 120.28 117.845 119.708 118.061 119.188C118.277 118.669 118.642 118.225 119.11 117.913C119.578 117.601 120.128 117.435 120.691 117.436C121.443 117.437 122.164 117.736 122.696 118.268C123.228 118.8 123.527 119.521 123.529 120.274Z" fill="#263238"/>
<path d="M208.677 120.274C208.678 120.836 208.512 121.386 208.2 121.854C207.888 122.322 207.444 122.687 206.924 122.903C206.405 123.119 205.833 123.175 205.281 123.066C204.729 122.956 204.222 122.686 203.825 122.288C203.427 121.89 203.156 121.383 203.047 120.831C202.937 120.28 202.994 119.708 203.209 119.188C203.425 118.669 203.79 118.225 204.258 117.913C204.726 117.601 205.276 117.435 205.839 117.436C206.591 117.437 207.312 117.736 207.844 118.268C208.376 118.8 208.676 119.521 208.677 120.274Z" fill="#263238"/>
<path d="M75.0992 176.555H46.3672V180.501H75.0992V176.555Z" fill="#263238"/>
<path d="M75.1491 180.554H46.3203V176.506H75.1491V180.554ZM46.4171 180.453H75.0523V176.603H46.4171V180.453Z" fill="#263238"/>
<path d="M49.0312 179.191L53.1628 199.594H68.466L72.4657 180.507L49.0312 179.191Z" fill="#263238"/>
<path d="M49.0312 197.662L51.2357 200.698H69.8344L72.4657 197.662H49.0312Z" fill="#455A64"/>
<path d="M59.6537 179.785C59.5965 179.785 59.5261 170.334 59.4909 158.665C59.4557 146.996 59.4909 137.545 59.5349 137.545C59.5789 137.545 59.6625 146.996 59.6977 158.665C59.7329 170.334 59.7109 179.785 59.6537 179.785Z" fill="#263238"/>
<path d="M66.0589 156.129C66.0398 156.205 66.0132 156.278 65.9797 156.349C65.9137 156.512 65.8257 156.714 65.7245 156.96C65.6673 157.097 65.6057 157.242 65.5353 157.4C65.4649 157.559 65.4121 157.748 65.3461 157.937L65.1217 158.553C65.0469 158.773 64.9853 158.993 64.9105 159.257C64.5691 160.413 64.3002 161.588 64.1053 162.777C63.8845 164.236 63.7377 165.704 63.6653 167.177C63.5614 169.858 63.6379 172.542 63.8941 175.212C63.9865 176.241 64.0789 177.068 64.1493 177.64C64.1757 177.909 64.2021 178.129 64.2197 178.3C64.2256 178.378 64.2256 178.456 64.2197 178.534C64.192 178.46 64.1742 178.383 64.1669 178.305C64.1361 178.133 64.1009 177.918 64.0569 177.654C63.9645 177.082 63.8457 176.255 63.7357 175.229C63.4365 172.553 63.3409 169.859 63.4497 167.169C63.515 165.688 63.6619 164.211 63.8897 162.747C64.0932 161.555 64.3784 160.379 64.7433 159.227C64.8225 158.98 64.8885 158.742 64.9677 158.527L65.2053 157.911L65.4165 157.379C65.4869 157.216 65.5573 157.075 65.6189 156.939L65.9137 156.34C65.9506 156.262 65.9996 156.191 66.0589 156.129Z" fill="#263238"/>
<path d="M65.3227 148.486C65.2983 148.592 65.2675 148.697 65.2303 148.799C65.1555 149.014 65.0543 149.309 64.9311 149.679L64.7111 150.312C64.6407 150.55 64.5615 150.805 64.4779 151.078C64.3107 151.624 64.1171 152.244 63.9455 152.944L63.6551 154.039C63.5671 154.422 63.4791 154.822 63.3867 155.232C63.1843 156.054 63.0391 156.948 62.8543 157.872C62.5375 159.746 62.2603 161.832 62.0667 164.01C61.8731 166.188 61.8071 168.295 61.7807 170.2C61.7543 172.106 61.7807 173.822 61.8775 175.26C61.8995 175.982 61.9479 176.629 61.9831 177.201C62.0183 177.773 62.0535 178.266 62.0887 178.666C62.1239 179.066 62.1415 179.361 62.1591 179.594C62.165 179.701 62.165 179.809 62.1591 179.916C62.1308 179.812 62.1131 179.706 62.1063 179.599C62.0799 179.366 62.0447 179.062 61.9963 178.675C61.9479 178.288 61.8995 177.795 61.8555 177.21C61.8115 176.624 61.7543 175.991 61.7191 175.269C61.6223 173.826 61.5827 172.11 61.5783 170.2C61.5739 168.291 61.6663 166.192 61.8511 163.996C62.0359 161.801 62.3307 159.72 62.6563 157.836C62.8455 156.899 62.9995 156.006 63.2063 155.196C63.3031 154.783 63.3999 154.382 63.4879 154L63.7915 152.908C63.9719 152.209 64.1787 151.588 64.3591 151.043C64.4471 150.77 64.5307 150.519 64.6055 150.282C64.6803 150.044 64.7683 149.842 64.8431 149.652L65.1775 148.772C65.215 148.672 65.2637 148.576 65.3227 148.486Z" fill="#263238"/>
<path d="M57.8356 181.458C57.831 181.421 57.831 181.384 57.8356 181.348C57.8356 181.264 57.8356 181.159 57.8092 181.022C57.7872 180.723 57.7608 180.305 57.7256 179.773C57.6552 178.668 57.5584 177.102 57.4352 175.166C57.1888 171.281 56.828 165.926 56.1724 160.008C55.838 157.051 55.4508 154.248 55.046 151.705C54.8348 150.438 54.6412 149.232 54.4168 148.106C54.1924 146.979 53.9768 145.937 53.8008 144.982C53.6248 144.027 53.4004 143.173 53.2288 142.421C53.0572 141.669 52.9032 141.017 52.7888 140.489C52.6744 139.961 52.5644 139.565 52.4896 139.271C52.4632 139.143 52.4368 139.037 52.4192 138.954C52.4124 138.917 52.4124 138.88 52.4192 138.844C52.4373 138.877 52.4506 138.912 52.4588 138.949L52.5468 139.262C52.6304 139.552 52.7404 139.957 52.8856 140.472C53.0308 140.987 53.2024 141.638 53.3828 142.395C53.5632 143.151 53.7832 144.001 53.9812 144.955C54.1792 145.91 54.4212 146.949 54.6236 148.075C54.826 149.201 55.0636 150.407 55.2748 151.679C55.6884 154.222 56.08 157.029 56.4144 159.981C57.07 165.895 57.4088 171.267 57.62 175.157C57.7256 177.106 57.8004 178.677 57.8444 179.768C57.8444 180.301 57.8796 180.719 57.8884 181.022C57.8884 181.154 57.8884 181.264 57.8884 181.348C57.8764 181.387 57.8586 181.424 57.8356 181.458Z" fill="#263238"/>
<path d="M59.4295 142.115C59.3019 140.795 57.9511 139.765 56.6047 139.752C55.9312 139.782 55.2734 139.964 54.681 140.286C54.0887 140.608 53.5774 141.06 53.1859 141.609C52.4114 142.713 51.8517 143.954 51.5359 145.265C50.6295 148.42 50.1367 151.733 50.5239 154.994C50.9111 158.254 52.2311 161.462 54.5719 163.763C54.9503 164.141 55.4519 164.515 55.9667 164.401C56.2452 164.319 56.4983 164.168 56.7015 163.961C58.9925 161.863 60.8084 159.3 62.0272 156.442C63.246 153.585 63.8395 150.5 63.7679 147.395C63.7327 146.158 63.5699 144.865 62.8879 143.835C62.2059 142.806 60.5999 141.706 59.4339 142.119" fill="#B0BEC5"/>
<path d="M49.3763 131.38L47.4843 134.812C47.4403 134.891 47.3831 134.983 47.2907 134.988C47.1983 134.992 47.1147 134.904 47.0619 134.82L42.0547 127.156L43.2075 126.5L49.3763 131.38Z" fill="#B0BEC5"/>
<g opacity="0.2">
<path d="M49.3763 131.382L47.4843 134.814C47.4403 134.893 47.3831 134.985 47.2907 134.99C47.1983 134.994 47.1147 134.906 47.0619 134.822L42.0547 127.158L43.2075 126.502L49.3763 131.382Z" fill="black"/>
</g>
<path d="M59.5342 137.562L42.4534 127.481C42.3562 127.444 42.2673 127.388 42.1918 127.316C42.1163 127.245 42.0557 127.159 42.0134 127.063C41.9474 126.813 42.1366 126.566 42.317 126.377C43.4924 125.159 44.9161 124.208 46.4915 123.59C48.0669 122.971 49.757 122.699 51.447 122.791C53.1364 122.913 54.7707 123.444 56.2089 124.338C57.647 125.233 58.8457 126.464 59.7014 127.926C61.347 130.869 61.4042 134.768 59.5122 137.562" fill="#B0BEC5"/>
<path d="M44.9453 124.265C45.0183 124.245 45.094 124.236 45.1697 124.239C45.3149 124.239 45.5349 124.204 45.8165 124.208C46.6096 124.198 47.4019 124.259 48.1837 124.393C49.3484 124.593 50.4836 124.937 51.5629 125.418C53.4257 126.256 55.0801 127.496 56.4075 129.049C57.7349 130.601 58.7025 132.428 59.2409 134.399C59.4613 135.163 59.6087 135.947 59.6809 136.739C59.7161 137.017 59.7073 137.237 59.7161 137.386C59.7237 137.461 59.7237 137.536 59.7161 137.611C59.7161 137.611 59.6765 137.303 59.6061 136.731C59.5087 135.949 59.3483 135.176 59.1265 134.421C58.4102 131.913 57.0053 129.655 55.071 127.906C53.1368 126.156 50.7508 124.983 48.1837 124.521C47.4101 124.374 46.6258 124.29 45.8385 124.27C45.2357 124.274 44.9453 124.283 44.9453 124.265Z" fill="#263238"/>
<path d="M57.2235 130.605C56.9482 130.773 56.6524 130.905 56.3435 130.997C55.7979 131.213 55.0235 131.485 54.1875 131.758C53.3515 132.031 52.5595 132.242 51.9875 132.383C51.684 132.476 51.3711 132.535 51.0547 132.559C51.3361 132.423 51.6311 132.317 51.9347 132.242L54.1083 131.56L56.2775 130.861C56.5836 130.745 56.9005 130.659 57.2235 130.605Z" fill="#263238"/>
<path d="M54.5377 123.381C54.6906 124.004 54.7587 124.645 54.7401 125.286C54.7903 125.926 54.7548 126.57 54.6345 127.2C54.552 126.567 54.5197 125.929 54.5377 125.29C54.4874 124.655 54.4874 124.016 54.5377 123.381Z" fill="#263238"/>
<path d="M42.2969 127.291C42.6965 127.107 43.1118 126.96 43.5377 126.851C44.3121 126.609 45.3945 126.305 46.6177 126.015C47.8409 125.724 48.9233 125.504 49.6977 125.363C50.1317 125.267 50.5734 125.208 51.0177 125.188C50.6 125.322 50.1737 125.428 49.7417 125.504C48.9497 125.68 47.8585 125.944 46.6617 126.217C45.4649 126.49 44.3781 126.785 43.5817 126.987C43.1606 127.117 42.7314 127.218 42.2969 127.291Z" fill="#263238"/>
<path d="M51.6635 138.937C50.1939 137.824 48.6407 137.617 46.7971 137.675C44.9532 137.792 43.1475 138.253 41.4731 139.034C38.5911 140.293 35.8851 142.154 34.1647 144.785C32.4443 147.416 31.8415 150.901 33.1307 153.77C33.2321 154.07 33.4405 154.322 33.7159 154.478C34.0359 154.567 34.3771 154.541 34.6795 154.403C37.9575 153.334 41.2531 152.256 44.2671 150.584C47.2811 148.912 50.0223 146.585 51.6371 143.544C52.0506 142.835 52.317 142.049 52.4203 141.234C52.4644 140.822 52.42 140.405 52.2903 140.011C52.1606 139.618 51.9484 139.256 51.6679 138.951" fill="#B0BEC5"/>
<path d="M51.6909 138.596C51.6176 138.638 51.5392 138.67 51.4577 138.693L50.7714 138.93L50.2742 139.093C50.0938 139.159 49.9002 139.238 49.6934 139.322C49.2798 139.489 48.8134 139.656 48.2898 139.903L47.489 140.268C47.2074 140.395 46.9302 140.554 46.6353 140.708C46.0413 140.998 45.443 141.372 44.8006 141.751C42.0567 143.451 39.6151 145.597 37.5758 148.1C37.1358 148.685 36.6737 149.235 36.3085 149.789C36.1193 150.062 35.9302 150.317 35.763 150.577L35.323 151.325C35.015 151.796 34.7861 152.253 34.5661 152.645C34.4605 152.839 34.3549 153.019 34.2669 153.191C34.1789 153.362 34.1086 153.516 34.0426 153.661L33.7169 154.313C33.6863 154.391 33.6448 154.465 33.5938 154.533C33.6152 154.451 33.6447 154.371 33.6818 154.295L33.9677 153.626C34.0337 153.481 34.1042 153.323 34.179 153.147C34.2538 152.971 34.3638 152.79 34.465 152.592C34.6762 152.192 34.9049 151.712 35.1953 151.25C35.3449 151.008 35.4945 150.753 35.6353 150.489C35.7761 150.225 35.9874 149.97 36.1722 149.693C36.533 149.129 36.9774 148.575 37.4306 147.981C38.456 146.72 39.5801 145.543 40.7922 144.461C42.0177 143.396 43.3273 142.432 44.7082 141.579C45.355 141.201 45.9622 140.831 46.5606 140.545C46.8598 140.395 47.1414 140.241 47.4406 140.105L48.2545 139.753C48.7694 139.511 49.2534 139.352 49.6758 139.194C49.887 139.119 50.0805 139.045 50.2654 138.983L50.7669 138.833L51.4666 138.635C51.5403 138.617 51.6153 138.603 51.6909 138.596Z" fill="#263238"/>
<path d="M40.215 144.809C39.0452 145.254 37.8526 145.638 36.6422 145.957C35.45 146.345 34.2366 146.663 33.0078 146.912C34.1776 146.466 35.3702 146.083 36.5806 145.763C37.7735 145.378 38.9868 145.059 40.215 144.809Z" fill="#263238"/>
<path d="M40.0648 152.675C40.0047 152.307 39.9782 151.934 39.9856 151.562C39.9856 150.875 39.9856 149.921 39.9856 148.873C39.9856 147.826 40.0736 146.871 40.1308 146.185C40.1397 145.812 40.1869 145.44 40.2716 145.076C40.3012 145.448 40.3012 145.822 40.2716 146.194C40.2452 146.946 40.2188 147.861 40.188 148.878C40.1572 149.894 40.1396 150.809 40.1176 151.562C40.134 151.934 40.1164 152.306 40.0648 152.675Z" fill="#263238"/>
<path d="M46.8263 149.254C46.7691 149.254 46.5887 147.322 46.4259 144.933C46.2631 142.544 46.1707 140.604 46.2279 140.604C46.2851 140.604 46.4611 142.531 46.6283 144.92C46.7955 147.309 46.8835 149.25 46.8263 149.254Z" fill="#263238"/>
<path d="M38.4219 140.413C38.8012 140.365 39.1843 140.353 39.5659 140.378C40.2699 140.378 41.2467 140.404 42.3247 140.439C43.4027 140.474 44.3751 140.518 45.0791 140.558C45.4613 140.563 45.8425 140.6 46.2187 140.668C45.8393 140.716 45.4563 140.728 45.0747 140.703C44.3707 140.703 43.3939 140.681 42.3159 140.642C41.2379 140.602 40.2655 140.562 39.5571 140.523C39.1762 140.519 38.7965 140.482 38.4219 140.413Z" fill="#263238"/>
<path d="M55.3052 164.679C55.2857 164.602 55.2768 164.522 55.2788 164.442C55.2788 164.27 55.2788 164.046 55.248 163.773C55.2216 163.188 55.2172 162.347 55.248 161.3C55.2788 160.253 55.336 159.017 55.4592 157.644C55.5824 156.271 55.7848 154.762 56.062 153.191C56.3392 151.62 56.6824 150.146 57.03 148.791C57.3776 147.436 57.756 146.27 58.0992 145.271C58.4424 144.272 58.7328 143.511 58.9792 142.957C59.0848 142.701 59.1684 142.517 59.2388 142.336C59.2658 142.263 59.2997 142.192 59.34 142.125C59.3304 142.203 59.3081 142.279 59.274 142.349L59.0232 142.996C58.8208 143.542 58.5436 144.316 58.2224 145.328C57.9012 146.34 57.5492 147.528 57.2016 148.848C56.854 150.168 56.5284 151.655 56.2468 153.222C55.9652 154.788 55.776 156.302 55.6352 157.653C55.4944 159.003 55.4152 160.257 55.38 161.296C55.3448 162.334 55.3228 163.179 55.3228 163.764C55.3228 164.037 55.3228 164.257 55.3228 164.433C55.3228 164.515 55.3169 164.598 55.3052 164.679Z" fill="#263238"/>
<path d="M56.1978 153.023C55.9981 153.297 55.7694 153.547 55.5158 153.771C55.0758 154.211 54.4466 154.801 53.7338 155.43C53.021 156.059 52.3478 156.601 51.8506 156.983C51.5963 157.205 51.319 157.398 51.0234 157.56C51.2474 157.307 51.4949 157.075 51.7626 156.869L53.5974 155.276L55.419 153.666C55.6576 153.427 55.9184 153.212 56.1978 153.023Z" fill="#263238"/>
<path d="M61.6081 157.376C61.3404 157.061 61.0977 156.725 60.882 156.373L59.1968 153.909L57.472 151.471C57.2162 151.146 56.9853 150.801 56.7812 150.441C57.079 150.729 57.3486 151.044 57.5865 151.383C58.0617 151.986 58.6953 152.831 59.3465 153.794C59.9977 154.758 60.5872 155.642 60.9876 156.293C61.2279 156.634 61.4356 156.996 61.6081 157.376Z" fill="#263238"/>
<path d="M58.7722 143.677C58.803 143.725 57.0122 144.935 54.7638 146.379C52.5154 147.822 50.6718 148.957 50.641 148.909C50.6102 148.86 52.401 147.65 54.6538 146.207C56.9066 144.764 58.7458 143.633 58.7722 143.677Z" fill="#263238"/>
<path d="M63.8591 149.156C62.9109 148.367 62.0048 147.528 61.1443 146.644C60.2383 145.812 59.379 144.931 58.5703 144.004C59.5219 144.791 60.4296 145.63 61.2895 146.516C62.1961 147.346 63.054 148.228 63.8591 149.156Z" fill="#263238"/>
<path d="M65.1172 149.037L66.6572 148.91C67.7523 148.82 68.8151 148.494 69.7724 147.955C70.2409 147.682 70.7258 147.438 71.2244 147.224C73.1296 146.463 75.2592 146.6 77.3096 146.494C80.6691 146.325 83.9605 145.484 86.9896 144.021C87.1715 143.941 87.3249 143.807 87.4296 143.638C87.7464 143.062 87.1568 142.547 86.6508 142.235C84.0504 140.633 81.406 139.014 78.4624 138.218C75.5188 137.421 72.1704 137.558 69.6624 139.287C66.7144 141.32 65.6364 145.491 65.1392 149.037" fill="#B0BEC5"/>
<path d="M87.4388 143.437C87.3502 143.4 87.2635 143.359 87.1792 143.314L86.4488 142.931C85.8152 142.596 84.9044 142.104 83.7472 141.554C82.407 140.892 81.0094 140.353 79.5716 139.943C77.8134 139.438 75.972 139.288 74.1552 139.503C72.3359 139.705 70.6176 140.444 69.2184 141.624C68.1256 142.639 67.2512 143.867 66.6488 145.232C66.1076 146.389 65.7688 147.375 65.5312 148.044L65.254 148.822C65.2268 148.915 65.1914 149.005 65.1484 149.091C65.1611 148.995 65.1832 148.901 65.2144 148.809C65.276 148.611 65.3552 148.347 65.452 148.022C65.7457 147.06 66.0953 146.117 66.4992 145.197C67.0921 143.8 67.9704 142.543 69.0776 141.505C70.4965 140.283 72.2505 139.516 74.1112 139.305C75.9526 139.083 77.82 139.232 79.6024 139.745C81.0483 140.17 82.452 140.726 83.7956 141.408C84.944 141.98 85.846 142.491 86.4708 142.847L87.1836 143.265C87.2756 143.311 87.3613 143.369 87.4388 143.437Z" fill="#263238"/>
<path d="M83.7339 145.437C83.7031 145.481 81.6835 144.179 79.2283 142.524C76.7731 140.87 74.8063 139.488 74.8283 139.444C74.8503 139.4 76.8743 140.703 79.3295 142.357C81.7847 144.012 83.7647 145.389 83.7339 145.437Z" fill="#263238"/>
<path d="M81.7984 139.248C80.7709 139.571 79.6865 139.671 78.6172 139.542C79.1401 139.434 79.6717 139.372 80.2056 139.358C80.7324 139.275 81.2653 139.238 81.7984 139.248Z" fill="#263238"/>
<path d="M72.7582 137.627C72.3734 138.538 71.8688 139.393 71.2578 140.17C71.4153 139.702 71.6375 139.257 71.9178 138.85C72.1385 138.405 72.4215 137.993 72.7582 137.627Z" fill="#263238"/>
<path d="M74.5657 146.626C74.2255 146.484 73.9011 146.307 73.5977 146.097C73.0125 145.745 72.2249 145.217 71.3977 144.615C70.5705 144.012 69.8181 143.427 69.2813 143.004C68.9808 142.792 68.7009 142.552 68.4453 142.287C68.7723 142.457 69.0817 142.659 69.3693 142.89L71.5209 144.452C72.3569 145.059 73.1269 145.592 73.6901 145.979C74.0003 146.168 74.2933 146.385 74.5657 146.626Z" fill="#263238"/>
<path d="M67.3825 155.588C65.9129 155.197 64.1573 156.627 63.8625 158.118C63.5677 159.61 64.1221 161.132 64.7733 162.518C66.1746 165.596 68.2533 168.317 70.8541 170.478C73.4773 172.629 76.7505 173.831 80.1425 173.888C79.5221 171.001 80.3053 167.983 79.9621 165.048C79.6555 162.463 78.4811 160.059 76.6309 158.228C74.7807 156.397 72.3641 155.247 69.7761 154.968C68.8389 154.867 67.7521 154.721 67.3781 155.588" fill="#B0BEC5"/>
<path d="M80.1452 173.889C80.0715 173.865 80.0007 173.832 79.934 173.792C79.7414 173.683 79.5575 173.56 79.384 173.423C78.7678 172.886 78.2728 172.225 77.932 171.482C77.6988 171.042 77.4348 170.532 77.1796 169.982C76.9244 169.432 76.6692 168.851 76.3876 168.222C76.1054 167.578 75.7805 166.953 75.4152 166.352C75.0235 165.711 74.5821 165.102 74.0952 164.53C73.092 163.351 72.0096 162.33 71.0724 161.349C70.2251 160.495 69.4537 159.569 68.7668 158.581C68.3067 157.912 67.9286 157.189 67.6404 156.43C67.548 156.161 67.4776 155.946 67.4424 155.801C67.4181 155.728 67.4033 155.653 67.3984 155.576C67.3984 155.576 67.4996 155.875 67.7152 156.403C68.029 157.143 68.4214 157.847 68.8856 158.502C69.5856 159.468 70.3625 160.376 71.2088 161.217C72.1504 162.185 73.2372 163.206 74.2536 164.398C74.7517 164.978 75.2034 165.596 75.6044 166.246C75.9682 166.857 76.293 167.491 76.5768 168.143L77.3512 169.903C77.5976 170.448 77.8528 170.95 78.0816 171.403C78.4028 172.139 78.8698 172.802 79.4544 173.352C79.8768 173.731 80.1672 173.871 80.1452 173.889Z" fill="#263238"/>
<path d="M72.5469 171.49C72.5557 171.156 72.6015 170.824 72.6833 170.5C72.7977 169.892 72.9869 169.061 73.2421 168.154C73.4973 167.248 73.7701 166.443 73.9901 165.866C74.0864 165.546 74.2208 165.239 74.3905 164.951C74.331 165.278 74.2427 165.599 74.1265 165.91C73.9417 166.5 73.6865 167.31 73.4401 168.212C73.1937 169.114 73.0001 169.932 72.8241 170.53C72.7634 170.858 72.6706 171.18 72.5469 171.49Z" fill="#263238"/>
<path d="M79.8745 164.403C79.5223 164.351 79.1749 164.27 78.8361 164.161C78.2025 163.998 77.3269 163.769 76.3545 163.549C75.3821 163.329 74.4933 163.162 73.8509 163.039C73.4986 162.994 73.1511 162.917 72.8125 162.81C73.1681 162.801 73.5236 162.831 73.8729 162.898C74.5241 162.982 75.4217 163.131 76.3985 163.338C77.3753 163.545 78.2509 163.809 78.8757 164.011C79.2213 164.107 79.556 164.238 79.8745 164.403Z" fill="#263238"/>
<path d="M67.0859 166.461C67.1025 166.074 67.1556 165.689 67.2443 165.312C67.3763 164.613 67.5787 163.645 67.8559 162.593C68.1331 161.541 68.4235 160.595 68.6523 159.918C68.7653 159.546 68.9126 159.185 69.0923 158.84C69.0284 159.221 68.9343 159.596 68.8107 159.962C68.6171 160.648 68.3443 161.594 68.0715 162.641C67.7987 163.689 67.5699 164.652 67.4071 165.343C67.3321 165.724 67.2246 166.098 67.0859 166.461Z" fill="#263238"/>
<path d="M76.4999 158.224C76.4999 158.277 74.6563 158.132 72.3991 157.89C70.1419 157.648 68.3115 157.41 68.3203 157.357C69.692 157.397 71.0608 157.507 72.4211 157.687C73.789 157.797 75.1504 157.976 76.4999 158.224Z" fill="#263238"/>
<path d="M75.1491 180.488C75.1491 180.545 68.6943 180.589 60.7347 180.589C52.7751 180.589 46.3203 180.545 46.3203 180.488C46.3203 180.431 52.7751 180.387 60.7347 180.387C68.6943 180.387 75.1491 180.431 75.1491 180.488Z" fill="#455A64"/>
<path d="M70.6604 188.793C70.6604 188.85 66.3088 188.898 60.9452 188.898C55.5816 188.898 51.2344 188.85 51.2344 188.793C51.2344 188.735 55.5816 188.691 60.9452 188.691C66.3088 188.691 70.6604 188.757 70.6604 188.793Z" fill="#455A64"/>
<path d="M70.8279 189.98C70.8279 190.037 66.4807 190.081 61.1171 190.081C55.7535 190.081 51.4062 190.037 51.4062 189.98C51.4062 189.923 55.7535 189.879 61.1171 189.879C66.4807 189.879 70.8279 189.923 70.8279 189.98Z" fill="#455A64"/>
<path d="M70.8248 187.814C70.8248 187.871 66.328 187.915 60.7796 187.915C55.2312 187.915 50.7344 187.871 50.7344 187.814C50.7344 187.757 55.2312 187.713 60.7796 187.713C66.328 187.713 70.8248 187.757 70.8248 187.814Z" fill="#455A64"/>
</svg>
