<svg width="26" height="26" viewBox="0 0 26 26" fill="none" xmlns="http://www.w3.org/2000/svg">
<path d="M0.123106 13C0.123106 5.88829 5.88829 0.123106 13 0.123106C20.1117 0.123106 25.8769 5.88829 25.8769 13C25.8769 20.1117 20.1117 25.8769 13 25.8769C5.88829 25.8769 0.123106 20.1117 0.123106 13Z" fill="#CCFBF1"/>
<path d="M0.123106 13C0.123106 5.88829 5.88829 0.123106 13 0.123106C20.1117 0.123106 25.8769 5.88829 25.8769 13C25.8769 20.1117 20.1117 25.8769 13 25.8769C5.88829 25.8769 0.123106 20.1117 0.123106 13Z" stroke="#E2E8F0" stroke-width="0.246212"/>
<g clip-path="url(#clip0_435_45180)">
<path fill-rule="evenodd" clip-rule="evenodd" d="M10.5479 5.39648C9.66792 5.39648 8.824 5.73753 8.20175 6.34459L5.19922 9.27388V10.6147C5.19922 11.562 5.6163 12.4143 6.28108 13.0062C5.6163 13.5982 5.19922 14.4505 5.19922 15.3978V16.7386L8.20175 19.6679C8.824 20.275 9.66792 20.616 10.5479 20.616C11.5189 20.616 12.3925 20.2091 12.9992 19.5605C13.606 20.2091 14.4795 20.616 15.4505 20.616C16.3305 20.616 17.1744 20.275 17.7967 19.6679L20.7992 16.7386V15.3978C20.7992 14.4505 20.3822 13.5982 19.7174 13.0062C20.3822 12.4143 20.7992 11.562 20.7992 10.6147V9.27388L17.7967 6.34459C17.1744 5.73753 16.3305 5.39648 15.4505 5.39648C14.4795 5.39648 13.606 5.80339 12.9992 6.45196C12.3925 5.80339 11.5189 5.39648 10.5479 5.39648ZM15.2452 13.0062C15.2078 12.9729 15.1711 12.9387 15.1351 12.9037L12.9992 10.8199L10.8633 12.9037C10.8274 12.9387 10.7907 12.9729 10.7533 13.0062C10.7907 13.0395 10.8274 13.0737 10.8633 13.1088L12.9992 15.1926L15.1351 13.1088C15.1711 13.0737 15.2078 13.0395 15.2452 13.0062ZM13.8659 16.7386V17.379C13.8659 18.2328 14.5754 18.925 15.4505 18.925C15.8708 18.925 16.2739 18.7621 16.571 18.4721L19.0659 16.0381V15.3978C19.0659 14.5439 18.3564 13.8518 17.4813 13.8518C17.061 13.8518 16.6579 14.0146 16.3607 14.3046L13.8659 16.7386ZM12.1326 16.7386L9.63769 14.3046C9.34051 14.0146 8.93746 13.8518 8.51719 13.8518C7.64202 13.8518 6.93255 14.5439 6.93255 15.3978V16.0381L9.4274 18.4721C9.72458 18.7621 10.1276 18.925 10.5479 18.925C11.4231 18.925 12.1326 18.2328 12.1326 17.379V16.7386ZM12.1326 8.63353V9.27388L9.63769 11.7079C9.34051 11.9978 8.93746 12.1607 8.51719 12.1607C7.64202 12.1607 6.93255 11.4685 6.93255 10.6147V9.97436L9.4274 7.54035C9.72458 7.25042 10.1276 7.08754 10.5479 7.08754C11.4231 7.08754 12.1326 7.7797 12.1326 8.63353ZM16.3607 11.7079L13.8659 9.27388V8.63353C13.8659 7.7797 14.5754 7.08754 15.4505 7.08754C15.8708 7.08754 16.2739 7.25042 16.571 7.54035L19.0659 9.97436V10.6147C19.0659 11.4685 18.3564 12.1607 17.4813 12.1607C17.061 12.1607 16.6579 11.9978 16.3607 11.7079Z" fill="#FF630B"/>
</g>
<defs>
<clipPath id="clip0_435_45180">
<rect width="15.6" height="15.6" fill="white" transform="translate(5.19922 5.19922)"/>
</clipPath>
</defs>
</svg>
