<svg width="231" height="230" viewBox="0 0 231 230" fill="none" xmlns="http://www.w3.org/2000/svg">
<path d="M44.4668 133.722L45.0388 133.276C47.3713 131.424 50.166 130.244 53.1204 129.865C56.0749 129.486 59.0768 129.922 61.8014 131.126C62.5038 131.448 63.1817 131.821 63.8298 132.242C66.1813 133.808 68.1097 135.93 69.4438 138.421C70.7778 140.911 71.4761 143.692 71.4768 146.518C71.4524 149.848 70.4788 153.321 71.6593 156.42C73.1969 160.457 77.7161 162.282 81.7688 163.682C85.8215 165.081 90.3367 166.927 91.858 170.96C92.8073 173.491 92.3164 176.388 91.213 178.874C88.3043 185.454 81.3348 189.682 74.2476 190.404C67.1604 191.126 60.0488 188.728 54.0326 184.935C45.6027 179.625 38.8481 171.268 36.5885 161.479C34.3289 151.69 37.0834 140.558 44.4668 133.722Z" fill="#F5F5F5"/>
<path d="M193.794 87.7597L193.266 88.2384C191.061 90.2417 188.349 91.6031 185.425 92.1752C182.501 92.7473 179.476 92.5082 176.678 91.4838C175.951 91.2111 175.246 90.8843 174.569 90.5062C172.119 89.0976 170.055 87.1054 168.561 84.7068C167.067 82.3082 166.189 79.5776 166.005 76.7577C165.81 73.4352 166.556 69.9018 165.193 66.8876C163.396 62.9606 158.767 61.4353 154.646 60.3035C150.524 59.1716 145.883 57.63 144.098 53.695C142.982 51.2325 143.287 48.3116 144.224 45.7599C146.698 39.0013 153.376 34.3279 160.402 33.1474C167.429 31.9669 174.682 33.8938 180.934 37.2853C189.688 42.0358 196.974 49.9343 199.858 59.553C202.743 69.1716 200.71 80.4575 193.794 87.7597Z" fill="#F5F5F5"/>
<path d="M60.1926 117.697C65.4143 112.475 65.4143 104.009 60.1926 98.7874C54.9708 93.5656 46.5047 93.5656 41.2829 98.7874C36.0612 104.009 36.0612 112.475 41.2829 117.697C46.5047 122.919 54.9708 122.919 60.1926 117.697Z" fill="#F5F5F5"/>
<path d="M194.544 128.756C199.766 123.534 199.766 115.068 194.544 109.846C189.322 104.624 180.856 104.624 175.635 109.846C170.413 115.068 170.413 123.534 175.635 128.756C180.856 133.977 189.322 133.977 194.544 128.756Z" fill="#F5F5F5"/>
<path d="M127.031 57.0661L130.682 57.6746C132.947 60.3779 136.14 62.1366 139.635 62.6048C143.13 63.0731 146.674 62.2171 149.57 60.2052C152.466 58.1933 154.505 55.171 155.286 51.7322C156.067 48.2934 155.533 44.6869 153.79 41.6215C152.047 38.5562 149.22 36.2536 145.866 35.1665C142.511 34.0794 138.871 34.2863 135.662 35.7466C132.452 37.2068 129.904 39.8149 128.52 43.058C127.135 46.3012 127.014 49.9449 128.179 53.273L127.031 57.0661Z" fill="white"/>
<path d="M127.031 57.0658C127.031 57.0658 127.031 56.9847 127.096 56.8224L127.303 56.0962C127.498 55.4431 127.778 54.4735 128.139 53.2565L128.163 53.1713L128.216 53.2443L128.139 53.2808C127.365 51.1085 127.136 48.7792 127.473 46.4979C127.702 44.9998 128.161 43.5463 128.837 42.1896C129.619 40.662 130.67 39.2878 131.94 38.1328C133.357 36.8578 135.011 35.8749 136.808 35.2404C138.754 34.5368 140.834 34.2776 142.893 34.4817C145.077 34.7015 147.182 35.413 149.051 36.5629C151.012 37.7788 152.641 39.4627 153.79 41.4634C154.38 42.478 154.847 43.5593 155.181 44.6845C155.262 44.9644 155.315 45.2484 155.38 45.5324C155.455 45.8097 155.512 46.0915 155.55 46.3762C155.587 46.6602 155.619 46.9482 155.656 47.2281L155.705 47.6338V48.0395C155.776 50.2584 155.336 52.4642 154.419 54.4857C153.56 56.3961 152.28 58.0869 150.674 59.4309C149.202 60.665 147.501 61.5957 145.668 62.1692C144.007 62.6798 142.266 62.8819 140.532 62.7656L139.344 62.6277C138.938 62.5709 138.581 62.4694 138.212 62.3964C137.501 62.2327 136.805 62.0102 136.131 61.7311C134.003 60.8559 132.123 59.4728 130.654 57.7027H130.678L127.956 57.2362L127.262 57.1104L127.031 57.0658L127.279 57.0983L127.989 57.2078L130.695 57.6135C132.167 59.3563 134.041 60.7151 136.155 61.5729C136.824 61.846 137.515 62.0631 138.22 62.222C138.589 62.2909 138.958 62.3924 139.344 62.4451L140.52 62.5749C142.229 62.6828 143.944 62.4765 145.579 61.9664C147.386 61.3955 149.062 60.4732 150.512 59.2524C152.089 57.9355 153.35 56.2816 154.204 54.4127C155.103 52.4178 155.534 50.243 155.461 48.0557V47.65L155.412 47.2444C155.376 46.9685 155.344 46.6886 155.307 46.4046C155.267 46.1245 155.212 45.8468 155.141 45.573C155.072 45.2971 155.019 45.0131 154.942 44.7616C154.614 43.6516 154.153 42.5851 153.571 41.5852C152.438 39.6154 150.835 37.9568 148.905 36.7576C147.06 35.6158 144.979 34.9083 142.82 34.6886C140.812 34.4891 138.783 34.7357 136.881 35.4107C135.108 36.0325 133.474 36.9975 132.074 38.2505C130.813 39.3918 129.77 40.7526 128.995 42.2667C128.322 43.6034 127.861 45.0362 127.628 46.5141C127.284 48.7754 127.494 51.0863 128.24 53.2484L128.346 53.5486L128.167 53.289H128.24C127.863 54.506 127.567 55.4472 127.368 56.0922C127.267 56.4086 127.189 56.652 127.137 56.8265C127.084 57.0009 127.031 57.0658 127.031 57.0658Z" fill="#263238"/>
<path d="M144.492 42.0965C143.535 41.4827 142.424 41.1509 141.287 41.1391C140.247 41.1266 139.221 41.3793 138.306 41.8734C137.672 42.2294 137.143 42.7456 136.772 43.3703C136.309 44.1998 136.067 45.1344 136.07 46.0843C136.073 46.2365 136.134 46.3819 136.241 46.49C136.294 46.5443 136.357 46.5877 136.426 46.6176C136.496 46.6476 136.571 46.6635 136.646 46.6644H138.707C138.853 46.6701 138.995 46.6219 139.108 46.5291C139.22 46.4363 139.294 46.3054 139.316 46.1614C139.348 45.6609 139.577 45.1934 139.952 44.8606C140.327 44.5279 140.819 44.3568 141.32 44.3845C141.709 44.3683 142.093 44.4737 142.42 44.6859C142.746 44.8982 142.998 45.2069 143.141 45.5691C143.264 45.8763 143.312 46.208 143.281 46.5373C143.251 46.8665 143.143 47.1839 142.967 47.4636C142.738 47.8064 142.424 48.0841 142.056 48.2696C141.687 48.4552 141.277 48.5423 140.865 48.5225C140.561 48.5257 140.27 48.6489 140.056 48.8654C139.842 49.0818 139.721 49.3741 139.721 49.6786V51.8977C139.723 52.053 139.785 52.2016 139.895 52.311C140.005 52.4205 140.154 52.4819 140.31 52.4819H142.338C142.415 52.4819 142.491 52.4666 142.563 52.437C142.634 52.4074 142.698 52.364 142.753 52.3093C142.807 52.2547 142.85 52.1898 142.879 52.1184C142.908 52.0471 142.923 51.9707 142.922 51.8936V51.4109C142.922 51.4051 142.924 51.3994 142.928 51.395C142.932 51.3905 142.937 51.3875 142.943 51.3865C143.74 51.0958 144.464 50.6348 145.064 50.0356C145.564 49.5247 145.955 48.9174 146.213 48.2507C146.471 47.584 146.591 46.8718 146.565 46.1573C146.597 45.3595 146.423 44.567 146.06 43.8559C145.697 43.1448 145.157 42.5389 144.492 42.0965Z" fill="#CFD8DC"/>
<path d="M141.448 53.0332H141.273C140.883 53.0558 140.516 53.2275 140.248 53.5127C139.981 53.798 139.833 54.1751 139.836 54.5662C139.839 54.9572 139.991 55.3323 140.262 55.614C140.534 55.8957 140.903 56.0624 141.293 56.0798H141.472C141.875 56.0766 142.261 55.9132 142.544 55.6257C142.827 55.3381 142.984 54.9499 142.981 54.5464C142.978 54.1429 142.814 53.7572 142.527 53.4742C142.239 53.1912 141.851 53.034 141.448 53.0373V53.0332Z" fill="#CFD8DC"/>
<path d="M147.048 75.3535C137.47 68.9114 126.083 66.6152 118.619 66.6152C111.625 66.6152 101.341 67.7187 92.0304 72.9681C86.3767 76.1049 81.6466 80.6727 78.3145 86.2135C74.3875 92.7612 72.2577 100.863 71.994 110.29C71.9756 110.987 72.097 111.681 72.3512 112.33C72.6054 112.98 72.9871 113.571 73.4738 114.07C73.9605 114.57 74.5424 114.966 75.185 115.237C75.8276 115.507 76.5179 115.646 77.2151 115.645H95.5477C96.8045 115.641 98.0178 115.185 98.9664 114.361C99.9151 113.536 100.536 112.398 100.716 111.155C101.527 105.406 104.943 95.7388 118.659 95.4914C129.105 95.3129 133.418 102.879 134.789 106.14C137.016 111.447 136.448 117.739 133.276 122.972C128.399 131.033 119.442 132.25 114.513 132.25C111.801 132.257 109.201 133.336 107.281 135.252C105.361 137.168 104.276 139.765 104.262 142.477V162.201C104.264 163.586 104.815 164.914 105.794 165.893C106.774 166.873 108.102 167.424 109.487 167.426H127.337C128.722 167.424 130.049 166.873 131.029 165.893C132.008 164.914 132.56 163.586 132.562 162.201V158.071C132.562 158.023 132.578 157.976 132.606 157.937C132.635 157.897 132.674 157.868 132.72 157.852C139.825 155.322 146.292 151.271 151.669 145.982C160.683 137.017 165.255 125.447 165.255 111.593C165.284 91.7672 155.357 80.9397 147.048 75.3535Z" fill="#CFD8DC"/>
<path d="M117.964 176.639H119.408C122.78 176.699 125.993 178.08 128.356 180.486C130.719 182.891 132.044 186.128 132.044 189.501C132.044 192.873 130.719 196.11 128.356 198.516C125.993 200.921 122.78 202.303 119.408 202.363H117.964C114.592 202.303 111.379 200.921 109.016 198.516C106.652 196.11 105.328 192.873 105.328 189.501C105.328 186.128 106.652 182.891 109.016 180.486C111.379 178.08 114.592 176.699 117.964 176.639Z" fill="#263238"/>
<path d="M109.416 171.256H127.266C128.629 171.276 129.944 170.754 130.922 169.806C131.901 168.858 132.464 167.56 132.487 166.198V158.133C132.489 158.086 132.505 158.04 132.533 158.002C132.562 157.965 132.601 157.937 132.645 157.922C135.585 156.868 138.402 155.498 141.047 153.837C129.643 153.755 108.857 153.642 104.195 153.808V166.198C104.219 167.56 104.782 168.858 105.76 169.806C106.739 170.754 108.054 171.276 109.416 171.256Z" fill="#263238"/>
<path d="M124.11 81.9062L112.654 48.6407C110.22 40.3121 103.372 34.7746 95.1122 37.4237L94.3658 37.7158C90.7309 39.1192 87.7576 41.8397 86.0377 45.3359C84.3177 48.8322 83.9772 52.8479 85.0838 56.5838C87.2218 63.7927 89.6721 71.7278 91.169 75.46C94.2643 83.1679 102.366 81.0178 102.366 81.0178C102.366 81.0178 104.171 86.1658 104.95 88.4823L109.149 92.6283L110.881 90.7338L124.11 81.9062Z" fill="#FFBF9D"/>
<path d="M102.367 81.0176C102.367 81.0176 107.373 79.3949 111.32 74.1211C111.32 74.1211 111.146 80.8959 103.13 83.188L102.367 81.0176Z" fill="#FF9A6C"/>
<path d="M90.6884 61.8351C90.7981 62.1245 91.0161 62.36 91.2962 62.4917C91.5762 62.6234 91.8966 62.6411 92.1895 62.541C92.335 62.498 92.4704 62.4263 92.5877 62.3301C92.7051 62.2339 92.802 62.1152 92.8727 61.981C92.9434 61.8467 92.9865 61.6997 92.9994 61.5485C93.0124 61.3973 92.9949 61.2451 92.9481 61.1008C92.84 60.81 92.6225 60.5729 92.3421 60.4403C92.0616 60.3076 91.7404 60.2899 91.4471 60.3909C91.3014 60.4343 91.1659 60.5064 91.0485 60.603C90.9311 60.6996 90.8343 60.8186 90.7636 60.9532C90.6929 61.0878 90.6498 61.2351 90.6369 61.3865C90.624 61.538 90.6415 61.6905 90.6884 61.8351Z" fill="#263238"/>
<path d="M87.9405 58.997C88.1312 59.0903 88.7519 58.141 89.9284 57.6866C91.1048 57.2323 92.2245 57.4878 92.2975 57.2809C92.3381 57.1917 92.0947 56.9848 91.6079 56.8753C90.9536 56.716 90.266 56.7642 89.6403 57.0132C89.0201 57.249 88.4905 57.6751 88.1271 58.2302C87.8716 58.6481 87.8472 58.9605 87.9405 58.997Z" fill="#263238"/>
<path d="M100.667 57.8814C100.862 57.9706 101.478 57.0254 102.655 56.567C103.831 56.1085 104.955 56.3682 105.028 56.1613C105.064 56.072 104.825 55.8651 104.338 55.7556C103.683 55.5971 102.994 55.6453 102.367 55.8935C101.748 56.1306 101.22 56.5564 100.858 57.1106C100.598 57.5325 100.574 57.8408 100.667 57.8814Z" fill="#263238"/>
<path d="M99.0016 65.5775C98.9814 65.5085 98.1903 65.6667 96.9286 65.9832C96.6122 66.0684 96.2998 66.1211 96.17 65.9345C96.0215 65.63 95.9705 65.2872 96.024 64.9527C96.024 64.1035 96.024 63.2137 96.024 62.2834C95.9996 58.4984 95.8536 55.4315 95.7035 55.4356C95.5534 55.4396 95.4479 58.5065 95.4722 62.2915C95.4722 63.2246 95.4844 64.1143 95.5088 64.9609C95.4601 65.4027 95.5678 65.8477 95.813 66.2185C95.8993 66.3081 96.0046 66.3772 96.1211 66.4207C96.2377 66.4643 96.3625 66.4811 96.4864 66.47C96.6737 66.4497 96.8577 66.4061 97.0341 66.3402C98.2714 65.9304 99.0219 65.6465 99.0016 65.5775Z" fill="#263238"/>
<path d="M97.91 51.1754C98.1899 51.4147 99.2244 50.648 100.624 50.0719C102.024 49.4959 103.277 49.2606 103.301 48.8954C103.301 48.721 102.961 48.5385 102.368 48.4898C101.597 48.4483 100.827 48.583 100.115 48.8839C99.4038 49.1848 98.7703 49.6438 98.2629 50.2261C97.8897 50.6804 97.7842 51.0577 97.91 51.1754Z" fill="#263238"/>
<path d="M86.5226 55.5131C86.8755 55.6916 87.7396 55.0466 88.9161 54.6003C90.0925 54.1541 91.1513 53.9837 91.2771 53.6145C91.3258 53.4401 91.0662 53.2089 90.5388 53.1277C89.8213 53.026 89.0897 53.1199 88.4211 53.3995C87.7467 53.6552 87.1548 54.09 86.7092 54.6571C86.3968 55.0872 86.3643 55.4198 86.5226 55.5131Z" fill="#263238"/>
<path d="M114.117 54.2597C114.227 54.1502 118.843 50.6086 120.722 55.992C122.6 61.3753 116.823 62.1461 116.758 61.996C116.693 61.8459 114.117 54.2597 114.117 54.2597Z" fill="#FFBF9D"/>
<path d="M117.692 59.3819C117.692 59.3575 117.809 59.4143 117.992 59.4346C118.248 59.4512 118.501 59.3684 118.698 59.2034C119.193 58.7977 119.355 57.7267 119.043 56.7693C118.894 56.3033 118.643 55.8764 118.308 55.5198C118.199 55.3704 118.055 55.2495 117.889 55.1675C117.723 55.0856 117.54 55.045 117.355 55.0493C117.237 55.0582 117.127 55.1081 117.042 55.1904C116.958 55.2728 116.905 55.3822 116.893 55.4996C116.872 55.674 116.945 55.7714 116.917 55.7876C116.889 55.8038 116.771 55.7389 116.738 55.5036C116.722 55.3617 116.755 55.2185 116.832 55.0979C116.941 54.9341 117.11 54.8191 117.302 54.7774C117.538 54.744 117.779 54.7716 118.001 54.8575C118.223 54.9435 118.42 55.0849 118.572 55.2683C118.962 55.6542 119.253 56.1289 119.42 56.6517C119.765 57.747 119.566 58.9559 118.864 59.4509C118.735 59.5432 118.586 59.6053 118.43 59.6327C118.273 59.6601 118.113 59.652 117.959 59.6091C117.749 59.5077 117.676 59.3981 117.692 59.3819Z" fill="#FF9A6C"/>
<path d="M103.056 65.034C102.869 65.0867 103.279 66.3281 102.512 67.5613C101.745 68.7946 100.382 69.1029 100.431 69.2773C100.431 69.3625 100.804 69.4193 101.368 69.2489C102.099 69.0173 102.724 68.5344 103.133 67.8859C103.523 67.2639 103.656 66.5151 103.506 65.7966C103.38 65.2611 103.141 65.0015 103.056 65.034Z" fill="#263238"/>
<path d="M71.6731 52.8105C71.6585 52.4613 71.7791 52.1198 72.0098 51.8572C72.4966 51.2771 73.2268 51.0742 73.9043 50.8227C75.5964 50.1834 77.1219 49.1696 78.3667 47.8572C77.7435 47.7858 77.1356 47.6161 76.5655 47.3542C75.3931 46.7943 74.4276 45.6422 74.4154 44.344C74.4032 44.2229 74.4183 44.1006 74.4597 43.9861C74.5012 43.8717 74.5678 43.768 74.6548 43.6828C74.9672 43.4516 75.3931 43.6828 75.7339 43.8735C76.8454 44.486 77.7217 44.6077 78.8698 44.0682C79.5714 43.7707 80.1968 43.3186 80.6994 42.7457C80.6994 42.7132 80.7237 42.6767 80.74 42.6443C80.9185 42.2386 81.0929 41.8897 81.2673 41.5286C82.5817 38.8147 83.8312 36.8147 85.3647 35.4435C87.6162 33.4638 91.8555 31.4922 94.8332 31.2488C97.8109 31.0054 101.056 32.3522 102.423 35.0216C103.498 33.1839 105.803 32.3847 107.937 32.478L107.973 32.4415C110.314 32.4415 112.269 34.2305 113.632 36.1331L113.847 36.4496C114.943 37.3252 116.232 37.9248 117.608 38.198C117.851 38.2426 118.131 38.3035 118.237 38.5266C118.271 38.6446 118.274 38.7693 118.246 38.8888C118.217 39.0083 118.158 39.1183 118.074 39.2082C117.699 39.7405 117.208 40.1814 116.638 40.4982C117.008 40.938 117.416 41.3452 117.855 41.7153C118.233 42.0317 118.667 42.409 118.618 42.8958C118.578 43.0807 118.482 43.249 118.344 43.3781C118.205 43.5071 118.031 43.5908 117.843 43.6179C117.466 43.6645 117.083 43.6313 116.72 43.5205L118.001 44.9404C117.292 45.3343 116.5 45.5566 115.689 45.5895C115.945 47.7274 116.906 51.5164 116.87 53.0377C115.454 53.5651 115.052 53.5326 114.436 54.0235C113.624 54.6604 114.549 56.1817 113.174 56.1411C112.476 56.1209 110.707 54.1128 110.281 53.5651C107.44 49.8657 105.427 45.599 104.379 41.054C103.192 40.4378 101.897 40.0563 100.565 39.9303L100.687 39.979C98.2206 39.979 95.4742 40.1169 93.7541 41.8816C92.4194 43.2487 92.0624 45.2609 91.32 47.0256C89.9245 50.3684 87.8109 52.632 84.4478 53.9829C84.9752 56.4616 86.2531 60.3683 86.9144 62.6239L83.4661 58.8592V58.8795C83.231 58.6772 83.0063 58.4633 82.7927 58.2385L82.7197 58.1736C82.3789 57.8207 82.0462 57.4677 81.6568 57.1351V57.1635C80.8454 58.6401 78.4966 57.6462 78.9874 56.0276C79.0832 55.7043 79.2282 55.3978 79.4174 55.1188C79.2389 55.4761 78.971 55.7812 78.6398 56.0044C78.3085 56.2276 77.9252 56.3613 77.527 56.3927C77.1278 56.4093 76.7342 56.294 76.4071 56.0645C76.08 55.8349 75.8377 55.504 75.7177 55.1229C75.6576 54.8585 75.668 54.583 75.7477 54.3239C75.8274 54.0648 75.9737 53.8311 76.172 53.6462C75.2256 54.0687 74.1741 54.1973 73.1538 54.0154C72.456 53.9018 71.7298 53.5732 71.6731 52.8105Z" fill="#263238"/>
<path d="M100.281 36.8105C100.641 36.9283 100.989 37.0762 101.324 37.2527C102.208 37.7842 102.939 38.5363 103.446 39.4353C103.814 40.05 104.117 40.7012 104.35 41.3785C104.61 42.1006 104.825 42.8957 105.056 43.7355C105.287 44.6176 105.571 45.4846 105.908 46.3318C106.093 46.7802 106.311 47.2141 106.561 47.63C106.801 48.0839 107.153 48.4692 107.583 48.7496C107.772 48.8574 107.985 48.9142 108.202 48.9142C108.419 48.9142 108.632 48.8574 108.821 48.7496C109.187 48.545 109.474 48.2217 109.632 47.8328C109.854 47.0968 109.872 46.3146 109.685 45.5691L109.527 45.6462C109.973 46.1553 110.491 46.5967 111.064 46.9565C111.611 47.285 112.264 47.3897 112.886 47.2486C113.172 47.1848 113.435 47.0446 113.648 46.843C113.839 46.64 113.963 46.3839 114.005 46.1087C114.048 45.8535 114.021 45.5915 113.928 45.3501C113.837 45.1287 113.672 44.9454 113.462 44.8308L113.401 44.9322C114.058 45.3049 114.787 45.5344 115.539 45.6056C115.736 45.6159 115.934 45.6159 116.131 45.6056C116.199 45.6117 116.266 45.6117 116.334 45.6056C116.267 45.596 116.198 45.596 116.131 45.6056C115.934 45.6008 115.738 45.5846 115.543 45.557C114.809 45.4607 114.101 45.2194 113.462 44.847L113.405 44.9525C113.592 45.072 113.737 45.2469 113.82 45.4526C113.903 45.6584 113.919 45.8849 113.867 46.1006C113.827 46.3468 113.713 46.5748 113.539 46.7537C113.349 46.9423 113.11 47.0743 112.849 47.135C112.266 47.2563 111.659 47.152 111.149 46.843C110.595 46.4859 110.094 46.0531 109.661 45.557L109.462 45.346L109.502 45.634C109.679 46.3463 109.662 47.0928 109.454 47.7963C109.313 48.139 109.062 48.4247 108.74 48.6077C108.579 48.6994 108.397 48.7477 108.212 48.7477C108.027 48.7477 107.845 48.6994 107.685 48.6077C107.286 48.3427 106.961 47.9812 106.74 47.5569C106.488 47.1371 106.269 46.6991 106.082 46.2466C105.747 45.4072 105.462 44.5483 105.231 43.6746C104.991 42.8389 104.772 42.0519 104.504 41.3136C104.261 40.6277 103.945 39.9695 103.563 39.3501C103.038 38.4393 102.277 37.6868 101.36 37.1716C101.023 36.9918 100.659 36.8698 100.281 36.8105Z" fill="#455A64"/>
<path d="M78.6719 53.0213C78.6719 53.0213 78.6962 53.0213 78.753 53.0538L79.0005 53.1268C79.1335 53.1677 79.269 53.2002 79.4062 53.2242C79.5936 53.2629 79.7833 53.29 79.9741 53.3053C81.1954 53.4146 82.4247 53.2194 83.5522 52.7374C85.2282 52.0185 86.6599 50.8292 87.6739 49.3134C88.8941 47.4572 89.7224 45.3713 90.1079 43.1837C90.3432 42.0315 90.4649 40.8916 90.6637 39.8084C90.8202 38.766 91.1277 37.752 91.5765 36.7983C91.978 35.9377 92.5889 35.1914 93.3534 34.6279C93.7005 34.3852 94.0839 34.199 94.4893 34.0762C94.8677 33.9659 95.2594 33.9073 95.6535 33.9018C96.3375 33.894 97.0152 34.0323 97.6414 34.3074C98.1143 34.5133 98.5502 34.7956 98.9314 35.1431C99.238 35.4581 99.51 35.8048 99.7428 36.1776C99.7428 36.1776 99.7428 36.1492 99.7063 36.1005L99.5846 35.8733C99.4122 35.589 99.2065 35.3261 98.972 35.0904C98.5913 34.7257 98.1526 34.4268 97.6738 34.206C97.0374 33.9138 96.3457 33.7616 95.6454 33.7598C95.2339 33.7615 94.8246 33.8188 94.4284 33.9301C94.0029 34.054 93.6001 34.2458 93.2357 34.4981C92.4421 35.072 91.8059 35.8366 91.3858 36.7212C90.9358 37.684 90.6244 38.7056 90.4609 39.7557C90.2621 40.847 90.1404 41.9829 89.9051 43.1269C89.5289 45.2942 88.7204 47.3636 87.5278 49.212C86.5372 50.7082 85.1375 51.8882 83.4954 52.6116C82.3915 53.1038 81.1842 53.3196 79.9782 53.2404C79.5388 53.1931 79.1026 53.1199 78.6719 53.0213Z" fill="#455A64"/>
<path d="M76.7344 49.8215C76.8477 49.8679 76.9662 49.9006 77.0873 49.9189C77.4108 49.987 77.739 50.0304 78.0691 50.0487C78.5613 50.0792 79.0553 50.0684 79.5457 50.0163C80.1454 49.9458 80.7375 49.8209 81.3145 49.643C81.8888 49.4578 82.4443 49.2187 82.9737 48.9291C83.4019 48.694 83.8091 48.4225 84.1907 48.1177C84.4497 47.9136 84.6924 47.6898 84.9169 47.4483C85.0751 47.2739 85.1603 47.1765 85.1481 47.1644C85.136 47.1522 84.7668 47.5173 84.1055 48.0082C83.72 48.2969 83.3132 48.5559 82.8885 48.783C81.8427 49.3427 80.7026 49.7044 79.5254 49.8499C79.0391 49.9023 78.5496 49.9185 78.0609 49.8986C77.2496 49.8986 76.7425 49.785 76.7344 49.8215Z" fill="#455A64"/>
<path d="M91.449 106.055C91.38 106.055 92.3009 110.679 93.2015 115.454H93.4855C92.5849 110.679 91.522 106.034 91.449 106.055Z" fill="#263238"/>
<path d="M95.3277 115.686C97.9321 115.686 100.33 113.812 100.695 111.256C101.506 105.516 104.788 95.8039 118.593 95.5645C129.113 95.386 133.538 102.83 134.78 106.145C136.747 111.398 136.504 117.779 133.307 123.005C128.399 131.033 119.364 132.25 114.419 132.282C111.7 132.278 109.089 133.349 107.156 135.262C105.224 137.175 104.126 139.774 104.103 142.493V163.942L132.593 163.402V158.051C132.594 158.002 132.61 157.955 132.639 157.916C132.669 157.876 132.709 157.847 132.756 157.832C138.269 155.914 143.402 153.039 147.92 149.341L146.066 124.644C146.066 124.644 151.486 114.222 151.218 111.877C148.764 90.4571 141.482 78.3354 138.516 77.2036C135.194 75.9378 122.358 76.5545 122.358 76.5545C122.358 76.5545 116.812 86.8141 109.036 87.9621C104.707 88.595 103.129 83.1914 103.129 83.1914L93.064 89.0859C85.9079 92.6964 84.5204 106.733 84.3906 115.686H95.3277Z" fill="#455A64"/>
<g opacity="0.3">
<path d="M128.36 128.305C134.101 129.765 139.764 131.615 145.508 133.075C145.945 133.142 146.351 133.34 146.673 133.643C147.099 134.134 147.001 134.86 146.811 135.493C146.147 137.462 144.95 139.209 143.354 140.54C142.105 141.635 140.608 142.568 138.949 142.69C137.103 142.836 135.326 141.98 133.768 140.982C129.718 138.387 126.426 134.766 124.227 130.487C124.227 130.487 125.573 129.931 126.604 129.38C127.208 129.053 127.794 128.694 128.36 128.305Z" fill="black"/>
</g>
<path d="M134.664 106.286C136.96 111.584 136.376 117.868 133.102 123.097C131.47 125.755 129.18 127.946 126.453 129.458C128.923 132.229 131.67 134.74 134.652 136.951C137.585 139.032 144.348 138.44 146.911 133.884C150.076 128.258 150.339 113.897 150.339 113.897L150.94 105.235L133.252 102.525L133.11 103.012C133.73 104.052 134.25 105.148 134.664 106.286Z" fill="#FFBF9D"/>
<path d="M103.87 102.635L102.864 104.258C102.097 104.789 101.371 104.497 100.896 103.515L90.0078 86.9435L92.6609 85.2559L104.685 101.15C104.685 101.15 104.856 101.974 103.87 102.635Z" fill="#455A64"/>
<path d="M78.7176 86.6389C77.0568 85.6985 75.6416 84.3792 74.5872 82.7883C73.5329 81.1975 72.8692 79.3801 72.6503 77.4841C72.4314 75.5882 72.6634 73.6674 73.3274 71.8781C73.9914 70.0888 75.0687 68.4817 76.4715 67.1876C77.8743 65.8935 79.563 64.9491 81.3999 64.4312C83.2368 63.9133 85.1701 63.8367 87.0422 64.2075C88.9144 64.5783 90.6725 65.3861 92.1733 66.565C93.6742 67.744 94.8753 69.2608 95.6789 70.9919C96.7611 73.3197 97.0758 75.9312 96.5775 78.4495C96.0793 80.9678 94.7939 83.2627 92.9068 85.0031C91.0198 86.7435 88.6286 87.8394 86.0783 88.1326C83.528 88.4259 80.9504 87.9014 78.7176 86.6348V86.6389ZM90.255 66.2576C87.9094 64.9319 85.1674 64.4877 82.5232 65.0052C79.879 65.5227 77.5067 66.9677 75.8338 69.0799C74.161 71.192 73.2978 73.8323 73.3998 76.5247C73.5017 79.2171 74.5622 81.7845 76.39 83.7641C78.2178 85.7437 80.6926 87.0052 83.3684 87.3211C86.0441 87.6371 88.7447 86.9868 90.9833 85.4875C93.222 83.9881 94.8513 81.7383 95.5776 79.1437C96.3039 76.5491 96.0795 73.7804 94.9447 71.3367C93.951 69.195 92.3109 67.4186 90.255 66.2576Z" fill="#263238"/>
<path d="M79.2332 86.133C77.5724 85.1927 76.1572 83.8733 75.1028 82.2825C74.0485 80.6916 73.3848 78.8742 73.1659 76.9783C72.947 75.0823 73.179 73.1615 73.843 71.3722C74.5071 69.5829 75.5844 67.9758 76.9872 66.6817C78.3899 65.3876 80.0786 64.4432 81.9155 63.9253C83.7524 63.4075 85.6857 63.3308 87.5579 63.7016C89.43 64.0724 91.1881 64.8802 92.689 66.0592C94.1898 67.2381 95.391 68.7549 96.1946 70.486C97.2753 72.814 97.5889 75.425 97.0902 77.9426C96.5916 80.4603 95.3064 82.7546 93.4199 84.4949C91.5334 86.2351 89.1431 87.3315 86.5935 87.6259C84.0439 87.9203 81.4666 87.3976 79.2332 86.133ZM90.7707 65.7518C88.4258 64.4268 85.6848 63.9831 83.0417 64.5006C80.3987 65.0181 78.0274 66.4627 76.3554 68.5741C74.6833 70.6855 73.8206 73.3248 73.9226 76.0161C74.0246 78.7075 75.0847 81.2738 76.9117 83.2526C78.7388 85.2314 81.2126 86.4924 83.8873 86.8083C86.5619 87.1243 89.2615 86.4743 91.4993 84.9757C93.7371 83.4771 95.3659 81.2283 96.0922 78.6348C96.8185 76.0413 96.5944 73.2737 95.4603 70.8308C94.4659 68.6896 92.826 66.9134 90.7707 65.7518Z" fill="#455A64"/>
<path d="M95.2751 75.7598C95.27 75.6936 95.27 75.6271 95.2751 75.561C95.277 75.3714 95.2689 75.1818 95.2508 74.993C95.2001 74.2961 95.0639 73.608 94.8451 72.9444C94.6999 72.4867 94.5237 72.0394 94.3177 71.6056C94.0819 71.1095 93.8107 70.6309 93.5064 70.1736C93.1668 69.6691 92.7869 69.1929 92.3705 68.7497C91.9268 68.2673 91.4393 67.8273 90.9141 67.4353C90.3891 67.0449 89.8265 66.7079 89.2346 66.4292C88.6813 66.175 88.1072 65.9687 87.5186 65.8125C86.5177 65.5555 85.4837 65.4515 84.4517 65.5042C83.7543 65.538 83.0623 65.6441 82.3868 65.8207C82.1474 65.8775 81.9811 65.9505 81.8432 65.9829C81.7798 66.0048 81.7146 66.0211 81.6484 66.0316C81.7074 66.0027 81.7684 65.9783 81.831 65.9586C81.9568 65.914 82.1352 65.8369 82.3746 65.772C83.0485 65.5741 83.7425 65.453 84.4436 65.4109C85.4867 65.3444 86.5339 65.4416 87.547 65.699C88.1451 65.8523 88.7288 66.0573 89.2914 66.3115C89.8901 66.5943 90.4594 66.9354 90.9912 67.3298C91.5208 67.7284 92.0137 68.1737 92.4638 68.6604C92.8842 69.111 93.2668 69.5954 93.6078 70.1087C93.9119 70.5732 94.183 71.0585 94.4192 71.561C94.6236 72.0014 94.7971 72.4555 94.9384 72.92C95.1493 73.5909 95.272 74.2864 95.3035 74.989C95.3035 75.2364 95.3035 75.4312 95.3035 75.561C95.2984 75.6278 95.2889 75.6942 95.2751 75.7598Z" fill="white"/>
<path d="M82.6328 85.6266C82.6328 85.5941 83.1927 85.801 84.1257 85.9308L84.4949 85.9754C84.6206 85.9754 84.7545 85.9754 84.9005 85.9754C85.1764 85.9998 85.4726 85.9754 85.7809 85.9754C87.133 85.9126 88.4552 85.5554 89.6551 84.9288C89.9165 84.7942 90.1711 84.6466 90.4178 84.4866C90.5354 84.4095 90.649 84.3406 90.7545 84.2635L91.0466 84.0444C91.789 83.4643 92.1662 83.0059 92.1865 83.0302C92.1087 83.1424 92.0204 83.247 91.9228 83.3426C91.8194 83.4671 91.7069 83.5837 91.5861 83.6915C91.4323 83.835 91.2712 83.9704 91.1034 84.0972L90.8113 84.3284C90.7099 84.4095 90.5922 84.4785 90.4786 84.5596C90.2314 84.726 89.9755 84.8791 89.7119 85.018C88.5003 85.661 87.1595 86.0229 85.789 86.0769C85.4726 86.0769 85.1724 86.0769 84.8965 86.0769C84.7545 86.0769 84.6206 86.0769 84.4908 86.0444L84.1216 85.9917C83.9097 85.9627 83.6997 85.9207 83.4928 85.8659C83.3343 85.8344 83.1784 85.791 83.0263 85.7361C82.8923 85.7105 82.7607 85.6739 82.6328 85.6266Z" fill="white"/>
<path d="M90.9696 77.8614C90.9453 77.8857 89.3469 76.3076 87.4402 74.332C85.5335 72.3563 83.9798 70.7336 84.0082 70.7093C84.0366 70.6849 85.6309 72.263 87.5335 74.2387C89.4362 76.2143 90.998 77.837 90.9696 77.8614Z" fill="white"/>
<path d="M89.1037 81.0387C89.0631 81.0036 89.0252 80.9656 88.9901 80.9251L88.6777 80.5884L87.5499 79.3308C86.5966 78.2679 85.2781 76.8034 83.8015 75.201C82.3248 73.5985 80.9617 72.1665 79.9921 71.1442L78.8319 69.9272C78.7021 69.7892 78.5966 69.6797 78.5195 69.5904C78.4821 69.552 78.4468 69.5113 78.4141 69.4688C78.459 69.4986 78.4999 69.534 78.5358 69.5742L78.8644 69.8947C79.1524 70.1746 79.5581 70.5844 80.0571 71.1117C81.055 72.134 82.4181 73.5458 83.8988 75.1685C85.3795 76.7912 86.6818 78.2436 87.6189 79.3227C88.0854 79.8622 88.4627 80.3003 88.7183 80.6087L89.0104 80.9616C89.044 80.9841 89.0753 81.0099 89.1037 81.0387Z" fill="white"/>
<g opacity="0.3">
<path d="M79.2222 66.1934L94.1066 82.3515C94.1066 82.3515 92.8895 84.0351 91.7982 84.7856L76.6016 68.2339C77.335 67.3907 78.225 66.6978 79.2222 66.1934Z" fill="white"/>
</g>
<g opacity="0.3">
<path d="M75.3278 70.0977L89.9647 85.8501C89.9647 85.8501 90.0986 85.9231 89.0925 86.1787L74.9141 70.8968C74.9895 70.6025 75.131 70.3292 75.3278 70.0977Z" fill="white"/>
</g>
<path d="M113.853 96.0832C110.726 93.572 103.066 87.4301 102.714 87.2678C102.275 87.0609 95.533 84.6674 94.2389 85.4341C92.9448 86.2009 89.4844 90.5538 89.4844 90.5538C89.4844 90.5538 89.813 93.2556 92.8353 91.3205L95.5371 89.5923L98.7501 90.3428C98.7501 90.3428 94.8312 91.9655 94.0036 92.8378C93.176 93.71 91.8535 96.9919 92.6649 97.7667C93.1552 98.2153 93.7738 98.4991 94.4336 98.5781C94.4336 98.5781 92.8109 100.874 95.6831 102.262C95.6831 102.262 96.0888 104.189 97.5168 104.947C98.9448 105.706 101.574 105.434 101.574 105.434C101.738 105.344 101.879 105.217 101.987 105.065C102.095 104.912 102.167 104.736 102.198 104.551C102.228 104.367 102.216 104.177 102.163 103.998C102.11 103.818 102.016 103.653 101.89 103.515C100.981 102.298 99.3058 102.148 99.3058 102.148L101.383 100.931C102.355 101.302 103.26 101.831 104.06 102.497C105.173 101.09 106.445 99.8156 107.849 98.6998C109.979 97.1623 113.853 96.0832 113.853 96.0832Z" fill="#FFBF9D"/>
<path d="M100.562 97.1032C100.46 97.088 100.356 97.088 100.254 97.1032C99.9789 97.1425 99.7075 97.2049 99.4428 97.2898C98.5513 97.5777 97.7496 98.0914 97.1154 98.781C96.4813 99.4705 96.0365 100.312 95.8242 101.225C95.7611 101.498 95.7217 101.776 95.7065 102.057C95.6916 102.159 95.6916 102.263 95.7065 102.365C95.739 102.365 95.743 101.927 95.9256 101.253C96.159 100.37 96.6043 99.5572 97.2229 98.8849C97.8414 98.2127 98.6145 97.7013 99.4753 97.3953C100.128 97.1762 100.567 97.1316 100.562 97.1032Z" fill="#FF9A6C"/>
<path d="M100.696 93.6105C100.586 93.6023 100.475 93.6105 100.367 93.6348C100.239 93.6463 100.111 93.6666 99.9858 93.6957C99.8176 93.7265 99.6511 93.7657 99.4868 93.8133C99.0557 93.9321 98.6361 94.0896 98.2333 94.2839C97.7426 94.5284 97.2754 94.8177 96.8378 95.148C96.4065 95.4852 96.0085 95.8629 95.6491 96.2758C95.3578 96.6149 95.0985 96.9802 94.8743 97.367C94.7729 97.5253 94.6998 97.6835 94.6309 97.8173C94.5714 97.9319 94.5186 98.0497 94.4727 98.1703C94.4263 98.2703 94.3909 98.375 94.3672 98.4827C94.3956 98.4827 94.566 98.077 94.9676 97.4238C95.2003 97.0511 95.4635 96.6983 95.7546 96.3691C96.1135 95.9685 96.5072 95.6006 96.9311 95.2697C97.3778 94.9105 97.8526 94.5876 98.3509 94.3042C98.7255 94.1328 99.1153 93.997 99.5152 93.8985C100.233 93.7119 100.7 93.6389 100.696 93.6105Z" fill="#FF9A6C"/>
<path d="M101.29 89.5982C101.156 89.5255 101.005 89.4905 100.852 89.4967C100.488 89.4799 100.125 89.5451 99.7895 89.6874C99.4438 89.8139 99.1403 90.0345 98.9132 90.3243C98.7347 90.5353 98.6658 90.6975 98.682 90.7057C99.0104 90.34 99.4074 90.0423 99.8503 89.8294C100.31 89.6578 100.8 89.5792 101.29 89.5982Z" fill="#FF9A6C"/>
<path d="M137.287 76.8828C137.287 76.8828 147.181 77.8321 150.321 86.4284C152.812 93.2519 154.167 113.69 153.542 114.108L136.07 113.548C135.842 108.566 134.5 104.72 132.617 102.234L137.287 76.8828Z" fill="#455A64"/>
<path d="M136.329 113.549C136.452 113.596 136.568 113.661 136.673 113.739C136.884 113.873 137.189 114.08 137.55 114.348C138.492 115.05 139.38 115.822 140.207 116.656C141.035 117.489 141.809 118.373 142.523 119.305C142.795 119.662 143.006 119.959 143.148 120.169C143.23 120.272 143.296 120.385 143.347 120.506C143.013 120.155 142.699 119.785 142.406 119.399C141.83 118.709 141.022 117.776 140.057 116.802C139.234 115.976 138.366 115.196 137.456 114.466C136.759 113.906 136.312 113.589 136.329 113.549Z" fill="#FF9A6C"/>
<path d="M134.247 92.5215C134.304 92.5215 133.983 94.7162 133.533 97.3896C133.083 100.063 132.665 102.229 132.608 102.229C132.551 102.229 132.872 100.039 133.322 97.3612C133.772 94.6838 134.19 92.5134 134.247 92.5215Z" fill="#263238"/>
<path d="M112.266 153.824C112.36 153.798 112.456 153.783 112.554 153.779L113.389 153.694L116.464 153.402C119.057 153.154 122.635 152.781 126.582 152.282C130.529 151.783 134.087 151.252 136.659 150.85L139.71 150.363L140.521 150.237C140.617 150.219 140.715 150.209 140.813 150.209C140.721 150.243 140.626 150.267 140.529 150.282L139.718 150.444C139.004 150.586 137.965 150.773 136.679 150.996C134.111 151.438 130.55 151.99 126.602 152.493C122.655 152.996 119.069 153.341 116.46 153.552C115.162 153.657 114.107 153.734 113.381 153.775L112.541 153.82C112.45 153.826 112.358 153.828 112.266 153.824Z" fill="#263238"/>
<path d="M110.719 151.211C110.957 151.17 111.199 151.148 111.441 151.146L113.404 151.041L119.895 150.708L126.386 150.335L128.35 150.221C128.59 150.202 128.831 150.202 129.072 150.221C128.837 150.273 128.598 150.306 128.358 150.318C127.895 150.363 127.226 150.424 126.398 150.493C124.739 150.631 122.447 150.793 119.907 150.931C117.368 151.069 115.08 151.158 113.417 151.203C112.605 151.223 111.916 151.235 111.449 151.239C111.205 151.248 110.961 151.238 110.719 151.211Z" fill="#263238"/>
<path d="M82.9011 114.222C82.9618 113.973 83.0692 113.738 83.2176 113.529C83.4091 113.244 83.6691 113.011 83.9739 112.853C84.2786 112.694 84.6183 112.615 84.9617 112.623C85.305 112.63 85.641 112.723 85.9388 112.894C86.2366 113.065 86.4866 113.309 86.6658 113.602C86.6666 113.323 86.7592 113.053 86.9295 112.833C87.0997 112.613 87.3379 112.455 87.607 112.385C87.8517 112.327 88.1073 112.334 88.3485 112.405C88.5897 112.476 88.8082 112.609 88.9823 112.79C89.3424 113.086 89.5925 113.495 89.6922 113.951C90.1182 112.993 92.3048 113.111 92.5725 113.829C92.5725 113.829 94.4549 111.768 95.4122 112.782C95.8179 113.188 95.6435 113.849 95.3757 114.494C95.0228 115.358 94.7916 115.711 94.3291 116.673L92.5441 116.766C92.394 117.326 92.0776 119.606 92.0127 120.17C91.9735 120.748 91.8073 121.31 91.5259 121.817C91.3825 122.068 91.1779 122.279 90.931 122.43C90.6842 122.581 90.4032 122.667 90.1141 122.681C89.8248 122.681 89.5469 122.568 89.3394 122.367C89.1318 122.165 89.011 121.891 89.0025 121.602C88.9001 122.086 88.6656 122.532 88.3251 122.892C88.1524 123.067 87.9387 123.195 87.7034 123.266C87.4681 123.337 87.2187 123.348 86.9782 123.297C86.739 123.236 86.5301 123.09 86.3906 122.886C86.251 122.683 86.1902 122.435 86.2196 122.19C85.5867 122.632 84.6456 122.239 84.2439 121.581C83.8423 120.924 83.8383 120.101 83.8383 119.33C83.9232 118.624 83.8597 117.908 83.6517 117.228C83.5976 117.132 83.5515 117.032 83.5137 116.928C83.4935 116.76 83.4853 116.59 83.4894 116.421C83.4672 116.061 83.3948 115.706 83.2744 115.366C83.246 115.289 83.2176 115.216 83.1851 115.143C83.0999 114.953 82.9701 114.79 82.8727 114.608C82.8502 114.569 82.8351 114.526 82.8281 114.482C82.8373 114.392 82.862 114.304 82.9011 114.222Z" fill="#FFBF9D"/>
<path d="M80.8976 113.232C80.6605 113.207 80.4206 113.232 80.1944 113.308C79.9682 113.384 79.761 113.507 79.5872 113.671C79.2099 114.076 79.1207 115.099 79.1816 115.662C79.8428 115.788 80.1957 115.642 80.8529 115.764C80.9949 115.792 81.1085 115.764 81.2262 115.837C81.5304 116.056 81.4817 116.782 81.6034 117.135C81.7319 117.433 81.9697 117.67 82.2678 117.798C82.566 117.925 82.9018 117.933 83.2059 117.821C83.5053 117.694 83.7618 117.483 83.9445 117.214C84.1273 116.945 84.2286 116.629 84.2363 116.303C84.2435 115.648 84.0047 115.014 83.5669 114.527C83.2358 114.138 82.8276 113.822 82.3681 113.599C81.9086 113.376 81.4079 113.252 80.8976 113.232Z" fill="#FFBF9D"/>
<path d="M92.136 119.232C92.067 119.232 92.3388 118.015 92.5133 116.506C92.5888 115.867 92.6119 115.222 92.5822 114.579C92.5486 114.31 92.5324 114.039 92.5335 113.768C92.6535 114.022 92.7211 114.298 92.7323 114.579C92.8093 115.233 92.8093 115.893 92.7323 116.546C92.6606 117.195 92.5468 117.839 92.3915 118.473C92.3437 118.737 92.2576 118.993 92.136 119.232Z" fill="#FF9A6C"/>
<path d="M88.9219 121.827C88.9509 121.439 89.0106 121.054 89.1004 120.675C89.2261 119.969 89.4087 118.995 89.5466 117.912C89.6696 116.987 89.7265 116.054 89.717 115.121C89.717 114.407 89.6562 113.965 89.6886 113.961C89.8023 114.336 89.8624 114.725 89.8671 115.117C89.9213 116.065 89.8832 117.016 89.7535 117.957C89.6337 118.889 89.4644 119.814 89.2464 120.728C89.1747 121.104 89.066 121.472 88.9219 121.827Z" fill="#FF9A6C"/>
<path d="M86.2031 122.294C86.2535 121.863 86.328 121.435 86.4262 121.012C86.611 119.984 86.7343 118.947 86.7954 117.904C86.8494 116.862 86.8399 115.818 86.767 114.777C86.715 114.346 86.6879 113.912 86.6859 113.479C86.732 113.587 86.7621 113.702 86.7751 113.819C86.8198 114.038 86.8684 114.363 86.9171 114.765C87.0329 115.811 87.0627 116.865 87.0064 117.917C86.9489 118.968 86.8037 120.013 86.5723 121.04C86.483 121.446 86.3978 121.75 86.3289 121.965C86.307 122.081 86.2644 122.193 86.2031 122.294Z" fill="#FF9A6C"/>
<path d="M82.6103 114.348C82.8179 114.39 83.01 114.488 83.1661 114.632C83.572 114.947 83.8836 115.368 84.0667 115.849C84.2649 116.324 84.3075 116.849 84.1884 117.35C84.0707 117.755 83.8232 117.877 83.8151 117.853C83.9161 117.685 83.9926 117.503 84.0423 117.313C84.1118 116.844 84.0529 116.364 83.8719 115.926C83.6929 115.48 83.4155 115.081 83.0606 114.757C82.8009 114.494 82.594 114.4 82.6103 114.348Z" fill="#FF9A6C"/>
</svg>
