<svg width="32" height="20" viewBox="0 0 32 20" fill="none" xmlns="http://www.w3.org/2000/svg">
<rect x="0.746094" width="31.0448" height="20" rx="2" fill="#006FCF"/>
<path fill-rule="evenodd" clip-rule="evenodd" d="M31.8032 3.62203H29.2336L27.8905 7.47645L26.4889 3.62203H23.8609V9.62365L21.1745 3.62203H19.0138L16.3274 9.75393H18.1961L18.7217 8.52762H21.5249L22.0505 9.75393H25.5545V5.49074L27.1313 9.75393H28.5912L30.168 5.49074V9.75393H31.8032V10.6883H29.6424L27.8905 12.6155L26.0801 10.6883H18.6634V16.8202H26.0218L27.832 14.8347L29.6424 16.8202H31.8032V17.5792H29.2336L27.832 16.061L26.4304 17.5792H17.729V10.5715H14.9258L18.4297 2.6875H21.8169L23.0432 5.37393V2.6875H27.2481L27.9488 4.73153L28.6497 2.6875H31.8032V3.62203ZM31.8032 12.0314L30.2265 13.725L31.8032 15.4186V16.8202L28.9417 13.725L31.8032 10.6883V12.0314ZM23.8609 16.8202V15.3603H20.357V14.4259H23.8024V13.0243H20.357V12.0899H23.8609V10.6883L26.7808 13.725L23.8609 16.8202ZM19.2473 7.18432L20.065 5.19879L20.8825 7.18432H19.2473Z" fill="white"/>
</svg>
