<svg width="46" height="28" viewBox="0 0 46 28" fill="none" xmlns="http://www.w3.org/2000/svg">
<g clip-path="url(#clip0_1078_69455)">
<path d="M4.94167 0.00215851C4.66421 0.00249592 4.38677 0.00431872 4.10933 0.00762589C3.83433 0.0167374 3.55383 0.0313157 3.28067 0.0805179C2.86784 0.145365 2.47639 0.306714 2.13854 0.551289C1.8007 0.795865 1.52609 1.11668 1.33733 1.48733C1.209 1.73881 1.12833 1.99393 1.08067 2.27092C1.02933 2.54063 1.01283 2.81761 1.00733 3.09096C1.00358 3.21789 1.00114 3.34485 1 3.47182V24.5322C1 24.6597 1.00367 24.7836 1.0055 24.9094C1.01283 25.1827 1.02933 25.4615 1.07883 25.7331C1.12833 26.0064 1.21083 26.2633 1.33917 26.5148C1.59197 27.0095 1.99645 27.4116 2.49417 27.6629C2.74717 27.7904 3.00383 27.8724 3.2825 27.9216C3.55383 27.9708 3.8325 27.9872 4.1075 27.9945L4.48883 28H41.5112L41.8907 27.9945C42.1657 27.9872 42.4462 27.9708 42.7193 27.9216C42.9943 27.8724 43.2528 27.7923 43.504 27.6647C44.003 27.4137 44.4083 27.0108 44.6608 26.5148C44.7892 26.2633 44.8717 26.0082 44.9193 25.7312C44.9688 25.4615 44.9853 25.1845 44.9927 24.9112C44.9963 24.7836 44.9982 24.6597 44.9982 24.5322L45 24.0839V3.47C45 3.34244 44.9963 3.21852 44.9927 3.09278C44.9892 2.81677 44.9647 2.54142 44.9193 2.2691C44.8316 1.72033 44.5716 1.21316 44.1765 0.820094C43.7814 0.427022 43.2714 0.168165 42.7193 0.0805179C42.4453 0.0356125 42.1683 0.0112466 41.8907 0.00762589C41.6139 -0.000162327 41.337 -0.00198553 41.0602 0.00215851H4.94167ZM4.94167 0.935177H41.502C41.623 0.935177 41.7422 0.938822 41.8632 0.940645C42.074 0.947934 42.3215 0.958867 42.5507 0.998957C42.7505 1.0354 42.9173 1.09007 43.0768 1.17025C43.3984 1.33252 43.6598 1.59227 43.823 1.91193C43.907 2.07712 43.9651 2.25411 43.9953 2.43675C44.0357 2.6609 44.0467 2.90691 44.0522 3.11829C44.0558 3.23674 44.0577 3.35519 44.0577 3.47729V24.5285C44.0577 24.647 44.0577 24.7654 44.0522 24.8857C44.0467 25.0953 44.0357 25.3413 43.9935 25.569C43.9538 25.8372 43.8498 26.0919 43.6903 26.3117C43.5308 26.5315 43.3203 26.7099 43.0768 26.8319C42.9117 26.9149 42.735 26.9727 42.5525 27.0032C42.3263 27.039 42.0977 27.0584 41.8687 27.0615L41.502 27.067H4.49433C4.37333 27.067 4.2505 27.0633 4.135 27.0615C3.90472 27.0585 3.67496 27.0391 3.4475 27.0032C3.24767 26.9668 3.08083 26.9121 2.9195 26.8319C2.5979 26.6703 2.33699 26.4103 2.17517 26.0902C2.0914 25.9249 2.0333 25.748 2.00283 25.5654C1.96642 25.3406 1.94681 25.1134 1.94417 24.8857C1.94171 24.766 1.94049 24.6464 1.9405 24.5267V3.47547C1.9405 3.35702 1.9405 3.23674 1.94417 3.11647C1.9515 2.90873 1.9625 2.66454 2.00283 2.43311C2.0395 2.2363 2.0945 2.07047 2.17517 1.91011C2.33852 1.59098 2.59987 1.33184 2.92133 1.17025C3.0873 1.08777 3.2646 1.03005 3.4475 0.998957C3.67667 0.958867 3.92417 0.946111 4.135 0.940645C4.25417 0.937 4.37517 0.936999 4.49433 0.935177H4.94167ZM13.5767 7.67769C13.0267 7.70685 12.352 8.04033 11.9633 8.50866C11.6132 8.90957 11.3033 9.5656 11.384 10.1815C12.0037 10.2362 12.6215 9.87357 13.012 9.41981C13.3878 8.94966 13.6445 8.32097 13.5767 7.67952V7.67769ZM17.6228 8.44306V18.453H19.1848V15.0325H21.3482C23.3245 15.0325 24.7123 13.6858 24.7123 11.7305C24.7123 9.78063 23.352 8.44124 21.3977 8.44124L17.6228 8.44306ZM19.1848 9.75329H20.9852C22.34 9.75329 23.1137 10.4749 23.1137 11.7378C23.1137 12.9988 22.34 13.7277 20.9797 13.7277H19.1848V9.75329ZM13.4025 10.3C12.5775 10.3182 11.8808 10.8102 11.4775 10.8102C11.0467 10.8102 10.3903 10.3291 9.679 10.3419C9.21628 10.3534 8.76465 10.4851 8.36904 10.7239C7.97342 10.9627 7.6476 11.3003 7.424 11.7032C6.45783 13.3578 7.16917 15.8124 8.10967 17.161C8.56617 17.8279 9.11617 18.5623 9.84033 18.535C10.5242 18.5095 10.7937 18.094 11.6242 18.094C12.4565 18.094 12.6985 18.535 13.4208 18.5222C14.1725 18.5095 14.6437 17.8552 15.0983 17.1865C15.6227 16.4266 15.8372 15.6922 15.85 15.6539C15.8372 15.6393 14.4017 15.0926 14.3888 13.4507C14.3742 12.0767 15.5163 11.4225 15.5695 11.3824C14.9242 10.4348 13.9195 10.3291 13.5712 10.3018C13.515 10.2983 13.4587 10.2989 13.4025 10.3ZM28.4432 11.0234C26.6282 11.0234 25.4988 11.9947 25.4145 13.3122H26.839C26.971 12.6599 27.5155 12.2444 28.3882 12.2444C29.3085 12.2444 29.8603 12.7291 29.8603 13.54V14.1031L27.8492 14.2198C26.1057 14.3182 25.1212 15.1017 25.1212 16.3774C25.1212 17.6894 26.1258 18.5769 27.5632 18.5769C28.5275 18.5769 29.4552 18.0648 29.8805 17.2521H29.9153V18.453H31.36V13.4234C31.36 11.9601 30.2233 11.0234 28.4432 11.0234ZM31.9998 11.1546L34.6508 18.4603C34.6508 18.4657 34.517 18.8976 34.517 18.9104C34.2878 19.6575 33.912 19.9509 33.2135 19.9509C33.087 19.9509 32.8358 19.9509 32.724 19.9236V21.1372C32.834 21.1573 33.2135 21.1718 33.3382 21.1718C34.8598 21.1718 35.5858 20.6033 36.2128 18.8338L38.9628 11.1546H37.3715L35.5162 17.0935H35.4887L33.6315 11.1528L31.9998 11.1546ZM29.8603 15.1437V15.7195C29.8603 16.6689 29.0353 17.3906 27.983 17.3906C27.1727 17.3906 26.6428 16.9751 26.6428 16.3354C26.6428 15.7122 27.1525 15.315 28.0527 15.2548L29.8603 15.1437Z" fill="black"/>
</g>
<defs>
<clipPath id="clip0_1078_69455">
<rect width="46" height="28" fill="white"/>
</clipPath>
</defs>
</svg>
