<svg width="46" height="28" viewBox="0 0 46 28" fill="none" xmlns="http://www.w3.org/2000/svg">
<g clip-path="url(#clip0_1078_69480)">
<path d="M10.75 20.5625C10.75 21.3747 11.0727 22.1537 11.647 22.728C12.2213 23.3023 13.0003 23.625 13.8125 23.625H32.1875C32.9997 23.625 33.7787 23.3023 34.353 22.728C34.9273 22.1537 35.25 21.3747 35.25 20.5625V12.1406H10.75V20.5625ZM14.3594 16.4062C14.3594 15.9711 14.5322 15.5538 14.8399 15.2462C15.1476 14.9385 15.5649 14.7656 16 14.7656H18.625C19.0601 14.7656 19.4774 14.9385 19.7851 15.2462C20.0928 15.5538 20.2656 15.9711 20.2656 16.4062V17.5C20.2656 17.9351 20.0928 18.3524 19.7851 18.6601C19.4774 18.9678 19.0601 19.1406 18.625 19.1406H16C15.5649 19.1406 15.1476 18.9678 14.8399 18.6601C14.5322 18.3524 14.3594 17.9351 14.3594 17.5V16.4062ZM32.1875 4.375H13.8125C13.0003 4.375 12.2213 4.69766 11.647 5.27199C11.0727 5.84632 10.75 6.62527 10.75 7.4375V8.85938H35.25V7.4375C35.25 6.62527 34.9273 5.84632 34.353 5.27199C33.7787 4.69766 32.9997 4.375 32.1875 4.375Z" fill="black"/>
</g>
<defs>
<clipPath id="clip0_1078_69480">
<rect width="46" height="28" fill="white"/>
</clipPath>
</defs>
</svg>
