<svg width="32" height="20" viewBox="0 0 32 20" fill="none" xmlns="http://www.w3.org/2000/svg">
<rect x="0.791016" width="31.0448" height="20" rx="2" fill="white"/>
<path d="M8.45044 13.0009C8.45044 13.28 8.64989 13.3123 8.82723 13.3123C9.60983 13.3123 9.86647 12.7222 9.86647 12.1823C9.86647 11.5054 9.43206 11.0164 8.73304 11.0164C8.58447 11.0164 8.51603 11.0268 8.45044 11.0307V13.0009ZM8.09572 11.302C8.09572 10.9763 7.9253 10.9978 7.76268 10.9941V10.9005C7.90362 10.9071 8.04852 10.9071 8.1899 10.9071C8.34193 10.9071 8.54852 10.9005 8.81663 10.9005C9.75429 10.9005 10.2651 11.5266 10.2651 12.168C10.2651 12.5266 10.0553 13.4284 8.77311 13.4284C8.58881 13.4284 8.41795 13.4214 8.24797 13.4214C8.08491 13.4214 7.9253 13.4251 7.76268 13.4284V13.3339C7.97942 13.3123 8.08491 13.3051 8.09572 13.0589V11.302Z" fill="#231F20"/>
<path d="M10.7799 11.2155C10.6852 11.2155 10.6021 11.1284 10.6021 11.0344C10.6021 10.9437 10.689 10.8601 10.7799 10.8601C10.8737 10.8601 10.9575 10.9364 10.9575 11.0344C10.9575 11.1321 10.8776 11.2155 10.7799 11.2155ZM10.392 13.334H10.4609C10.5622 13.334 10.6346 13.334 10.6346 13.214V12.2331C10.6346 12.0737 10.5806 12.0518 10.4462 11.9799V11.9219C10.6166 11.8708 10.8193 11.8026 10.834 11.7911C10.8594 11.777 10.8808 11.7733 10.8992 11.7733C10.9172 11.7733 10.9243 11.7948 10.9243 11.8238V13.214C10.9243 13.334 11.0045 13.334 11.1053 13.334H11.1671V13.4284C11.0439 13.4284 10.9172 13.4213 10.7868 13.4213C10.6564 13.4213 10.5261 13.425 10.392 13.4284V13.334Z" fill="#231F20"/>
<path d="M11.5112 12.2546C11.5112 12.121 11.4714 12.0846 11.3014 12.0162V11.9469C11.4569 11.8962 11.6052 11.8488 11.7793 11.7732C11.7901 11.7732 11.8007 11.7804 11.8007 11.8089V12.045C12.0075 11.8962 12.1851 11.7732 12.4279 11.7732C12.7356 11.7732 12.8443 11.9976 12.8443 12.2802V13.2141C12.8443 13.3341 12.9242 13.3341 13.0253 13.3341H13.0905V13.4283C12.9634 13.4283 12.8367 13.4214 12.7068 13.4214C12.5762 13.4214 12.4458 13.4251 12.3155 13.4283V13.3341H12.3806C12.4822 13.3341 12.5541 13.3341 12.5541 13.2141V12.2767C12.5541 12.0699 12.4279 11.9687 12.2211 11.9687C12.1052 11.9687 11.9207 12.0628 11.8007 12.1426V13.2141C11.8007 13.3341 11.8811 13.3341 11.9824 13.3341H12.0476V13.4283C11.9207 13.4283 11.7936 13.4214 11.663 13.4214C11.533 13.4214 11.4025 13.4251 11.2721 13.4283V13.3341H11.3378C11.4389 13.3341 11.5112 13.3341 11.5112 13.2141V12.2546Z" fill="#231F20"/>
<path d="M14.0073 12.3127C14.0973 12.3127 14.1079 12.2657 14.1079 12.2224C14.1079 12.0372 13.9958 11.8889 13.7931 11.8889C13.5724 11.8889 13.4202 12.0517 13.3767 12.3127H14.0073ZM13.366 12.429C13.3585 12.4614 13.3585 12.5156 13.366 12.6388C13.3873 12.9831 13.6086 13.2655 13.8981 13.2655C14.0973 13.2655 14.2537 13.1566 14.3873 13.0228L14.438 13.0734C14.2713 13.2943 14.0651 13.4825 13.7682 13.4825C13.1919 13.4825 13.0763 12.9249 13.0763 12.6932C13.0763 11.9833 13.5542 11.7732 13.8074 11.7732C14.101 11.7732 14.4165 11.9578 14.4198 12.3415C14.4198 12.3638 14.4198 12.3852 14.4165 12.4071L14.3834 12.429H13.366Z" fill="#231F20"/>
<path d="M14.503 13.334H14.6011C14.7024 13.334 14.7744 13.334 14.7744 13.214V12.1967C14.7744 12.0848 14.6407 12.0629 14.5864 12.0336V11.9799C14.8505 11.8673 14.9959 11.7734 15.0286 11.7734C15.05 11.7734 15.0608 11.7837 15.0608 11.8203V12.146H15.0686C15.1587 12.005 15.3109 11.7734 15.5318 11.7734C15.6224 11.7734 15.738 11.8344 15.738 11.965C15.738 12.0629 15.6698 12.1501 15.568 12.1501C15.4554 12.1501 15.4554 12.0629 15.3289 12.0629C15.2674 12.0629 15.0645 12.146 15.0645 12.3639V13.214C15.0645 13.334 15.1368 13.334 15.2382 13.334H15.4411V13.4285C15.2419 13.425 15.0901 13.4213 14.9344 13.4213C14.7856 13.4213 14.6336 13.425 14.503 13.4285V13.334Z" fill="#231F20"/>
<path d="M15.8973 12.925C15.9447 13.1638 16.0896 13.3669 16.354 13.3669C16.5675 13.3669 16.6468 13.2364 16.6468 13.1096C16.6468 12.6824 15.8579 12.8195 15.8579 12.2368C15.8579 12.0336 16.0209 11.7733 16.4194 11.7733C16.535 11.7733 16.6907 11.8058 16.832 11.8781L16.8575 12.2476H16.7743C16.7382 12.0196 16.611 11.8887 16.3793 11.8887C16.2343 11.8887 16.0969 11.9723 16.0969 12.128C16.0969 12.5521 16.937 12.4214 16.937 12.9901C16.937 13.229 16.7451 13.4825 16.3143 13.4825C16.1688 13.4825 15.9989 13.4321 15.8721 13.3598L15.8323 12.9431L15.8973 12.925Z" fill="#231F20"/>
<path d="M20.2074 11.5557H20.1169C20.0482 11.1321 19.7474 10.9619 19.3423 10.9619C18.9252 10.9619 18.3202 11.2406 18.3202 12.1094C18.3202 12.8416 18.8427 13.3669 19.3999 13.3669C19.7585 13.3669 20.0556 13.1207 20.1281 12.7402L20.2111 12.7617L20.1281 13.2907C19.9759 13.3851 19.5662 13.4825 19.3271 13.4825C18.4798 13.4825 17.9442 12.9358 17.9442 12.1209C17.9442 11.3784 18.6067 10.8458 19.3167 10.8458C19.6102 10.8458 19.8923 10.94 20.1713 11.0377L20.2074 11.5557Z" fill="#231F20"/>
<path d="M20.3377 13.334H20.4068C20.5084 13.334 20.5809 13.334 20.5809 13.214V11.1978C20.5809 10.9619 20.5265 10.9546 20.3888 10.915V10.8569C20.5335 10.8097 20.6858 10.745 20.7619 10.701C20.8016 10.6793 20.8308 10.6609 20.8415 10.6609C20.8635 10.6609 20.8704 10.6828 20.8704 10.712V13.214C20.8704 13.334 20.9504 13.334 21.0517 13.334H21.1132V13.4285C20.9906 13.4285 20.8635 13.4213 20.7327 13.4213C20.6028 13.4213 20.4724 13.425 20.3377 13.4285V13.334Z" fill="#231F20"/>
<path d="M22.6637 13.2289C22.6637 13.2945 22.7031 13.2978 22.765 13.2978C22.8081 13.2978 22.8629 13.2945 22.9101 13.2945V13.3707C22.7537 13.3851 22.4571 13.4611 22.3877 13.4827L22.37 13.4719V13.1789C22.1531 13.3562 21.9859 13.4827 21.7284 13.4827C21.5331 13.4827 21.3306 13.3562 21.3306 13.0522V12.1247C21.3306 12.0303 21.3158 11.9396 21.1136 11.9218V11.8529C21.2442 11.849 21.5331 11.8278 21.5804 11.8278C21.6208 11.8278 21.6208 11.8529 21.6208 11.9326V12.8668C21.6208 12.9753 21.6208 13.2869 21.9356 13.2869C22.0584 13.2869 22.2214 13.1925 22.3735 13.0667V12.0916C22.3735 12.0195 22.1998 11.9798 22.0696 11.9433V11.8781C22.3956 11.8562 22.5987 11.8278 22.6346 11.8278C22.6637 11.8278 22.6637 11.8529 22.6637 11.893V13.2289Z" fill="#231F20"/>
<path d="M23.3841 13.019C23.3841 13.1567 23.5145 13.3885 23.7574 13.3885C24.1453 13.3885 24.3081 13.0079 24.3081 12.6855C24.3081 12.2947 24.011 11.9687 23.7286 11.9687C23.5939 11.9687 23.482 12.0558 23.3841 12.1394V13.019ZM23.3841 12.0337C23.5289 11.9109 23.725 11.7734 23.924 11.7734C24.3441 11.7734 24.5976 12.1394 24.5976 12.5337C24.5976 13.0079 24.25 13.4826 23.7316 13.4826C23.4635 13.4826 23.3228 13.3958 23.2284 13.3562L23.1198 13.4391L23.0441 13.3995C23.0759 13.186 23.0943 12.9755 23.0943 12.7548V11.1978C23.0943 10.962 23.0402 10.9544 22.9024 10.9148V10.8568C23.0478 10.8097 23.1993 10.745 23.2756 10.7009C23.3152 10.6794 23.3442 10.661 23.3555 10.661C23.3771 10.661 23.3841 10.6829 23.3841 10.7121V12.0337Z" fill="#231F20"/>
<path d="M7.75856 15.534H7.78611C7.85692 15.534 7.93205 15.5247 7.93205 15.4218V14.3896C7.93205 14.2867 7.85692 14.2774 7.78611 14.2774H7.75856V14.2174C7.83568 14.2174 7.95373 14.2256 8.0505 14.2256C8.14901 14.2256 8.26707 14.2174 8.35955 14.2174V14.2774H8.332C8.2612 14.2774 8.18606 14.2867 8.18606 14.3896V15.4218C8.18606 15.5247 8.2612 15.534 8.332 15.534H8.35955V15.5936C8.2651 15.5936 8.14665 15.5858 8.04835 15.5858C7.95154 15.5858 7.83568 15.5936 7.75856 15.5936V15.534Z" fill="#231F20"/>
<path d="M8.3511 15.5851L8.35132 15.543H8.33227C8.26191 15.543 8.17788 15.5307 8.17744 15.4218V14.3894C8.17788 14.2806 8.26191 14.2684 8.33227 14.2684H8.3511V14.2267C8.26015 14.2267 8.14605 14.2342 8.05055 14.2342C7.95703 14.2342 7.84352 14.2268 7.76729 14.2267V14.2684H7.78611C7.85631 14.2684 7.94029 14.2806 7.94029 14.3894V15.4218C7.94029 15.5307 7.85631 15.543 7.78611 15.543H7.76729V15.5851C7.84352 15.584 7.95505 15.577 8.04841 15.577C8.14429 15.577 8.25845 15.5844 8.3511 15.5851ZM8.35955 15.602C8.26449 15.602 8.14627 15.5942 8.04841 15.5942C7.95181 15.5942 7.83595 15.602 7.75862 15.602H7.75V15.5259H7.78611C7.85763 15.5242 7.92278 15.5184 7.92322 15.4218V14.3894C7.92278 14.2931 7.85763 14.2866 7.78611 14.2853H7.75V14.2095H7.75862C7.83595 14.2095 7.95395 14.2171 8.05055 14.2171C8.14863 14.2171 8.26647 14.2095 8.35955 14.2095H8.36822V14.2853H8.33227C8.26059 14.2866 8.19501 14.2931 8.19479 14.3894V15.4218C8.19501 15.5184 8.26059 15.5242 8.33227 15.5259H8.36822V15.602H8.35955Z" fill="#231F20"/>
<path d="M9.71367 15.2052L9.71757 15.2013V14.4622C9.71757 14.3007 9.60516 14.2773 9.54583 14.2773H9.50275V14.2175C9.59517 14.2175 9.68617 14.2256 9.77865 14.2256C9.85917 14.2256 9.9404 14.2175 10.0208 14.2175V14.2773H9.99172C9.90857 14.2773 9.81565 14.2927 9.81565 14.5272V15.4241C9.81565 15.493 9.81801 15.5618 9.82778 15.6229H9.75286L8.73787 14.4919V15.3035C8.73787 15.4754 8.77124 15.5339 8.92305 15.5339H8.95637V15.5935C8.87196 15.5935 8.78705 15.5857 8.70214 15.5857C8.614 15.5857 8.52305 15.5935 8.43447 15.5935V15.5339H8.46197C8.59797 15.5339 8.63957 15.4419 8.63957 15.284V14.4542C8.63957 14.3438 8.54841 14.2773 8.46004 14.2773H8.43447V14.2175C8.509 14.2175 8.58606 14.2256 8.66076 14.2256C8.72009 14.2256 8.7775 14.2175 8.83639 14.2175L9.71367 15.2052Z" fill="#231F20"/>
<path d="M9.70895 15.2012V15.2005L9.70719 15.1993L9.70895 15.2012ZM9.75269 15.6144H9.81812C9.80923 15.5553 9.80769 15.4894 9.80769 15.4242V14.5271C9.80769 14.2906 9.9067 14.2685 9.99155 14.2685H10.0124V14.2265C9.93458 14.2269 9.85686 14.2343 9.77871 14.2343C9.68842 14.2343 9.60044 14.2269 9.51126 14.2265V14.2685H9.54567C9.60654 14.2685 9.72585 14.2954 9.72585 14.4623L9.72344 15.2073L9.71938 15.211L9.71263 15.2172L8.8365 14.2265C8.77777 14.2265 8.72064 14.2343 8.66087 14.2343C8.58875 14.2343 8.51444 14.2269 8.44303 14.2265L8.44281 14.2685H8.4601C8.55258 14.2685 8.64786 14.3391 8.64786 14.4543V15.2841C8.64786 15.442 8.6039 15.5425 8.46208 15.5431L8.44303 15.5425V15.5851C8.52832 15.5841 8.61603 15.5769 8.7022 15.5769C8.78474 15.5769 8.86658 15.5841 8.94775 15.5851V15.5431H8.92289C8.76784 15.5425 8.72926 15.4753 8.72926 15.3036V14.4697L9.75269 15.6144ZM9.82761 15.6317L9.74644 15.6286L8.74616 14.5141V15.3036C8.74874 15.4753 8.77476 15.5239 8.92289 15.526H8.96532V15.6018H8.95642C8.87135 15.6018 8.78645 15.5942 8.7022 15.5942C8.61427 15.5942 8.52377 15.6018 8.43414 15.6018H8.42547V15.526H8.46208C8.59243 15.525 8.62947 15.4414 8.63118 15.2841V14.4543C8.63074 14.3495 8.54457 14.2856 8.4601 14.2854H8.42547V14.2094H8.43414C8.50966 14.2094 8.58655 14.2172 8.66087 14.2172C8.71932 14.2172 8.77651 14.2094 8.84298 14.2124L9.70895 15.1871V14.4623C9.70791 14.3055 9.60352 14.2867 9.54567 14.2854H9.49369V14.2094H9.50258C9.5955 14.2094 9.68645 14.2172 9.77871 14.2172C9.85862 14.2172 9.93958 14.2094 10.0208 14.2094H10.0296V14.2854H9.99155C9.90994 14.2878 9.82679 14.2951 9.82437 14.5271V15.4242C9.82437 15.4927 9.82635 15.5615 9.83584 15.6217L9.8376 15.6317H9.82761Z" fill="#231F20"/>
<path d="M10.3159 14.3162C10.168 14.3162 10.1625 14.3517 10.1327 14.4955H10.0738C10.0818 14.4405 10.0913 14.3853 10.0976 14.3279C10.1052 14.2729 10.1092 14.2175 10.1092 14.1607H10.1567C10.1725 14.2198 10.2217 14.2175 10.2749 14.2175H11.2918C11.3449 14.2175 11.3943 14.2157 11.3984 14.1566L11.4452 14.1649C11.438 14.2175 11.43 14.2709 11.424 14.3242C11.4198 14.3773 11.4198 14.4308 11.4198 14.4838L11.3609 14.5059C11.3571 14.4327 11.3468 14.3162 11.215 14.3162H10.8919V15.3647C10.8919 15.517 10.961 15.5341 11.0554 15.5341H11.0926V15.5934C11.016 15.5934 10.8778 15.5857 10.7715 15.5857C10.6535 15.5857 10.5151 15.5934 10.4382 15.5934V15.5341H10.4757C10.5844 15.5341 10.6392 15.5246 10.6392 15.3691V14.3162H10.3159Z" fill="#231F20"/>
<path d="M11.0931 15.6018C11.0153 15.6018 10.8774 15.5941 10.7715 15.5941C10.6535 15.5941 10.516 15.6018 10.4383 15.6018H10.43V15.5258H10.4759C10.5846 15.5233 10.6284 15.5219 10.6305 15.369V14.3246H10.3159V14.3079H10.6479V15.369C10.6479 15.5269 10.5842 15.5432 10.4759 15.5432H10.4469V15.5847C10.5249 15.5841 10.6571 15.577 10.7715 15.577C10.8744 15.577 11.006 15.5841 11.084 15.5847V15.5432H11.0554C10.9601 15.5432 10.883 15.52 10.883 15.3647V14.3079H11.215C11.3473 14.3082 11.3647 14.4203 11.3688 14.4936L11.4119 14.4778C11.4119 14.4267 11.4121 14.3751 11.4153 14.3229C11.4209 14.2726 11.4283 14.2222 11.4357 14.1718L11.4058 14.1668C11.3961 14.224 11.3408 14.2272 11.2917 14.2265H10.2648C10.2182 14.2265 10.168 14.2242 10.1504 14.1694H10.1175C10.1175 14.224 10.1136 14.2765 10.1058 14.3294C10.1002 14.3833 10.0916 14.4355 10.0841 14.487H10.1262C10.1524 14.3502 10.169 14.3056 10.3159 14.3079V14.3246C10.1704 14.3276 10.1736 14.3519 10.1411 14.4977L10.1401 14.5044H10.0638L10.0651 14.4942C10.0727 14.4392 10.0831 14.384 10.0891 14.3266C10.0969 14.272 10.1008 14.2172 10.1008 14.1607V14.1521H10.1635L10.1647 14.1583C10.1784 14.2082 10.2145 14.2084 10.2648 14.2094H11.2917C11.3462 14.2084 11.3865 14.2075 11.3897 14.1559L11.3904 14.1469L11.3993 14.1486L11.4547 14.1572L11.4538 14.1657C11.4461 14.2188 11.4383 14.272 11.4326 14.3246C11.4285 14.3775 11.4285 14.4308 11.4285 14.4838V14.4898L11.4229 14.4922L11.353 14.5178L11.3528 14.5059C11.3473 14.432 11.3395 14.3246 11.215 14.3246H10.9004V15.3647C10.9023 15.5135 10.9614 15.5239 11.0554 15.5258H11.1011V15.6018H11.0931Z" fill="#231F20"/>
<path d="M11.5085 15.534H11.536C11.6068 15.534 11.6817 15.5247 11.6817 15.4218V14.3896C11.6817 14.2867 11.6068 14.2774 11.536 14.2774H11.5085V14.2174C11.6283 14.2174 11.834 14.2256 11.999 14.2256C12.1649 14.2256 12.3695 14.2174 12.5031 14.2174C12.4999 14.3025 12.5018 14.4329 12.5077 14.5195L12.4481 14.5353C12.4388 14.4073 12.415 14.3049 12.208 14.3049H11.9347V14.8207H12.1686C12.287 14.8207 12.3128 14.7542 12.3243 14.6477H12.3832C12.3795 14.7245 12.3773 14.8012 12.3773 14.8781C12.3773 14.9532 12.3795 15.0279 12.3832 15.1026L12.3243 15.1145C12.3128 14.9963 12.3067 14.9195 12.1705 14.9195H11.9347V15.3785C11.9347 15.5067 12.0486 15.5067 12.1744 15.5067C12.4113 15.5067 12.5155 15.4909 12.5746 15.2663L12.6296 15.2802C12.6041 15.385 12.5804 15.4887 12.5627 15.5936C12.4369 15.5936 12.2099 15.5858 12.0326 15.5858C11.855 15.5858 11.6207 15.5936 11.5085 15.5936V15.534Z" fill="#231F20"/>
<path d="M12.5556 15.5847C12.5724 15.4853 12.595 15.3857 12.6194 15.2865L12.5804 15.2768C12.5213 15.4975 12.4072 15.5169 12.1744 15.5152C12.0501 15.5152 11.926 15.5152 11.9254 15.3786V14.911H12.1705C12.3082 14.9093 12.3219 14.9927 12.3316 15.1049L12.3743 15.096C12.3708 15.0234 12.3689 14.9503 12.3689 14.8781C12.3689 14.8043 12.3708 14.7304 12.3743 14.6557H12.3316C12.3208 14.7588 12.289 14.8307 12.1683 14.8294H11.9254V14.2958H12.208C12.4131 14.2947 12.4473 14.4006 12.4557 14.524L12.4981 14.5125C12.4949 14.4569 12.493 14.3861 12.493 14.3203C12.493 14.2859 12.4936 14.2544 12.4945 14.2265C12.3607 14.2269 12.161 14.2343 11.999 14.2343C11.8372 14.2343 11.6376 14.2269 11.517 14.2265V14.2685H11.536C11.6064 14.2685 11.6902 14.2807 11.6907 14.3893V15.4219C11.6902 15.5306 11.6064 15.5423 11.536 15.5431H11.517V15.5847C11.6315 15.5843 11.8596 15.5769 12.0326 15.5769C12.2064 15.5769 12.4282 15.5843 12.5556 15.5847ZM12.5627 15.6018C12.4362 15.6018 12.2097 15.5938 12.0326 15.5938C11.855 15.5938 11.6211 15.6018 11.5085 15.6018H11.4998V15.5261H11.536C11.6073 15.5247 11.6725 15.5183 11.6731 15.4219V14.3893C11.6725 14.2934 11.6073 14.2869 11.536 14.2852H11.4998V14.2094H11.5085C11.6285 14.2094 11.834 14.2172 11.999 14.2172C12.1644 14.2172 12.3691 14.2094 12.5031 14.2094H12.512V14.2181C12.5103 14.2477 12.5096 14.2826 12.5096 14.3203C12.5096 14.3881 12.512 14.4625 12.5157 14.5186V14.5258L12.5094 14.5278L12.4401 14.5459L12.4399 14.5355C12.4282 14.408 12.4113 14.3149 12.208 14.3132H11.9425V14.8121H12.1683C12.2822 14.8112 12.3022 14.7529 12.3156 14.6466L12.3165 14.6391H12.3923V14.6477C12.3882 14.7246 12.3858 14.8012 12.3858 14.8781C12.3858 14.9526 12.3882 15.0275 12.3923 15.1027V15.1094L12.3851 15.1111L12.3165 15.1246L12.3156 15.1155C12.3022 14.9953 12.3015 14.9295 12.1705 14.9279L11.9425 14.9275V15.3786C11.9427 15.4983 12.0458 15.4977 12.1744 15.4983C12.412 15.497 12.5068 15.4853 12.5661 15.264L12.5681 15.256L12.5766 15.2577L12.6396 15.274L12.6378 15.2822C12.6123 15.3861 12.5889 15.4908 12.5711 15.5947L12.5698 15.6018H12.5627Z" fill="#231F20"/>
<path d="M13.1481 14.8838H13.2444C13.4416 14.8838 13.5479 14.8093 13.5479 14.5765C13.5479 14.4015 13.4355 14.2887 13.2602 14.2887C13.2006 14.2887 13.1754 14.295 13.1481 14.2967V14.8838ZM12.8958 14.4267C12.8958 14.2826 12.817 14.2772 12.756 14.2772H12.72V14.2175C12.7831 14.2175 12.9054 14.2255 13.0258 14.2255C13.1436 14.2255 13.2384 14.2175 13.3433 14.2175C13.591 14.2175 13.8117 14.2846 13.8117 14.5648C13.8117 14.742 13.6939 14.8502 13.5382 14.9119L13.8754 15.4158C13.9304 15.4994 13.9693 15.5226 14.0661 15.5341V15.5934C14.0012 15.5934 13.9382 15.5857 13.8732 15.5857C13.8117 15.5857 13.7489 15.5934 13.6878 15.5934C13.5362 15.3947 13.4059 15.1815 13.2779 14.9546H13.1481V15.3764C13.1481 15.5287 13.2187 15.5341 13.3093 15.5341H13.3452V15.5934C13.2324 15.5934 13.1183 15.5857 13.0059 15.5857C12.9115 15.5857 12.8188 15.5934 12.72 15.5934V15.5341H12.756C12.8283 15.5341 12.8958 15.501 12.8958 15.4278V14.4267Z" fill="#231F20"/>
<path d="M13.2444 14.8754C13.4393 14.8735 13.5378 14.8059 13.5395 14.5768C13.5387 14.4049 13.4315 14.2981 13.26 14.297C13.2067 14.297 13.1818 14.3018 13.1567 14.3046V14.8754H13.2444ZM13.2444 14.8921H13.1394V14.2886L13.1467 14.2879C13.1738 14.2858 13.2002 14.2806 13.26 14.2806C13.4393 14.2806 13.5562 14.3972 13.5567 14.5768C13.556 14.8119 13.443 14.8921 13.2444 14.8921ZM13.1394 14.9462H13.2825L13.2849 14.9505C13.4131 15.1773 13.5428 15.3899 13.6879 15.5851C13.7481 15.5851 13.8115 15.577 13.8726 15.577C13.9356 15.577 13.9965 15.5837 14.0578 15.5846V15.5413C13.9651 15.5302 13.922 15.5026 13.8683 15.4209L13.525 14.9077L13.535 14.9035C13.6892 14.843 13.8033 14.7377 13.8035 14.5644C13.8033 14.2914 13.5907 14.2275 13.3434 14.2267C13.2392 14.2267 13.1441 14.2342 13.0259 14.2342C12.9096 14.2342 12.793 14.2268 12.7286 14.2267V14.2686H12.7558C12.8169 14.2686 12.9037 14.2786 12.9037 14.4267V15.4278C12.9037 15.5071 12.8301 15.543 12.7558 15.543H12.7286V15.5846C12.8236 15.5844 12.913 15.577 13.0055 15.577C13.1159 15.577 13.2271 15.5844 13.3362 15.5846V15.543H13.3093C13.2194 15.543 13.1394 15.532 13.1394 15.3765V14.9462ZM14.0662 15.6017C14.0002 15.6017 13.9376 15.5942 13.8726 15.5942C13.8128 15.5942 13.7496 15.6017 13.6807 15.5989C13.53 15.4003 13.4005 15.1887 13.273 14.9633H13.1567V15.3765C13.1586 15.5248 13.2182 15.5235 13.3093 15.5259H13.3535V15.6017H13.3446C13.2318 15.6017 13.1172 15.5942 13.0055 15.5942C12.9113 15.5942 12.8191 15.6017 12.7199 15.6017H12.7119V15.5259H12.7558C12.8268 15.5253 12.8862 15.4943 12.8868 15.4278V14.4267C12.8856 14.287 12.8169 14.2872 12.7558 14.2853H12.7119V14.2095H12.7199C12.7842 14.2095 12.9057 14.2171 13.0259 14.2171C13.1433 14.2171 13.2381 14.2095 13.3434 14.2095C13.5913 14.2095 13.8202 14.2786 13.8208 14.5644C13.8208 14.7425 13.703 14.8535 13.5512 14.9155L13.8821 15.4112C13.9372 15.493 13.9714 15.5136 14.0673 15.5259L14.0744 15.5266V15.6017H14.0662Z" fill="#231F20"/>
<path d="M15.4041 15.2052L15.4078 15.2013V14.4622C15.4078 14.3007 15.2956 14.2773 15.2367 14.2773H15.1932V14.2175C15.2861 14.2175 15.3761 14.2256 15.4693 14.2256C15.5502 14.2256 15.6308 14.2175 15.7118 14.2175V14.2773H15.6826C15.5996 14.2773 15.5067 14.2927 15.5067 14.5272V15.4241C15.5067 15.493 15.5085 15.5618 15.5182 15.6229H15.4437L14.4287 14.4919V15.3035C14.4287 15.4754 14.4623 15.5339 14.6141 15.5339H14.6479V15.5935C14.5628 15.5935 14.4779 15.5857 14.3932 15.5857C14.3045 15.5857 14.2139 15.5935 14.1253 15.5935V15.5339H14.1524C14.2888 15.5339 14.33 15.4419 14.33 15.284V14.4542C14.33 14.3438 14.2393 14.2773 14.1509 14.2773H14.1253V14.2175C14.1998 14.2175 14.2773 14.2256 14.3519 14.2256C14.4108 14.2256 14.468 14.2175 14.5271 14.2175L15.4041 15.2052Z" fill="#231F20"/>
<path d="M15.3994 15.2012V15.2005L15.3983 15.1993L15.3994 15.2012ZM15.4438 15.6144H15.5081C15.4999 15.5555 15.4981 15.4894 15.4981 15.4242V14.5271C15.4981 14.2906 15.5979 14.269 15.6824 14.2685H15.7029V14.2265C15.6254 14.2269 15.5474 14.2343 15.4693 14.2343C15.379 14.2343 15.2906 14.2269 15.2019 14.2265V14.2685H15.2367C15.2973 14.269 15.4169 14.2954 15.4169 14.4623L15.4141 15.2073L15.4104 15.211L15.4041 15.2177L14.5271 14.2265C14.4686 14.2265 14.411 14.2343 14.3519 14.2343C14.2787 14.2343 14.2051 14.2269 14.1336 14.2265V14.2685H14.1507C14.2434 14.269 14.3385 14.3387 14.3385 14.4543V15.2839C14.3385 15.442 14.2936 15.5425 14.1523 15.5431H14.1336V15.5847C14.2189 15.5841 14.3067 15.5769 14.3933 15.5769C14.4755 15.5769 14.5574 15.5841 14.639 15.5847V15.5431H14.6142C14.4589 15.5431 14.4201 15.4756 14.4197 15.3036V14.4697L15.4438 15.6144ZM15.5182 15.6317L15.4372 15.6286L14.4372 14.5141V15.3036C14.4396 15.4756 14.4656 15.5239 14.6142 15.526H14.6559V15.6018H14.6475C14.5621 15.6018 14.4775 15.5938 14.3933 15.5938C14.3051 15.5938 14.2137 15.6018 14.1254 15.6018H14.116V15.526H14.1523C14.2824 15.5254 14.32 15.4414 14.3214 15.2839V14.4543C14.3209 14.349 14.2354 14.2856 14.1507 14.2854H14.116V14.2094H14.1254C14.2003 14.2094 14.2776 14.2172 14.3519 14.2172C14.4099 14.2172 14.4669 14.2094 14.5329 14.2118L15.3994 15.1871V14.4623C15.3991 14.3055 15.2939 14.2863 15.2367 14.2854H15.1845V14.2094H15.1932C15.2865 14.2094 15.3772 14.2172 15.4693 14.2172C15.5494 14.2172 15.6304 14.2094 15.7116 14.2094H15.72V14.2854H15.6824C15.6012 14.2874 15.5174 14.2951 15.5152 14.5271V15.4242C15.5152 15.4927 15.5169 15.5609 15.5269 15.6217L15.5278 15.6317H15.5182Z" fill="#231F20"/>
<path d="M16.3166 14.4385H16.3127L16.1293 14.9963H16.4976L16.3166 14.4385ZM16.0292 15.3116C16.0091 15.3785 15.985 15.4303 15.985 15.4651C15.985 15.5245 16.0684 15.534 16.1332 15.534H16.155V15.5933C16.0758 15.5894 15.9952 15.5858 15.9162 15.5858C15.8451 15.5858 15.7746 15.5894 15.7037 15.5933V15.534H15.7152C15.7921 15.534 15.8575 15.4887 15.8863 15.406L16.202 14.502C16.2276 14.4287 16.2635 14.3304 16.275 14.257C16.3381 14.2356 16.417 14.1964 16.4545 14.1725C16.4606 14.1704 16.4636 14.1689 16.4701 14.1689C16.4758 14.1689 16.4799 14.1689 16.484 14.1745C16.4898 14.1903 16.4957 14.208 16.5019 14.2239L16.8642 15.2546C16.8878 15.3235 16.9117 15.3967 16.937 15.4559C16.9608 15.5108 17.0024 15.534 17.0674 15.534H17.0788V15.5933C16.9905 15.5894 16.9017 15.5858 16.8073 15.5858C16.7109 15.5858 16.6122 15.5894 16.5119 15.5933V15.534H16.5336C16.5786 15.534 16.6555 15.5267 16.6555 15.4773C16.6555 15.4515 16.6379 15.3982 16.6156 15.3352L16.539 15.1065H16.0916L16.0292 15.3116Z" fill="#231F20"/>
<path d="M16.1407 14.988H16.4856L16.3141 14.4595L16.1407 14.988ZM16.1171 15.005L16.3059 14.4301H16.3224L16.5095 15.005H16.1171ZM16.5201 15.5841C16.6173 15.581 16.7132 15.577 16.8073 15.577C16.899 15.577 16.9846 15.581 17.0703 15.5841V15.5432H17.0673C17.0001 15.5438 16.9538 15.5167 16.9291 15.4591C16.9035 15.3994 16.8795 15.3262 16.8564 15.2573L16.4937 14.2265C16.4876 14.2107 16.4815 14.193 16.4767 14.1789C16.4748 14.1769 16.4755 14.1769 16.4737 14.1769H16.4701C16.4662 14.1769 16.4638 14.178 16.4588 14.1796C16.4207 14.204 16.3414 14.243 16.2829 14.2584C16.271 14.3333 16.2355 14.4314 16.2098 14.5044L15.8947 15.4091C15.8646 15.4947 15.7955 15.5432 15.7152 15.5432H15.7121V15.5841C15.7795 15.581 15.8479 15.577 15.9163 15.577C15.9926 15.577 16.0703 15.581 16.1456 15.5841V15.5432H16.1331C16.0688 15.5423 15.9791 15.5354 15.977 15.4654C15.977 15.4262 16.0008 15.3756 16.0205 15.3093L16.0292 15.3116L16.0205 15.3091L16.0855 15.0984H16.5445L16.6236 15.3325C16.6459 15.3959 16.6638 15.4483 16.6638 15.4773C16.6608 15.5377 16.5779 15.5421 16.5335 15.5432H16.5201V15.5841ZM17.0783 15.6018C16.9902 15.5982 16.9016 15.5938 16.8073 15.5938C16.7109 15.5938 16.6128 15.5982 16.5119 15.6018L16.503 15.6025V15.5252H16.5335C16.5787 15.5252 16.6463 15.5152 16.6463 15.4773C16.6468 15.4548 16.6297 15.4007 16.6078 15.3381L16.5329 15.1152H16.098L16.0365 15.3141C16.0164 15.3816 15.9932 15.4336 15.9932 15.4654C15.9939 15.5135 16.0677 15.5252 16.1331 15.5252H16.1632V15.6025L16.1543 15.6018C16.0755 15.5982 15.9947 15.5938 15.9163 15.5938C15.8455 15.5938 15.7745 15.5982 15.7039 15.6018L15.6952 15.6025V15.5252H15.7152C15.7886 15.5252 15.8496 15.4832 15.878 15.4033L16.1938 14.4989C16.2197 14.4258 16.255 14.3276 16.2721 14.2493C16.3339 14.2279 16.4129 14.1882 16.4512 14.1644C16.4568 14.1624 16.462 14.1596 16.4701 14.1596C16.4748 14.1594 16.4856 14.1609 16.4915 14.1716C16.4975 14.1876 16.5036 14.2051 16.5095 14.2209L16.8726 15.2519C16.8958 15.3208 16.9194 15.3935 16.9449 15.4516C16.9676 15.5044 17.0041 15.5252 17.0673 15.5252H17.0877V15.6025L17.0783 15.6018Z" fill="#231F20"/>
<path d="M17.166 14.3162C17.0178 14.3162 17.0122 14.3517 16.9826 14.4955H16.9232C16.9312 14.4405 16.9412 14.3853 16.947 14.3279C16.955 14.2729 16.9589 14.2175 16.9589 14.1607H17.0062C17.022 14.2198 17.0713 14.2175 17.1244 14.2175H18.1413C18.1944 14.2175 18.2433 14.2157 18.2474 14.1566L18.2948 14.1649C18.2872 14.2175 18.2797 14.2709 18.2732 14.3242C18.2684 14.3773 18.2684 14.4308 18.2684 14.4838L18.21 14.5059C18.2067 14.4327 18.1963 14.3162 18.0645 14.3162H17.7411V15.3647C17.7411 15.517 17.8102 15.5341 17.9049 15.5341H17.9421V15.5934C17.8654 15.5934 17.7275 15.5857 17.6209 15.5857C17.5029 15.5857 17.3646 15.5934 17.2875 15.5934V15.5341H17.3251C17.434 15.5341 17.4893 15.5246 17.4893 15.3691V14.3162H17.166Z" fill="#231F20"/>
<path d="M17.9419 15.6018C17.865 15.6018 17.727 15.5941 17.621 15.5941C17.5032 15.5941 17.3654 15.6018 17.2875 15.6018H17.2792V15.5258H17.3252C17.4339 15.5233 17.4772 15.5219 17.48 15.369V14.3246H17.1658V14.3079H17.4971V15.369C17.4971 15.5269 17.4337 15.5423 17.3252 15.5432H17.2961V15.5849C17.3741 15.5841 17.5064 15.577 17.621 15.577C17.7239 15.577 17.8557 15.5841 17.9337 15.5849L17.9332 15.5432H17.9044C17.8096 15.5423 17.733 15.52 17.7328 15.3647V14.3079H18.0643C18.197 14.3082 18.2139 14.4203 18.2178 14.4936L18.2607 14.4778C18.2607 14.4267 18.2607 14.3751 18.2648 14.3234C18.2702 14.2726 18.278 14.2222 18.2849 14.1722L18.2555 14.1668C18.2459 14.224 18.1908 14.2272 18.1411 14.2265H17.1143C17.0677 14.2268 17.0177 14.2242 16.9997 14.1687H16.9674C16.9668 14.224 16.9633 14.2765 16.9553 14.3294C16.9499 14.3837 16.9403 14.4355 16.933 14.487H16.9755C17.0015 14.3502 17.0181 14.3051 17.1658 14.3079V14.3246C17.0194 14.3273 17.0229 14.3519 16.9908 14.4977L16.9893 14.5044H16.913L16.9144 14.4942C16.9224 14.4392 16.9324 14.384 16.9382 14.3273C16.9462 14.272 16.9499 14.2172 16.9499 14.1607V14.1521H17.0123L17.014 14.1583C17.0279 14.2082 17.0642 14.2084 17.1143 14.2094H18.1411C18.1957 14.2084 18.2358 14.2075 18.239 14.1559L18.2392 14.1469L18.2487 14.1486L18.3049 14.1572L18.3031 14.1657C18.2947 14.2188 18.2875 14.272 18.2817 14.3246C18.278 14.3775 18.278 14.4308 18.278 14.4838V14.4898L18.2719 14.4922L18.202 14.5178V14.5059C18.197 14.432 18.189 14.3246 18.0643 14.3246H17.7496V15.3647C17.7516 15.5135 17.8107 15.5239 17.9044 15.5258H17.9506V15.6018H17.9419Z" fill="#231F20"/>
<path d="M18.3675 15.534H18.395C18.4664 15.534 18.5409 15.5247 18.5409 15.4218V14.3896C18.5409 14.2867 18.4664 14.2774 18.395 14.2774H18.3675V14.2174C18.4444 14.2174 18.5624 14.2256 18.659 14.2256C18.7575 14.2256 18.8757 14.2174 18.9688 14.2174V14.2774H18.9413C18.8699 14.2774 18.7947 14.2867 18.7947 14.3896V15.4218C18.7947 15.5247 18.8699 15.534 18.9413 15.534H18.9688V15.5936C18.874 15.5936 18.7558 15.5858 18.6572 15.5858C18.5604 15.5858 18.4444 15.5936 18.3675 15.5936V15.534Z" fill="#231F20"/>
<path d="M18.9597 15.5847V15.5431H18.9413C18.8705 15.5431 18.7867 15.5306 18.7867 15.4219V14.3893C18.7867 14.2807 18.8705 14.2685 18.9413 14.2685H18.9597V14.2265C18.8687 14.2269 18.7551 14.2343 18.6589 14.2343C18.5654 14.2343 18.4523 14.2269 18.3761 14.2265V14.2685H18.3949C18.4649 14.2685 18.5494 14.2807 18.5494 14.3893V15.4219C18.5494 15.5306 18.4649 15.5431 18.3949 15.5431H18.3761V15.5847C18.4523 15.5836 18.5635 15.5769 18.6572 15.5769C18.7529 15.5769 18.867 15.5841 18.9597 15.5847ZM18.9688 15.6018C18.8735 15.6018 18.7555 15.5938 18.6572 15.5938C18.5608 15.5938 18.4443 15.6018 18.3674 15.6018H18.3592V15.5261H18.3949C18.4664 15.5247 18.5316 15.5183 18.5318 15.4219V14.3893C18.5316 14.2934 18.4664 14.2867 18.3949 14.2852H18.3592V14.2094H18.3674C18.4443 14.2094 18.5628 14.2172 18.6589 14.2172C18.7575 14.2172 18.8754 14.2094 18.9688 14.2094H18.9768V14.2852H18.9413C18.8692 14.2867 18.8042 14.2934 18.8036 14.3893V15.4219C18.8042 15.5183 18.8692 15.5247 18.9413 15.5261H18.9768V15.6018H18.9688Z" fill="#231F20"/>
<path d="M19.7842 15.5363C20.167 15.5363 20.2332 15.1992 20.2332 14.912C20.2332 14.6238 20.0781 14.2752 19.7508 14.2752C19.4061 14.2752 19.3037 14.5824 19.3037 14.8462C19.3037 15.1992 19.4652 15.5363 19.7842 15.5363ZM19.7548 14.1883C20.1747 14.1883 20.5097 14.4486 20.5097 14.8685C20.5097 15.3218 20.1847 15.623 19.7647 15.623C19.3463 15.623 19.028 15.3395 19.028 14.9153C19.028 14.506 19.3451 14.1883 19.7548 14.1883Z" fill="#231F20"/>
<path d="M19.2948 14.8462C19.2954 14.5812 19.3993 14.2663 19.7508 14.2663C20.0858 14.2669 20.2417 14.6223 20.242 14.912C20.2417 15.1992 20.1739 15.5445 19.7842 15.5445V15.5279C20.1595 15.5276 20.2242 15.1992 20.2251 14.912C20.2251 14.6262 20.071 14.284 19.7508 14.2836C19.4128 14.284 19.3127 14.584 19.312 14.8462C19.3125 15.1976 19.4725 15.527 19.7842 15.5279V15.5445C19.4574 15.5441 19.2954 15.2011 19.2948 14.8462ZM19.0188 14.9155C19.0199 14.501 19.3406 14.1803 19.7547 14.1794V14.197C19.3491 14.197 19.0355 14.5101 19.0355 14.9155C19.0362 15.3345 19.3508 15.6141 19.7646 15.6143C20.1802 15.6141 20.5005 15.3169 20.5016 14.868C20.5013 14.4535 20.1714 14.1974 19.7547 14.197V14.1794C20.1779 14.1803 20.5172 14.4432 20.5178 14.868C20.5176 15.3261 20.1887 15.6308 19.7646 15.6316C19.3433 15.6308 19.0199 15.3436 19.0188 14.9155Z" fill="#231F20"/>
<path d="M21.838 15.2052L21.8418 15.2013V14.4622C21.8418 14.3007 21.7294 14.2773 21.6697 14.2773H21.6273V14.2175C21.7193 14.2175 21.8105 14.2256 21.9027 14.2256C21.9842 14.2256 22.0647 14.2175 22.1453 14.2175V14.2773H22.1157C22.0327 14.2773 21.9399 14.2927 21.9399 14.5272V15.4241C21.9399 15.493 21.9423 15.5618 21.9521 15.6229H21.877L20.8622 14.4919V15.3035C20.8622 15.4754 20.8955 15.5339 21.0476 15.5339H21.0809V15.5935C20.9962 15.5935 20.9118 15.5857 20.8267 15.5857C20.7381 15.5857 20.6471 15.5935 20.5584 15.5935V15.5339H20.5863C20.7227 15.5339 20.7633 15.4419 20.7633 15.284V14.4542C20.7633 14.3438 20.6731 14.2773 20.5839 14.2773H20.5584V14.2175C20.6335 14.2175 20.7102 14.2256 20.7853 14.2256C20.8442 14.2256 20.9014 14.2175 20.9605 14.2175L21.838 15.2052Z" fill="#231F20"/>
<path d="M21.8329 15.2012V15.2005L21.8311 15.1993L21.8329 15.2012ZM21.8769 15.6144H21.9421C21.9333 15.5553 21.9317 15.4894 21.9317 15.4242V14.5271C21.9317 14.2904 22.0313 14.269 22.1157 14.2685H22.137V14.2265C22.0587 14.2269 21.981 14.2343 21.9022 14.2343C21.813 14.2343 21.7248 14.2269 21.6354 14.2265V14.2685H21.6696C21.7311 14.269 21.85 14.2958 21.85 14.4623L21.8477 15.2073L21.8442 15.211L21.8379 15.2177L20.9604 14.2265C20.9024 14.2265 20.8448 14.2343 20.7853 14.2343C20.7125 14.2343 20.6382 14.2269 20.567 14.2265V14.2685H20.5838C20.6768 14.269 20.772 14.3387 20.772 14.4543V15.2841C20.772 15.442 20.7281 15.5425 20.5863 15.5431H20.567V15.5847C20.6525 15.5841 20.74 15.5769 20.8268 15.5769C20.9091 15.5769 20.991 15.5841 21.0724 15.5847V15.5431H21.0468C20.8922 15.5431 20.8537 15.4756 20.8537 15.3036V14.4697L21.8769 15.6144ZM21.952 15.6317L21.8704 15.6286L20.8704 14.5141V15.3036C20.8727 15.4756 20.8989 15.5236 21.0468 15.5254H21.0897V15.6018H21.0811C20.9957 15.6018 20.9111 15.5942 20.8268 15.5942C20.7385 15.5942 20.6479 15.6018 20.5583 15.6018H20.5503V15.5254H20.5863C20.7162 15.525 20.7536 15.4414 20.7547 15.2841V14.4543C20.7547 14.349 20.669 14.2856 20.5838 14.2854H20.5503V14.2094H20.5583C20.6339 14.2094 20.7108 14.2172 20.7853 14.2172C20.8436 14.2172 20.9002 14.2094 20.9674 14.2124L21.8329 15.1871V14.4623C21.8325 14.3055 21.7279 14.2867 21.6696 14.2854H21.6184V14.2094H21.627C21.7196 14.2094 21.811 14.2172 21.9022 14.2172C21.9834 14.2172 22.0633 14.2094 22.1451 14.2094H22.1537V14.2854H22.1157C22.0348 14.2878 21.9507 14.2951 21.9489 14.5271V15.4242C21.9489 15.4927 21.9507 15.5615 21.9598 15.6217L21.9615 15.6317H21.952Z" fill="#231F20"/>
<path d="M22.7498 14.4385H22.7459L22.5625 14.9963H22.9316L22.7498 14.4385ZM22.462 15.3116C22.4427 15.3785 22.4189 15.4303 22.4189 15.4651C22.4189 15.5245 22.5022 15.534 22.5663 15.534H22.5885V15.5933C22.5094 15.5894 22.4288 15.5858 22.3498 15.5858C22.2781 15.5858 22.2078 15.5894 22.1374 15.5933V15.534H22.1482C22.2255 15.534 22.2909 15.4887 22.3202 15.406L22.6359 14.502C22.6614 14.4287 22.6967 14.3304 22.7084 14.257C22.7714 14.2356 22.8503 14.1964 22.8877 14.1725C22.8938 14.1704 22.8979 14.1689 22.9038 14.1689C22.9094 14.1689 22.9131 14.1689 22.9174 14.1745C22.9235 14.1903 22.9291 14.208 22.9356 14.2239L23.2978 15.2546C23.3211 15.3235 23.3453 15.3967 23.3708 15.4559C23.3942 15.5108 23.436 15.534 23.501 15.534H23.5127V15.5933C23.4241 15.5894 23.3351 15.5858 23.2407 15.5858C23.1442 15.5858 23.0454 15.5894 22.9449 15.5933V15.534H22.9668C23.0118 15.534 23.0891 15.5267 23.0891 15.4773C23.0891 15.4515 23.0712 15.3982 23.0493 15.3352L22.9728 15.1065H22.5259L22.462 15.3116Z" fill="#231F20"/>
<path d="M22.5746 14.9875H22.9196L22.7476 14.46L22.5746 14.9875ZM22.5505 15.0044L22.7405 14.4301H22.7563L22.9425 15.0044H22.5505ZM22.9535 15.5843C23.0507 15.581 23.1469 15.577 23.2409 15.577C23.3323 15.577 23.4181 15.581 23.5038 15.5841V15.5432H23.5008C23.4341 15.5432 23.3873 15.5167 23.3628 15.4591C23.3364 15.3994 23.313 15.3262 23.2897 15.2573L22.9273 14.2265C22.9215 14.2107 22.915 14.193 22.9102 14.1796C22.9088 14.1769 22.9088 14.1769 22.9072 14.1769H22.9038C22.8996 14.1769 22.8975 14.178 22.8923 14.1796C22.8541 14.2036 22.7756 14.2432 22.7164 14.2584C22.7048 14.3333 22.6687 14.4314 22.6437 14.5044L22.3279 15.4091C22.2978 15.4947 22.2296 15.5432 22.1484 15.5432H22.1451V15.5841C22.2134 15.581 22.2814 15.577 22.35 15.577C22.4263 15.577 22.5038 15.581 22.5802 15.5841V15.5432H22.5663C22.5025 15.5423 22.4126 15.5354 22.4102 15.4652C22.4106 15.4262 22.4352 15.3758 22.4544 15.3093L22.462 15.3116L22.4544 15.3091L22.519 15.0984H22.9789L23.0575 15.3325C23.0796 15.3959 23.0971 15.4483 23.0971 15.4773C23.0943 15.5377 23.0116 15.5421 22.9663 15.5432H22.9535V15.5843ZM23.5123 15.6018C23.4235 15.5984 23.3344 15.5941 23.2409 15.5941C23.1445 15.5941 23.0458 15.5984 22.9454 15.6018L22.9366 15.6025V15.5261H22.9663C23.0122 15.5261 23.0803 15.5152 23.0807 15.4773C23.0809 15.4548 23.0634 15.4009 23.0409 15.3381L22.9661 15.1152H22.5311L22.4704 15.3141C22.4507 15.3818 22.4269 15.4336 22.4276 15.4652C22.4276 15.5135 22.5014 15.5261 22.5663 15.5261H22.5967V15.6025L22.5878 15.6018C22.5092 15.5984 22.4282 15.5941 22.35 15.5941C22.279 15.5941 22.2084 15.5984 22.1374 15.6018L22.1287 15.6025V15.5261H22.1484C22.2218 15.5252 22.2836 15.483 22.3121 15.4033L22.6276 14.4989C22.6527 14.4258 22.6883 14.3276 22.7054 14.2493C22.7675 14.2279 22.8468 14.1882 22.8847 14.1644C22.8899 14.1624 22.896 14.1601 22.9038 14.1601C22.9088 14.1594 22.9191 14.1609 22.9254 14.1718C22.931 14.1874 22.9369 14.2051 22.9431 14.2209L23.3059 15.2519C23.3293 15.3208 23.3531 15.3935 23.3788 15.452C23.4021 15.5044 23.4373 15.5252 23.5008 15.5261H23.5209V15.6025L23.5123 15.6018Z" fill="#231F20"/>
<path d="M24.0096 15.4003C24.0096 15.4791 24.0643 15.5028 24.1273 15.5108C24.2081 15.5168 24.2967 15.5168 24.3879 15.5069C24.4701 15.4973 24.5416 15.4497 24.5767 15.4003C24.6081 15.3568 24.6254 15.302 24.6379 15.2583H24.6951C24.6731 15.3707 24.6456 15.4813 24.6217 15.5935C24.4485 15.5935 24.2748 15.5857 24.102 15.5857C23.9284 15.5857 23.7547 15.5935 23.5814 15.5935V15.534H23.6085C23.6801 15.534 23.7569 15.5246 23.7569 15.4021V14.3894C23.7569 14.2866 23.6801 14.2773 23.6085 14.2773H23.5814V14.2175C23.6858 14.2175 23.7884 14.2256 23.8926 14.2256C23.9933 14.2256 24.0918 14.2175 24.1925 14.2175V14.2773H24.1429C24.0682 14.2773 24.0096 14.2792 24.0096 14.3838V15.4003Z" fill="#231F20"/>
<path d="M24.6151 15.5847C24.6379 15.478 24.6638 15.3731 24.6844 15.2666H24.6439C24.632 15.3101 24.6145 15.3628 24.5832 15.4054C24.5467 15.4567 24.4735 15.5048 24.388 15.5152C24.3362 15.5208 24.2851 15.5233 24.237 15.5233C24.1989 15.5233 24.1615 15.5215 24.1259 15.5191C24.0623 15.5119 23.9999 15.4847 24.0005 15.4004V14.3837C24.0005 14.2739 24.0696 14.2685 24.1431 14.2685H24.1837V14.2265C24.0867 14.2269 23.9905 14.2343 23.8927 14.2343C23.7903 14.2343 23.6904 14.2269 23.5898 14.2265V14.2685H23.6086C23.6792 14.2685 23.7651 14.2807 23.7651 14.3891V15.402C23.7651 15.5295 23.6794 15.5431 23.6086 15.5431H23.5898V15.5847C23.7597 15.5843 23.9306 15.5769 24.1021 15.5769C24.2732 15.5769 24.444 15.5843 24.6151 15.5847ZM24.6218 15.6018C24.4481 15.6018 24.2749 15.5941 24.1021 15.5941C23.9285 15.5941 23.7548 15.6018 23.5811 15.6018H23.5731V15.5261H23.6086C23.6801 15.5243 23.7481 15.5191 23.7487 15.402V14.3891C23.7481 14.2934 23.6807 14.2867 23.6086 14.2852H23.5731V14.2094H23.5811C23.6861 14.2094 23.7886 14.2172 23.8927 14.2172C23.993 14.2172 24.0915 14.2094 24.1926 14.2094H24.2004V14.2852H24.1431C24.0666 14.2874 24.019 14.2839 24.0172 14.3837V15.4004C24.018 15.4739 24.066 15.4933 24.1281 15.5025C24.1623 15.5048 24.1993 15.5061 24.237 15.5061C24.2851 15.5061 24.3351 15.5038 24.3866 15.4983C24.4668 15.4888 24.5357 15.4427 24.5699 15.3956C24.6002 15.3532 24.6175 15.2993 24.629 15.2562L24.6311 15.2495H24.7054L24.7035 15.2604C24.6814 15.3727 24.6543 15.483 24.6305 15.5955L24.6284 15.6018H24.6218Z" fill="#231F20"/>
<path d="M24.638 14.37H24.6622C24.6891 14.37 24.7014 14.3498 24.7014 14.3171C24.7014 14.284 24.6817 14.2725 24.6607 14.2725H24.638V14.37ZM24.5678 14.4795V14.4691C24.5929 14.4657 24.5979 14.4668 24.5979 14.4505V14.2972C24.5979 14.2753 24.5955 14.2679 24.5685 14.2692V14.2584H24.675C24.7109 14.2584 24.7447 14.2762 24.7447 14.3136C24.7447 14.3448 24.7246 14.3672 24.6958 14.3762L24.7296 14.4241C24.7458 14.4451 24.7638 14.4657 24.7757 14.4728V14.4795H24.7352C24.7159 14.4795 24.699 14.4383 24.6607 14.384H24.638V14.4527C24.638 14.4668 24.6427 14.4657 24.6678 14.4691V14.4795H24.5678ZM24.6709 14.5382C24.7638 14.5382 24.835 14.4594 24.835 14.37C24.835 14.2805 24.7651 14.2006 24.6709 14.2006C24.5773 14.2006 24.5063 14.2805 24.5063 14.37C24.5063 14.4594 24.5773 14.5382 24.6709 14.5382ZM24.6709 14.1621C24.7896 14.1621 24.8783 14.2534 24.8783 14.37C24.8783 14.4864 24.7896 14.5767 24.6709 14.5767C24.5525 14.5767 24.4632 14.4864 24.4632 14.37C24.4632 14.2534 24.5525 14.1621 24.6709 14.1621Z" fill="#231F20"/>
<path d="M12.3677 7.20837C12.3677 5.36484 13.8621 3.8705 15.7057 3.8705C17.5492 3.8705 19.0436 5.36484 19.0436 7.20837C19.0436 9.05195 17.5492 10.5463 15.7057 10.5463C13.8621 10.5463 12.3677 9.05195 12.3677 7.20837Z" fill="white"/>
<path d="M17.7244 7.14262C17.7229 6.28773 17.1887 5.55892 16.4357 5.27017V9.01512C17.1887 8.72593 17.7229 7.99778 17.7244 7.14262ZM14.9995 9.01424V5.27039C14.2474 5.56023 13.7138 6.28817 13.7119 7.14262C13.7138 7.9969 14.2474 8.72506 14.9995 9.01424ZM15.718 3.97736C13.9699 3.97801 12.5536 5.39454 12.5534 7.14262C12.5536 8.89053 13.9699 10.3068 15.718 10.3071C17.4662 10.3068 18.8829 8.89053 18.8833 7.14262C18.8829 5.39454 17.4662 3.97801 15.718 3.97736ZM15.7102 10.606C13.7973 10.6149 12.2229 9.06534 12.2229 7.17873C12.2229 5.11709 13.7973 3.69102 15.7102 3.69141H16.6069C18.497 3.69102 20.2223 5.11622 20.2223 7.17873C20.2223 9.06446 18.497 10.606 16.6069 10.606H15.7102Z" fill="#006699"/>
</svg>
