<svg width="46" height="28" viewBox="0 0 46 28" fill="none" xmlns="http://www.w3.org/2000/svg">
<g clip-path="url(#clip0_1078_69460)">
<path d="M4.94167 0.00215851C4.66421 0.00249592 4.38677 0.00431872 4.10933 0.00762589C3.83433 0.0167374 3.55383 0.0313157 3.28067 0.0805179C2.86784 0.145365 2.47639 0.306714 2.13854 0.551289C1.8007 0.795865 1.52609 1.11668 1.33733 1.48733C1.209 1.73881 1.12833 1.99393 1.08067 2.27092C1.02933 2.54063 1.01283 2.81761 1.00733 3.09096C1.00358 3.21789 1.00114 3.34485 1 3.47182V24.5322C1 24.6597 1.00367 24.7836 1.0055 24.9094C1.01283 25.1827 1.02933 25.4615 1.07883 25.7331C1.12833 26.0064 1.21083 26.2633 1.33917 26.5148C1.59197 27.0095 1.99645 27.4116 2.49417 27.6629C2.74717 27.7904 3.00383 27.8724 3.2825 27.9216C3.55383 27.9708 3.8325 27.9872 4.1075 27.9945L4.48883 28H41.5112L41.8907 27.9945C42.1657 27.9872 42.4462 27.9708 42.7193 27.9216C42.9943 27.8724 43.2528 27.7923 43.504 27.6647C44.003 27.4137 44.4083 27.0108 44.6608 26.5148C44.7892 26.2633 44.8717 26.0082 44.9193 25.7312C44.9688 25.4615 44.9853 25.1845 44.9927 24.9112C44.9963 24.7836 44.9982 24.6597 44.9982 24.5322L45 24.0839V3.47C45 3.34244 44.9963 3.21852 44.9927 3.09278C44.9892 2.81677 44.9647 2.54142 44.9193 2.2691C44.8316 1.72033 44.5716 1.21316 44.1765 0.820094C43.7814 0.427022 43.2714 0.168165 42.7193 0.0805179C42.4453 0.0356125 42.1683 0.0112466 41.8907 0.00762589C41.6139 -0.000162327 41.337 -0.00198553 41.0602 0.00215851H4.94167ZM4.94167 0.935177H41.502C41.623 0.935177 41.7422 0.938822 41.8632 0.940645C42.074 0.947934 42.3215 0.958867 42.5507 0.998957C42.7505 1.0354 42.9173 1.09007 43.0768 1.17025C43.3984 1.33252 43.6598 1.59227 43.823 1.91193C43.907 2.07712 43.9651 2.25411 43.9953 2.43675C44.0357 2.6609 44.0467 2.90691 44.0522 3.11829C44.0558 3.23674 44.0577 3.35519 44.0577 3.47729V24.5285C44.0577 24.647 44.0577 24.7654 44.0522 24.8857C44.0467 25.0953 44.0357 25.3413 43.9935 25.569C43.9538 25.8372 43.8498 26.0919 43.6903 26.3117C43.5308 26.5315 43.3203 26.7099 43.0768 26.8319C42.9117 26.9149 42.735 26.9727 42.5525 27.0032C42.3263 27.039 42.0977 27.0584 41.8687 27.0615L41.502 27.067H4.49433C4.37333 27.067 4.2505 27.0633 4.135 27.0615C3.90472 27.0585 3.67496 27.0391 3.4475 27.0032C3.24767 26.9668 3.08083 26.9121 2.9195 26.8319C2.5979 26.6703 2.33699 26.4103 2.17517 26.0902C2.0914 25.9249 2.0333 25.748 2.00283 25.5654C1.96642 25.3406 1.94681 25.1134 1.94417 24.8857C1.94171 24.766 1.94049 24.6464 1.9405 24.5267V3.47547C1.9405 3.35702 1.9405 3.23674 1.94417 3.11647C1.9515 2.90873 1.9625 2.66454 2.00283 2.43311C2.0395 2.2363 2.0945 2.07047 2.17517 1.91011C2.33852 1.59098 2.59987 1.33184 2.92133 1.17025C3.0873 1.08777 3.2646 1.03005 3.4475 0.998957C3.67667 0.958867 3.92417 0.946111 4.135 0.940645C4.25417 0.937 4.37517 0.936999 4.49433 0.935177H4.94167Z" fill="black"/>
<g clip-path="url(#clip1_1078_69460)">
<path d="M29.6831 11.4184C30.5628 11.4184 31.2426 11.6583 31.7625 12.1382C32.2823 12.618 32.5222 13.2578 32.5222 14.0576V17.8963H31.4025V17.0167H31.3625C30.8827 17.7365 30.2029 18.0964 29.4032 18.0964C28.7233 18.0964 28.1235 17.8964 27.6437 17.4966C27.2038 17.0967 26.9239 16.5369 26.9239 15.9371C26.9239 15.2973 27.1639 14.7774 27.6437 14.3775C28.1235 13.9777 28.8033 13.8177 29.6031 13.8177C30.3228 13.8177 30.8827 13.9377 31.3225 14.2176V13.9377C31.3225 13.5645 31.1832 13.1913 30.9045 12.9481L30.8427 12.898C30.5228 12.6181 30.1229 12.4582 29.6831 12.4582C29.0033 12.4582 28.4835 12.7381 28.1235 13.2979L27.0839 12.658C27.7237 11.8182 28.5634 11.4184 29.6831 11.4184ZM24.0448 8.69928C24.7623 8.69928 25.4442 8.94897 25.9894 9.41459L26.0842 9.49897C26.644 9.97884 26.9239 10.6987 26.9239 11.4584C26.9239 12.2182 26.644 12.898 26.0842 13.4178C25.5243 13.9377 24.8446 14.2175 24.0448 14.2175L22.1255 14.1775V17.8964H20.9258V8.69922L24.0448 8.69928ZM29.843 14.7774C29.3632 14.7774 28.9633 14.8973 28.6434 15.1373C28.3235 15.3372 28.1635 15.6171 28.1635 15.977C28.1635 16.2969 28.3235 16.5768 28.5634 16.7368C28.8433 16.9367 29.1632 17.0567 29.4832 17.0567C29.931 17.0567 30.3788 16.8825 30.7292 16.5667L30.8027 16.4968C31.2026 16.137 31.4025 15.6971 31.4025 15.2172C31.0427 14.9373 30.5228 14.7773 29.843 14.7773L29.843 14.7774ZM24.1248 9.81891H22.1255V13.018H24.1248C24.5647 13.018 25.0045 12.858 25.2845 12.5382C25.9242 11.9383 25.9242 10.9387 25.3245 10.3388L25.2845 10.2988C24.9645 9.97891 24.5647 9.77897 24.1248 9.81897L24.1248 9.81891ZM39.0002 11.6183L35.0414 20.6955H33.8418L35.3213 17.5365L32.7221 11.6583H34.0017L35.8811 16.1769H35.9211L37.7605 11.6583H39.0002V11.6183Z" fill="#5F6368"/>
<path d="M17.3674 13.3765C17.3674 13.0166 17.3274 12.6567 17.2874 12.2969H12.2891V14.3362H15.1281C15.0082 14.976 14.6483 15.5758 14.0885 15.9358V17.2553H15.8079C16.8076 16.3356 17.3674 14.976 17.3674 13.3766L17.3674 13.3765Z" fill="#4285F4"/>
<path d="M12.2888 18.5365C13.7283 18.5365 14.9279 18.0566 15.8077 17.2569L14.0883 15.9373C13.6084 16.2572 13.0086 16.4571 12.2888 16.4571C10.9292 16.4571 9.72956 15.5374 9.32969 14.2578H7.57031V15.6174C8.49 17.4168 10.2894 18.5365 12.2888 18.5365Z" fill="#34A853"/>
<path d="M9.32923 14.2564C9.08936 13.6165 9.08936 12.8968 9.32923 12.217V10.8574H7.56986C6.81005 12.337 6.81005 14.0964 7.56986 15.6159L9.32923 14.2564Z" fill="#FBBC04"/>
<path d="M12.2879 10.0581C13.0477 10.0581 13.7674 10.338 14.3273 10.8578L15.8468 9.33833C14.8871 8.45858 13.6075 7.93877 12.3279 7.97871C10.3285 7.97871 8.48913 9.0984 7.60938 10.8978L9.36881 12.2574C9.72869 10.9778 10.9283 10.0581 12.2879 10.0581Z" fill="#EA4335"/>
</g>
</g>
<defs>
<clipPath id="clip0_1078_69460">
<rect width="46" height="28" fill="white"/>
</clipPath>
<clipPath id="clip1_1078_69460">
<rect width="32" height="12.75" fill="white" transform="translate(7 7.97656)"/>
</clipPath>
</defs>
</svg>
