<svg width="32" height="20" viewBox="0 0 32 20" fill="none" xmlns="http://www.w3.org/2000/svg">
<rect x="0.701172" width="31.0448" height="20" rx="2" fill="white"/>
<path d="M18.4524 5.89422H13.8815V14.1082H18.4524V5.89422Z" fill="#FF5F00"/>
<path d="M14.1717 10.0012C14.171 9.21015 14.3503 8.42929 14.6959 7.71774C15.0416 7.00619 15.5446 6.38261 16.1669 5.89421C15.3963 5.28848 14.4708 4.91178 13.4962 4.80718C12.5216 4.70257 11.5372 4.87428 10.6556 5.30267C9.774 5.73107 9.03069 6.39887 8.51065 7.22974C7.99062 8.06061 7.71484 9.02103 7.71484 10.0012C7.71484 10.9814 7.99062 11.9418 8.51065 12.7727C9.03069 13.6036 9.774 14.2714 10.6556 14.6998C11.5372 15.1282 12.5216 15.2999 13.4962 15.1953C14.4708 15.0907 15.3963 14.714 16.1669 14.1082C15.5446 13.6198 15.0416 12.9963 14.6959 12.2847C14.3503 11.5732 14.171 10.7923 14.1717 10.0012Z" fill="#EB001B"/>
<path d="M24.6188 10.0012C24.6188 10.9814 24.3431 11.9418 23.823 12.7727C23.303 13.6036 22.5598 14.2714 21.6782 14.6998C20.7965 15.1282 19.8122 15.2999 18.8376 15.1953C17.863 15.0907 16.9375 14.714 16.1669 14.1082C16.7887 13.6193 17.2913 12.9957 17.6369 12.2842C17.9826 11.5728 18.1621 10.7922 18.1621 10.0012C18.1621 9.21028 17.9826 8.42966 17.6369 7.71822C17.2913 7.00678 16.7887 6.38311 16.1669 5.89421C16.9375 5.28848 17.863 4.91178 18.8376 4.80718C19.8122 4.70257 20.7965 4.87429 21.6782 5.30269C22.5598 5.73109 23.303 6.39889 23.823 7.22976C24.3431 8.06063 24.6188 9.02104 24.6188 10.0012Z" fill="#F79E1B"/>
<path d="M24.1204 13.2382V13.0701H24.1882V13.0358H24.0155V13.0701H24.0833V13.2382H24.1204ZM24.4556 13.2382V13.0355H24.4027L24.3418 13.1749L24.2809 13.0355H24.228V13.2382H24.2653V13.0853L24.3224 13.2172H24.3612L24.4183 13.085V13.2382H24.4556Z" fill="#F79E1B"/>
</svg>
