<svg width="46" height="28" viewBox="0 0 46 28" fill="none" xmlns="http://www.w3.org/2000/svg">
<g clip-path="url(#clip0_1078_69471)">
<path fill-rule="evenodd" clip-rule="evenodd" d="M10.08 9.47166H7.43545C7.25448 9.47166 7.10057 9.60317 7.07235 9.78174L6.00277 16.5623C5.98152 16.6961 6.08514 16.8167 6.22087 16.8167H7.48339C7.66436 16.8167 7.81827 16.6852 7.84649 16.5063L8.13497 14.6775C8.1628 14.4984 8.31708 14.3671 8.49768 14.3671H9.33484C11.0769 14.3671 12.0822 13.5241 12.3449 11.8539C12.4632 11.1231 12.3499 10.549 12.0076 10.1467C11.6318 9.70534 10.965 9.47166 10.08 9.47166ZM10.3851 11.9482C10.2405 12.897 9.51543 12.897 8.81437 12.897H8.41531L8.69527 11.1249C8.71189 11.0179 8.80469 10.939 8.91297 10.939H9.09587C9.57343 10.939 10.024 10.939 10.2568 11.2112C10.3955 11.3736 10.438 11.6148 10.3851 11.9482ZM17.9851 11.9177H16.7187C16.6108 11.9177 16.5176 11.9967 16.5009 12.1038L16.4449 12.4579L16.3563 12.3296C16.0822 11.9317 15.4709 11.7988 14.8607 11.7988C13.4612 11.7988 12.266 12.8585 12.0332 14.3452C11.9122 15.0867 12.0842 15.7958 12.5049 16.2903C12.8909 16.745 13.4431 16.9345 14.1 16.9345C15.2275 16.9345 15.8529 16.2094 15.8529 16.2094L15.7964 16.5614C15.7751 16.6959 15.8787 16.8165 16.0136 16.8165H17.1544C17.3359 16.8165 17.4889 16.685 17.5175 16.5061L18.202 12.1722C18.2236 12.0389 18.1204 11.9177 17.9851 11.9177ZM16.2198 14.3823C16.0976 15.1057 15.5233 15.5913 14.7911 15.5913C14.4233 15.5913 14.1293 15.4734 13.9407 15.2499C13.7536 15.028 13.6823 14.712 13.7419 14.3603C13.8561 13.6429 14.44 13.1416 15.1611 13.1416C15.5206 13.1416 15.813 13.2609 16.0056 13.4864C16.1985 13.7142 16.2751 14.0319 16.2198 14.3823ZM23.4571 11.9176H24.7297C24.908 11.9176 25.0119 12.1174 24.9107 12.2636L20.678 18.3725C20.6095 18.4714 20.4966 18.5303 20.376 18.5303H19.1049C18.926 18.5303 18.8215 18.3288 18.9251 18.1823L20.243 16.3222L18.8413 12.209C18.7929 12.0661 18.8984 11.9176 19.0505 11.9176H20.301C20.4635 11.9176 20.6068 12.0242 20.6537 12.1797L21.3976 14.6639L23.1529 12.0788C23.2216 11.9779 23.3358 11.9176 23.4571 11.9176Z" fill="#253B80"/>
<path fill-rule="evenodd" clip-rule="evenodd" d="M37.2554 16.5617L38.3407 9.65714C38.3574 9.54997 38.4502 9.47106 38.5581 9.4707H39.78C39.9149 9.4707 40.0185 9.59166 39.9972 9.72549L38.9269 16.5057C38.899 16.6846 38.7451 16.8161 38.5639 16.8161H37.4726C37.3377 16.8161 37.2341 16.6955 37.2554 16.5617ZM28.9435 9.47106H26.2985C26.118 9.47106 25.9641 9.60257 25.9358 9.78114L24.8663 16.5617C24.845 16.6955 24.9486 16.8161 25.0837 16.8161H26.4408C26.567 16.8161 26.6749 16.7241 26.6946 16.5989L26.998 14.6769C27.026 14.4978 27.1802 14.3665 27.3608 14.3665H28.1975C29.9399 14.3665 30.9451 13.5235 31.2079 11.8533C31.3266 11.1225 31.2126 10.5484 30.8704 10.1461C30.4948 9.70474 29.8286 9.47106 28.9435 9.47106ZM29.2486 11.9476C29.1044 12.8964 28.3793 12.8964 27.6779 12.8964H27.2792L27.5596 11.1243C27.5762 11.0173 27.6682 10.9384 27.7768 10.9384H27.9597C28.4369 10.9384 28.8879 10.9384 29.1205 11.2106C29.2594 11.373 29.3016 11.6142 29.2486 11.9476ZM36.8479 11.9171H35.5824C35.4736 11.9171 35.3813 11.9961 35.365 12.1032L35.309 12.4573L35.2201 12.329C34.9459 11.9311 34.335 11.7982 33.7248 11.7982C32.3253 11.7982 31.1304 12.8579 30.8976 14.3446C30.777 15.0861 30.9483 15.7952 31.369 16.2897C31.7557 16.7444 32.3072 16.9339 32.9641 16.9339C34.0916 16.9339 34.7169 16.2088 34.7169 16.2088L34.6605 16.5608C34.6392 16.6953 34.7428 16.8159 34.8786 16.8159H36.0189C36.1994 16.8159 36.3533 16.6844 36.3816 16.5055L37.0664 12.1716C37.0874 12.0383 36.9838 11.9171 36.8479 11.9171ZM35.0828 14.3817C34.9613 15.1051 34.3864 15.5907 33.6539 15.5907C33.2869 15.5907 32.9924 15.4727 32.8036 15.2493C32.6164 15.0274 32.5461 14.7114 32.605 14.3597C32.7197 13.6423 33.3028 13.141 34.024 13.141C34.3837 13.141 34.6759 13.2603 34.8686 13.4858C35.0622 13.7136 35.1388 14.0313 35.0828 14.3817Z" fill="#179BD7"/>
</g>
<defs>
<clipPath id="clip0_1078_69471">
<rect width="46" height="28" fill="white"/>
</clipPath>
</defs>
</svg>
