<svg width="32" height="20" viewBox="0 0 32 20" fill="none" xmlns="http://www.w3.org/2000/svg">
<rect x="0.65625" width="31.0448" height="20" rx="2" fill="white"/>
<path d="M15.9877 6.74102L14.5397 13.5099H12.7887L14.2369 6.74102H15.9877ZM23.3547 11.1117L24.2766 8.56975L24.807 11.1117H23.3547ZM25.3083 13.5099H26.928L25.5146 6.74102H24.0197C23.6838 6.74102 23.4003 6.9364 23.2741 7.23762L20.6472 13.5099H22.486L22.851 12.4991H25.0975L25.3083 13.5099ZM20.7384 11.2998C20.7459 9.51326 18.2678 9.41492 18.285 8.61689C18.2901 8.37373 18.5217 8.11578 19.0275 8.04958C19.2788 8.0168 19.9697 7.99174 20.7543 8.35273L21.0615 6.91734C20.6401 6.76437 20.0978 6.61719 19.4234 6.61719C17.6928 6.61719 16.4747 7.53734 16.4644 8.8549C16.4534 9.82926 17.334 10.373 17.9975 10.6969C18.6796 11.0288 18.9088 11.2413 18.9058 11.538C18.9013 11.9924 18.3617 12.1925 17.8582 12.2004C16.9777 12.2144 16.4667 11.9629 16.0595 11.773L15.7422 13.2562C16.1512 13.4441 16.9063 13.6073 17.6898 13.6157C19.529 13.6157 20.7324 12.7069 20.7384 11.2998ZM13.4856 6.74102L10.6487 13.5099H8.79745L7.40148 8.10786C7.31664 7.77514 7.24294 7.65346 6.98521 7.51313C6.56466 7.28497 5.86946 7.07052 5.25781 6.93769L5.29959 6.74102H8.27899C8.65862 6.74102 9.00033 6.99382 9.08645 7.43108L9.82386 11.3482L11.646 6.74102H13.4856Z" fill="#1434CB"/>
</svg>
